<mxfile host="Electron" agent="Mozilla/5.0 (Windows NT 10.0; Win64; x64) AppleWebKit/537.36 (KHTML, like Gecko) draw.io/27.0.2 Chrome/134.0.6998.205 Electron/35.3.0 Safari/537.36" version="27.0.2" pages="8">
  <diagram name="Startbildschirm" id="jrZ7fGEptUbQabb18aZM">
    <mxGraphModel dx="946" dy="710" grid="1" gridSize="10" guides="1" tooltips="1" connect="1" arrows="1" fold="1" page="1" pageScale="1" pageWidth="827" pageHeight="1169" math="0" shadow="0">
      <root>
        <mxCell id="0" />
        <mxCell id="1" parent="0" />
        <mxCell id="PevhlN3UxsIlJdj7NqL9-1" value="" style="html=1;verticalLabelPosition=bottom;labelBackgroundColor=#ffffff;verticalAlign=top;shadow=0;dashed=0;strokeWidth=1;shape=mxgraph.ios7.misc.iphone;movable=0;resizable=0;rotatable=0;deletable=0;editable=0;locked=1;connectable=0;" parent="1" vertex="1">
          <mxGeometry x="219" y="60" width="371" height="740" as="geometry" />
        </mxCell>
        <mxCell id="PevhlN3UxsIlJdj7NqL9-20" value="&lt;font style=&quot;color: rgb(0, 0, 0); font-size: 16px;&quot;&gt;&lt;b&gt;Fridgy&lt;/b&gt;&lt;/font&gt;" style="rounded=1;whiteSpace=wrap;html=1;fillColor=#d5e8d4;strokeColor=#82b366;" parent="1" vertex="1">
          <mxGeometry x="260" y="220" width="110" height="30" as="geometry" />
        </mxCell>
        <mxCell id="PevhlN3UxsIlJdj7NqL9-41" value="" style="html=1;strokeWidth=1;shadow=0;dashed=0;shape=mxgraph.ios7ui.appBar;fillColor=#ffffff;gradientColor=none;sketch=0;hachureGap=4;pointerEvents=0;fontFamily=Architects Daughter;fontSource=https%3A%2F%2Ffonts.googleapis.com%2Fcss%3Ffamily%3DArchitects%2BDaughter;fontSize=20;" parent="1" vertex="1">
          <mxGeometry x="264.5" y="180" width="280" height="15" as="geometry" />
        </mxCell>
        <mxCell id="PevhlN3UxsIlJdj7NqL9-42" value="CARRIER" style="shape=rect;align=left;fontSize=8;spacingLeft=24;fontSize=4;fontColor=#aaaaaa;strokeColor=none;fillColor=none;spacingTop=0;sketch=0;hachureGap=4;pointerEvents=0;fontFamily=Helvetica;html=1;" parent="PevhlN3UxsIlJdj7NqL9-41" vertex="1">
          <mxGeometry y="0.5" width="50" height="13" relative="1" as="geometry">
            <mxPoint y="-6.5" as="offset" />
          </mxGeometry>
        </mxCell>
        <mxCell id="PevhlN3UxsIlJdj7NqL9-43" value="11:55PM" style="shape=rect;fontSize=8;fontColor=#aaaaaa;strokeColor=none;fillColor=none;spacingTop=0;sketch=0;hachureGap=4;pointerEvents=0;fontFamily=Helvetica;html=1;" parent="PevhlN3UxsIlJdj7NqL9-41" vertex="1">
          <mxGeometry x="0.5" y="0.5" width="50" height="13" relative="1" as="geometry">
            <mxPoint x="-25" y="-6.5" as="offset" />
          </mxGeometry>
        </mxCell>
        <mxCell id="PevhlN3UxsIlJdj7NqL9-44" value="98%" style="shape=rect;align=right;fontSize=8;spacingRight=19;fontSize=6;fontColor=#aaaaaa;strokeColor=none;fillColor=none;spacingTop=0;sketch=0;hachureGap=4;pointerEvents=0;fontFamily=Helvetica;html=1;" parent="PevhlN3UxsIlJdj7NqL9-41" vertex="1">
          <mxGeometry x="1" y="0.5" width="45" height="13" relative="1" as="geometry">
            <mxPoint x="-45" y="-6.5" as="offset" />
          </mxGeometry>
        </mxCell>
        <mxCell id="PevhlN3UxsIlJdj7NqL9-45" value="" style="sketch=0;outlineConnect=0;fontColor=#232F3E;gradientColor=none;fillColor=#7EA6E0;strokeColor=none;dashed=0;verticalLabelPosition=bottom;verticalAlign=top;align=center;html=1;fontSize=12;fontStyle=0;aspect=fixed;pointerEvents=1;shape=mxgraph.aws4.magnifying_glass_2;" parent="1" vertex="1">
          <mxGeometry x="520" y="218" width="30" height="30" as="geometry" />
        </mxCell>
        <mxCell id="0ABIM70HXCR0pCkN8Ao_-4" value="" style="group" parent="1" vertex="1" connectable="0">
          <mxGeometry x="260" y="620" width="290" height="56.4" as="geometry" />
        </mxCell>
        <mxCell id="PevhlN3UxsIlJdj7NqL9-8" value="" style="rounded=1;whiteSpace=wrap;html=1;arcSize=20;fillColor=none;" parent="0ABIM70HXCR0pCkN8Ao_-4" vertex="1">
          <mxGeometry x="60" width="50" height="50" as="geometry" />
        </mxCell>
        <mxCell id="PevhlN3UxsIlJdj7NqL9-10" value="" style="rounded=1;whiteSpace=wrap;html=1;arcSize=20;" parent="0ABIM70HXCR0pCkN8Ao_-4" vertex="1">
          <mxGeometry x="180" width="50" height="50" as="geometry" />
        </mxCell>
        <mxCell id="PevhlN3UxsIlJdj7NqL9-11" value="" style="rounded=1;whiteSpace=wrap;html=1;arcSize=20;" parent="0ABIM70HXCR0pCkN8Ao_-4" vertex="1">
          <mxGeometry x="240" width="50" height="50" as="geometry" />
        </mxCell>
        <mxCell id="PevhlN3UxsIlJdj7NqL9-5" value="" style="verticalLabelPosition=bottom;html=1;verticalAlign=top;align=center;shape=mxgraph.azure.azure_marketplace;fillColor=#d5e8d4;strokeColor=#82b366;gradientColor=#97d077;" parent="0ABIM70HXCR0pCkN8Ao_-4" vertex="1">
          <mxGeometry x="71.25" y="10" width="27.5" height="28.870000000000005" as="geometry" />
        </mxCell>
        <mxCell id="PevhlN3UxsIlJdj7NqL9-13" value="" style="verticalLabelPosition=bottom;html=1;verticalAlign=top;align=center;shape=mxgraph.azure.user;fillColor=#d5e8d4;gradientColor=#97d077;strokeColor=#82b366;" parent="0ABIM70HXCR0pCkN8Ao_-4" vertex="1">
          <mxGeometry x="250" y="9.430000000000064" width="30" height="30" as="geometry" />
        </mxCell>
        <mxCell id="fF_KB729LwYrooCHR72V-3" value="" style="html=1;verticalLabelPosition=bottom;align=center;labelBackgroundColor=#ffffff;verticalAlign=top;strokeWidth=2;strokeColor=#82b366;shadow=0;dashed=0;shape=mxgraph.ios7.icons.camera;fillColor=#d5e8d4;gradientColor=#97d077;" parent="0ABIM70HXCR0pCkN8Ao_-4" vertex="1">
          <mxGeometry x="190" y="16.3" width="30" height="17.4" as="geometry" />
        </mxCell>
        <mxCell id="0ABIM70HXCR0pCkN8Ao_-10" value="" style="group;fontSize=11;" parent="1" vertex="1" connectable="0">
          <mxGeometry x="246.75" y="260" width="315.5" height="20" as="geometry" />
        </mxCell>
        <mxCell id="PevhlN3UxsIlJdj7NqL9-47" value="" style="rounded=1;whiteSpace=wrap;html=1;fillColor=#d5e8d4;strokeColor=#82b366;" parent="0ABIM70HXCR0pCkN8Ao_-10" vertex="1">
          <mxGeometry x="153.25" width="162.25" height="20" as="geometry" />
        </mxCell>
        <mxCell id="PevhlN3UxsIlJdj7NqL9-46" value="" style="rounded=1;whiteSpace=wrap;html=1;fillColor=#d5e8d4;strokeColor=#82b366;" parent="0ABIM70HXCR0pCkN8Ao_-10" vertex="1">
          <mxGeometry width="153.25" height="20" as="geometry" />
        </mxCell>
        <mxCell id="PevhlN3UxsIlJdj7NqL9-48" value="" style="html=1;dashed=0;aspect=fixed;verticalLabelPosition=bottom;verticalAlign=top;align=center;shape=mxgraph.gmdl.calendar;strokeColor=none;fillColor=#737373;shadow=0;sketch=0;" parent="0ABIM70HXCR0pCkN8Ao_-10" vertex="1">
          <mxGeometry x="8.75" y="2.5" width="15" height="15" as="geometry" />
        </mxCell>
        <mxCell id="PevhlN3UxsIlJdj7NqL9-49" value="" style="html=1;dashed=0;aspect=fixed;verticalLabelPosition=bottom;verticalAlign=top;align=center;shape=mxgraph.gmdl.calendar;strokeColor=none;fillColor=#737373;shadow=0;sketch=0;" parent="0ABIM70HXCR0pCkN8Ao_-10" vertex="1">
          <mxGeometry x="160.25" y="2.5" width="15" height="15" as="geometry" />
        </mxCell>
        <mxCell id="PevhlN3UxsIlJdj7NqL9-50" value="Heute" style="rounded=1;whiteSpace=wrap;html=1;fontStyle=1;" parent="0ABIM70HXCR0pCkN8Ao_-10" vertex="1">
          <mxGeometry x="33.25" y="2.5" width="106.75" height="15" as="geometry" />
        </mxCell>
        <mxCell id="PevhlN3UxsIlJdj7NqL9-54" value="Woche" style="rounded=1;whiteSpace=wrap;html=1;fillColor=#f5f5f5;fontColor=#333333;strokeColor=#FFFFFF;fontStyle=1" parent="0ABIM70HXCR0pCkN8Ao_-10" vertex="1">
          <mxGeometry x="195.75" y="5" width="102" height="10" as="geometry" />
        </mxCell>
        <mxCell id="0ABIM70HXCR0pCkN8Ao_-11" value="&lt;font style=&quot;color: rgb(255, 255, 255);&quot;&gt;Produkt lÃ¤uft bald ab:&lt;/font&gt;" style="text;html=1;align=left;verticalAlign=middle;whiteSpace=wrap;rounded=0;fontSize=11;fontStyle=1" parent="1" vertex="1">
          <mxGeometry x="255.5" y="470" width="124.5" height="20" as="geometry" />
        </mxCell>
        <mxCell id="0ABIM70HXCR0pCkN8Ao_-22" value="" style="group;fontSize=10;" parent="1" vertex="1" connectable="0">
          <mxGeometry x="260" y="490" width="290" height="180" as="geometry" />
        </mxCell>
        <mxCell id="0ABIM70HXCR0pCkN8Ao_-13" value="&lt;font style=&quot;color: rgb(255, 255, 255);&quot;&gt;1. Joghurt in 8 Tagen&lt;/font&gt;" style="text;html=1;align=left;verticalAlign=middle;whiteSpace=wrap;rounded=0;fontSize=9;" parent="0ABIM70HXCR0pCkN8Ao_-22" vertex="1">
          <mxGeometry width="290" height="13.333333333333332" as="geometry" />
        </mxCell>
        <mxCell id="0ABIM70HXCR0pCkN8Ao_-14" value="&lt;font style=&quot;color: rgb(255, 255, 255);&quot;&gt;2. Schlagsahne in 9 Tagen&lt;/font&gt;" style="text;html=1;align=left;verticalAlign=middle;whiteSpace=wrap;rounded=0;fontSize=9;" parent="0ABIM70HXCR0pCkN8Ao_-22" vertex="1">
          <mxGeometry y="13.333333333333332" width="290" height="13.333333333333332" as="geometry" />
        </mxCell>
        <mxCell id="0ABIM70HXCR0pCkN8Ao_-15" value="&lt;font style=&quot;color: rgb(255, 255, 255);&quot;&gt;3. Pudding in 12 Tagen&lt;/font&gt;" style="text;html=1;align=left;verticalAlign=middle;whiteSpace=wrap;rounded=0;fontSize=9;" parent="0ABIM70HXCR0pCkN8Ao_-22" vertex="1">
          <mxGeometry y="26.666666666666664" width="290" height="13.333333333333332" as="geometry" />
        </mxCell>
        <mxCell id="0ABIM70HXCR0pCkN8Ao_-16" value="&lt;font style=&quot;color: rgb(255, 255, 255);&quot;&gt;&lt;font&gt;4. Milch 3,5% in 14&amp;nbsp;&lt;/font&gt;&lt;span style=&quot;background-color: transparent;&quot;&gt;Tagen&lt;/span&gt;&lt;/font&gt;" style="text;html=1;align=left;verticalAlign=middle;whiteSpace=wrap;rounded=0;fontSize=9;" parent="0ABIM70HXCR0pCkN8Ao_-22" vertex="1">
          <mxGeometry y="39.99999999999999" width="290" height="13.333333333333332" as="geometry" />
        </mxCell>
        <mxCell id="0ABIM70HXCR0pCkN8Ao_-17" value="&lt;font style=&quot;color: rgb(255, 255, 255);&quot;&gt;5. Milch 1,5% in 14 Tagen&lt;/font&gt;" style="text;html=1;align=left;verticalAlign=middle;whiteSpace=wrap;rounded=0;fontSize=9;" parent="0ABIM70HXCR0pCkN8Ao_-22" vertex="1">
          <mxGeometry y="53.33333333333333" width="290" height="13.333333333333332" as="geometry" />
        </mxCell>
        <mxCell id="0ABIM70HXCR0pCkN8Ao_-18" value="&lt;font style=&quot;color: rgb(255, 255, 255);&quot;&gt;6. GeflÃ¼gelwurst in 16 Tagen&lt;/font&gt;" style="text;html=1;align=left;verticalAlign=middle;whiteSpace=wrap;rounded=0;fontSize=9;" parent="0ABIM70HXCR0pCkN8Ao_-22" vertex="1">
          <mxGeometry y="66.66666666666666" width="290" height="13.333333333333332" as="geometry" />
        </mxCell>
        <mxCell id="0ABIM70HXCR0pCkN8Ao_-19" value="&lt;font style=&quot;color: rgb(255, 255, 255);&quot;&gt;7. Leberwurst in 17 Tagen&lt;/font&gt;" style="text;html=1;align=left;verticalAlign=middle;whiteSpace=wrap;rounded=0;fontSize=9;" parent="0ABIM70HXCR0pCkN8Ao_-22" vertex="1">
          <mxGeometry y="79.99999999999999" width="290" height="13.333333333333332" as="geometry" />
        </mxCell>
        <mxCell id="0ABIM70HXCR0pCkN8Ao_-20" value="&lt;font style=&quot;color: rgb(255, 255, 255);&quot;&gt;8. FrischkÃ¤se in 20 Tagen&lt;/font&gt;" style="text;html=1;align=left;verticalAlign=middle;whiteSpace=wrap;rounded=0;fontSize=9;" parent="0ABIM70HXCR0pCkN8Ao_-22" vertex="1">
          <mxGeometry y="93.33333333333333" width="290" height="13.333333333333332" as="geometry" />
        </mxCell>
        <mxCell id="PevhlN3UxsIlJdj7NqL9-9" value="" style="rounded=1;whiteSpace=wrap;html=1;arcSize=20;" parent="0ABIM70HXCR0pCkN8Ao_-22" vertex="1">
          <mxGeometry y="130" width="50" height="50" as="geometry" />
        </mxCell>
        <mxCell id="PevhlN3UxsIlJdj7NqL9-3" value="" style="sketch=0;html=1;aspect=fixed;shadow=0;verticalAlign=top;labelPosition=center;verticalLabelPosition=bottom;shape=mxgraph.gcp2.view_list;fillColor=#d5e8d4;gradientColor=#97d077;strokeColor=#82b366;" parent="0ABIM70HXCR0pCkN8Ao_-22" vertex="1">
          <mxGeometry x="13.299999999999997" y="140.56" width="23.39" height="28.88" as="geometry" />
        </mxCell>
        <mxCell id="0ABIM70HXCR0pCkN8Ao_-45" value="" style="group" parent="1" vertex="1" connectable="0">
          <mxGeometry x="250" y="440" width="310" height="30" as="geometry" />
        </mxCell>
        <mxCell id="0ABIM70HXCR0pCkN8Ao_-42" value="&lt;b&gt;HinzufÃ¼gen&lt;/b&gt;" style="rounded=1;whiteSpace=wrap;html=1;align=right;fillColor=#d5e8d4;strokeColor=#82b366;" parent="0ABIM70HXCR0pCkN8Ao_-45" vertex="1">
          <mxGeometry width="103.33333333333333" height="20" as="geometry" />
        </mxCell>
        <mxCell id="0ABIM70HXCR0pCkN8Ao_-43" value="&lt;b&gt;Entfernen&lt;/b&gt;" style="rounded=1;whiteSpace=wrap;html=1;align=right;fillColor=#d5e8d4;strokeColor=#82b366;" parent="0ABIM70HXCR0pCkN8Ao_-45" vertex="1">
          <mxGeometry x="103.33333333333333" width="103.33333333333333" height="20" as="geometry" />
        </mxCell>
        <mxCell id="0ABIM70HXCR0pCkN8Ao_-44" value="&lt;b&gt;Bearbeiten&lt;/b&gt;" style="rounded=1;whiteSpace=wrap;html=1;align=right;fillColor=#d5e8d4;strokeColor=#82b366;" parent="0ABIM70HXCR0pCkN8Ao_-45" vertex="1">
          <mxGeometry x="206.66666666666666" width="103.33333333333333" height="20" as="geometry" />
        </mxCell>
        <mxCell id="0ABIM70HXCR0pCkN8Ao_-46" value="" style="html=1;verticalLabelPosition=bottom;align=center;labelBackgroundColor=#ffffff;verticalAlign=top;strokeWidth=2;shadow=0;dashed=0;shape=mxgraph.ios7.icons.add;fillColor=none;" parent="0ABIM70HXCR0pCkN8Ao_-45" vertex="1">
          <mxGeometry x="6" y="2.5" width="17" height="15" as="geometry" />
        </mxCell>
        <mxCell id="0ABIM70HXCR0pCkN8Ao_-47" value="&lt;span style=&quot;color: rgba(0, 0, 0, 0); font-family: monospace; font-size: 0px; text-align: start; background-color: rgb(236, 236, 236);&quot;&gt;%3CmxGraphModel%3E%3Croot%3E%3CmxCell%20id%3D%220%22%2F%3E%3CmxCell%20id%3D%221%22%20parent%3D%220%22%2F%3E%3CmxCell%20id%3D%222%22%20value%3D%22%22%20style%3D%22html%3D1%3BverticalLabelPosition%3Dbottom%3Balign%3Dcenter%3BlabelBackgroundColor%3D%23ffffff%3BverticalAlign%3Dtop%3BstrokeWidth%3D2%3Bshadow%3D0%3Bdashed%3D0%3Bshape%3Dmxgraph.ios7.icons.add%3BfillColor%3Dnone%3B%22%20vertex%3D%221%22%20parent%3D%221%22%3E%3CmxGeometry%20x%3D%22256%22%20y%3D%22442.5%22%20width%3D%2217%22%20height%3D%2215%22%20as%3D%22geometry%22%2F%3E%3C%2FmxCell%3E%3C%2Froot%3E%3C%2FmxGraphModel%3E&lt;/span&gt;" style="html=1;verticalLabelPosition=bottom;align=center;labelBackgroundColor=#ffffff;verticalAlign=top;strokeWidth=2;shadow=0;dashed=0;shape=mxgraph.ios7.icons.delete;fillColor=none;" parent="0ABIM70HXCR0pCkN8Ao_-45" vertex="1">
          <mxGeometry x="110" y="2.5" width="17" height="15" as="geometry" />
        </mxCell>
        <mxCell id="0ABIM70HXCR0pCkN8Ao_-48" value="&lt;span style=&quot;color: rgba(0, 0, 0, 0); font-family: monospace; font-size: 0px; text-align: start; background-color: rgb(236, 236, 236);&quot;&gt;%3CmxGraphModel%3E%3Croot%3E%3CmxCell%20id%3D%220%22%2F%3E%3CmxCell%20id%3D%221%22%20parent%3D%220%22%2F%3E%3CmxCell%20id%3D%222%22%20value%3D%22%22%20style%3D%22html%3D1%3BverticalLabelPosition%3Dbottom%3Balign%3Dcenter%3BlabelBackgroundColor%3D%23ffffff%3BverticalAlign%3Dtop%3BstrokeWidth%3D2%3Bshadow%3D0%3Bdashed%3D0%3Bshape%3Dmxgraph.ios7.icons.add%3BfillColor%3Dnone%3B%22%20vertex%3D%221%22%20parent%3D%221%22%3E%3CmxGeometry%20x%3D%22256%22%20y%3D%22442.5%22%20width%3D%2217%22%20height%3D%2215%22%20as%3D%22geometry%22%2F%3E%3C%2FmxCell%3E%3C%2Froot%3E%3C%2FmxGraphModel%3E&lt;/span&gt;" style="html=1;verticalLabelPosition=bottom;align=center;labelBackgroundColor=#ffffff;verticalAlign=top;strokeWidth=2;shadow=0;dashed=0;shape=mxgraph.ios7.icons.compose;fillColor=none;" parent="0ABIM70HXCR0pCkN8Ao_-45" vertex="1">
          <mxGeometry x="212" y="1.5" width="17" height="15" as="geometry" />
        </mxCell>
        <mxCell id="0ABIM70HXCR0pCkN8Ao_-58" value="" style="rounded=1;whiteSpace=wrap;html=1;" parent="1" vertex="1">
          <mxGeometry x="246.75" y="290" width="153.25" height="60" as="geometry" />
        </mxCell>
        <mxCell id="0ABIM70HXCR0pCkN8Ao_-60" value="" style="rounded=1;whiteSpace=wrap;html=1;" parent="1" vertex="1">
          <mxGeometry x="400" y="290" width="160" height="60" as="geometry" />
        </mxCell>
        <mxCell id="0ABIM70HXCR0pCkN8Ao_-62" value="" style="rounded=1;whiteSpace=wrap;html=1;" parent="1" vertex="1">
          <mxGeometry x="246.75" y="350" width="153.25" height="60" as="geometry" />
        </mxCell>
        <mxCell id="0ABIM70HXCR0pCkN8Ao_-63" value="" style="rounded=1;whiteSpace=wrap;html=1;" parent="1" vertex="1">
          <mxGeometry x="400" y="350" width="160" height="60" as="geometry" />
        </mxCell>
        <mxCell id="0ABIM70HXCR0pCkN8Ao_-64" value="Zum FrÃ¼hstÃ¼ck" style="text;html=1;align=center;verticalAlign=middle;whiteSpace=wrap;rounded=0;fontStyle=1" parent="1" vertex="1">
          <mxGeometry x="271.19" y="290" width="104.37" height="30" as="geometry" />
        </mxCell>
        <mxCell id="0ABIM70HXCR0pCkN8Ao_-65" value="Zum Mittagessen" style="text;html=1;align=center;verticalAlign=middle;whiteSpace=wrap;rounded=0;fontStyle=1" parent="1" vertex="1">
          <mxGeometry x="427.82" y="290" width="104.37" height="30" as="geometry" />
        </mxCell>
        <mxCell id="0ABIM70HXCR0pCkN8Ao_-66" value="Zum Abendessen" style="text;html=1;align=center;verticalAlign=middle;whiteSpace=wrap;rounded=0;fontStyle=1" parent="1" vertex="1">
          <mxGeometry x="271.19" y="350" width="104.37" height="30" as="geometry" />
        </mxCell>
        <mxCell id="0ABIM70HXCR0pCkN8Ao_-67" value="Snacks" style="text;html=1;align=center;verticalAlign=middle;whiteSpace=wrap;rounded=0;fontStyle=1" parent="1" vertex="1">
          <mxGeometry x="427.82" y="350" width="104.37" height="30" as="geometry" />
        </mxCell>
        <mxCell id="0ABIM70HXCR0pCkN8Ao_-68" value="Spiegelei" style="text;html=1;align=center;verticalAlign=middle;whiteSpace=wrap;rounded=0;" parent="1" vertex="1">
          <mxGeometry x="277.25" y="310" width="92.25" height="30" as="geometry" />
        </mxCell>
        <mxCell id="0ABIM70HXCR0pCkN8Ao_-71" value="HÃ¤hnchen mit Nudeln" style="text;html=1;align=center;verticalAlign=middle;whiteSpace=wrap;rounded=0;" parent="1" vertex="1">
          <mxGeometry x="277.25" y="370" width="92.25" height="30" as="geometry" />
        </mxCell>
        <mxCell id="0ABIM70HXCR0pCkN8Ao_-72" value="Kartoffelsuppe" style="text;html=1;align=center;verticalAlign=middle;whiteSpace=wrap;rounded=0;" parent="1" vertex="1">
          <mxGeometry x="433.88" y="310" width="92.25" height="30" as="geometry" />
        </mxCell>
        <mxCell id="0ABIM70HXCR0pCkN8Ao_-73" value="Apfeljoguhrt" style="text;html=1;align=center;verticalAlign=middle;whiteSpace=wrap;rounded=0;" parent="1" vertex="1">
          <mxGeometry x="433.88" y="370" width="92.25" height="30" as="geometry" />
        </mxCell>
        <mxCell id="PevhlN3UxsIlJdj7NqL9-7" value="" style="rounded=1;whiteSpace=wrap;html=1;arcSize=20;fillColor=#d5e8d4;gradientColor=#97d077;strokeColor=light-dark(#000000, #446e2c);" parent="1" vertex="1">
          <mxGeometry x="380" y="618.87" width="50" height="50" as="geometry" />
        </mxCell>
        <mxCell id="PevhlN3UxsIlJdj7NqL9-2" value="" style="html=1;verticalLabelPosition=bottom;align=center;labelBackgroundColor=#ffffff;verticalAlign=top;strokeWidth=2;shadow=0;dashed=0;shape=mxgraph.ios7.icons.home;" parent="1" vertex="1">
          <mxGeometry x="390" y="630" width="30" height="27.750000000000004" as="geometry" />
        </mxCell>
      </root>
    </mxGraphModel>
  </diagram>
  <diagram name="HinzufÃ¼gen" id="YnX5Elw_tL_NWw2zVSfO">
    <mxGraphModel dx="946" dy="710" grid="1" gridSize="10" guides="1" tooltips="1" connect="1" arrows="1" fold="1" page="1" pageScale="1" pageWidth="827" pageHeight="1169" math="0" shadow="0">
      <root>
        <mxCell id="KyxPLd9x04It-xJ5YwFT-0" />
        <mxCell id="KyxPLd9x04It-xJ5YwFT-1" parent="KyxPLd9x04It-xJ5YwFT-0" />
        <mxCell id="KyxPLd9x04It-xJ5YwFT-2" value="" style="html=1;verticalLabelPosition=bottom;labelBackgroundColor=#ffffff;verticalAlign=top;shadow=0;dashed=0;strokeWidth=1;shape=mxgraph.ios7.misc.iphone;movable=0;resizable=0;rotatable=0;deletable=0;editable=0;locked=1;connectable=0;" parent="KyxPLd9x04It-xJ5YwFT-1" vertex="1">
          <mxGeometry x="219" y="60" width="371" height="740" as="geometry" />
        </mxCell>
        <mxCell id="KyxPLd9x04It-xJ5YwFT-3" value="&lt;font style=&quot;font-size: 16px; color: rgb(0, 0, 0);&quot;&gt;&lt;b&gt;Fridgy&lt;/b&gt;&lt;/font&gt;" style="rounded=1;whiteSpace=wrap;html=1;fillColor=#d5e8d4;strokeColor=#82b366;" parent="KyxPLd9x04It-xJ5YwFT-1" vertex="1">
          <mxGeometry x="260" y="220" width="110" height="30" as="geometry" />
        </mxCell>
        <mxCell id="KyxPLd9x04It-xJ5YwFT-4" value="" style="html=1;strokeWidth=1;shadow=0;dashed=0;shape=mxgraph.ios7ui.appBar;fillColor=#ffffff;gradientColor=none;sketch=0;hachureGap=4;pointerEvents=0;fontFamily=Architects Daughter;fontSource=https%3A%2F%2Ffonts.googleapis.com%2Fcss%3Ffamily%3DArchitects%2BDaughter;fontSize=20;" parent="KyxPLd9x04It-xJ5YwFT-1" vertex="1">
          <mxGeometry x="264.5" y="180" width="280" height="15" as="geometry" />
        </mxCell>
        <mxCell id="KyxPLd9x04It-xJ5YwFT-5" value="CARRIER" style="shape=rect;align=left;fontSize=8;spacingLeft=24;fontSize=4;fontColor=#aaaaaa;strokeColor=none;fillColor=none;spacingTop=0;sketch=0;hachureGap=4;pointerEvents=0;fontFamily=Helvetica;html=1;" parent="KyxPLd9x04It-xJ5YwFT-4" vertex="1">
          <mxGeometry y="0.5" width="50" height="13" relative="1" as="geometry">
            <mxPoint y="-6.5" as="offset" />
          </mxGeometry>
        </mxCell>
        <mxCell id="KyxPLd9x04It-xJ5YwFT-6" value="11:55PM" style="shape=rect;fontSize=8;fontColor=#aaaaaa;strokeColor=none;fillColor=none;spacingTop=0;sketch=0;hachureGap=4;pointerEvents=0;fontFamily=Helvetica;html=1;" parent="KyxPLd9x04It-xJ5YwFT-4" vertex="1">
          <mxGeometry x="0.5" y="0.5" width="50" height="13" relative="1" as="geometry">
            <mxPoint x="-25" y="-6.5" as="offset" />
          </mxGeometry>
        </mxCell>
        <mxCell id="KyxPLd9x04It-xJ5YwFT-7" value="98%" style="shape=rect;align=right;fontSize=8;spacingRight=19;fontSize=6;fontColor=#aaaaaa;strokeColor=none;fillColor=none;spacingTop=0;sketch=0;hachureGap=4;pointerEvents=0;fontFamily=Helvetica;html=1;" parent="KyxPLd9x04It-xJ5YwFT-4" vertex="1">
          <mxGeometry x="1" y="0.5" width="45" height="13" relative="1" as="geometry">
            <mxPoint x="-45" y="-6.5" as="offset" />
          </mxGeometry>
        </mxCell>
        <mxCell id="KyxPLd9x04It-xJ5YwFT-8" value="" style="sketch=0;outlineConnect=0;fontColor=#232F3E;gradientColor=none;fillColor=#7EA6E0;strokeColor=none;dashed=0;verticalLabelPosition=bottom;verticalAlign=top;align=center;html=1;fontSize=12;fontStyle=0;aspect=fixed;pointerEvents=1;shape=mxgraph.aws4.magnifying_glass_2;" parent="KyxPLd9x04It-xJ5YwFT-1" vertex="1">
          <mxGeometry x="520" y="218" width="30" height="30" as="geometry" />
        </mxCell>
        <mxCell id="KyxPLd9x04It-xJ5YwFT-9" value="" style="group" parent="KyxPLd9x04It-xJ5YwFT-1" vertex="1" connectable="0">
          <mxGeometry x="260" y="620" width="290" height="50" as="geometry" />
        </mxCell>
        <mxCell id="KyxPLd9x04It-xJ5YwFT-10" value="" style="rounded=1;whiteSpace=wrap;html=1;arcSize=20;fillColor=#d5e8d4;gradientColor=#97d077;strokeColor=#82b366;" parent="KyxPLd9x04It-xJ5YwFT-9" vertex="1">
          <mxGeometry width="50" height="50" as="geometry" />
        </mxCell>
        <mxCell id="KyxPLd9x04It-xJ5YwFT-11" value="" style="rounded=1;whiteSpace=wrap;html=1;arcSize=20;fillColor=none;" parent="KyxPLd9x04It-xJ5YwFT-9" vertex="1">
          <mxGeometry x="60" width="50" height="50" as="geometry" />
        </mxCell>
        <mxCell id="KyxPLd9x04It-xJ5YwFT-12" value="" style="rounded=1;whiteSpace=wrap;html=1;arcSize=20;" parent="KyxPLd9x04It-xJ5YwFT-9" vertex="1">
          <mxGeometry x="119.5" width="50" height="50" as="geometry" />
        </mxCell>
        <mxCell id="KyxPLd9x04It-xJ5YwFT-13" value="" style="rounded=1;whiteSpace=wrap;html=1;arcSize=20;" parent="KyxPLd9x04It-xJ5YwFT-9" vertex="1">
          <mxGeometry x="180" width="50" height="50" as="geometry" />
        </mxCell>
        <mxCell id="KyxPLd9x04It-xJ5YwFT-14" value="" style="rounded=1;whiteSpace=wrap;html=1;arcSize=20;" parent="KyxPLd9x04It-xJ5YwFT-9" vertex="1">
          <mxGeometry x="240" width="50" height="50" as="geometry" />
        </mxCell>
        <mxCell id="KyxPLd9x04It-xJ5YwFT-15" value="" style="html=1;verticalLabelPosition=bottom;align=center;labelBackgroundColor=#ffffff;verticalAlign=top;strokeWidth=2;shadow=0;dashed=0;shape=mxgraph.ios7.icons.home;" parent="KyxPLd9x04It-xJ5YwFT-9" vertex="1">
          <mxGeometry x="10" y="11.120000000000005" width="30" height="27.750000000000004" as="geometry" />
        </mxCell>
        <mxCell id="KyxPLd9x04It-xJ5YwFT-16" value="" style="sketch=0;html=1;aspect=fixed;shadow=0;verticalAlign=top;labelPosition=center;verticalLabelPosition=bottom;shape=mxgraph.gcp2.view_list;fillColor=#d5e8d4;gradientColor=#97d077;strokeColor=#82b366;" parent="KyxPLd9x04It-xJ5YwFT-9" vertex="1">
          <mxGeometry x="132.81" y="10" width="23.39" height="28.88" as="geometry" />
        </mxCell>
        <mxCell id="KyxPLd9x04It-xJ5YwFT-17" value="" style="verticalLabelPosition=bottom;html=1;verticalAlign=top;align=center;shape=mxgraph.azure.azure_marketplace;fillColor=#d5e8d4;strokeColor=#82b366;gradientColor=#97d077;" parent="KyxPLd9x04It-xJ5YwFT-9" vertex="1">
          <mxGeometry x="71.25" y="10" width="27.5" height="28.870000000000005" as="geometry" />
        </mxCell>
        <mxCell id="KyxPLd9x04It-xJ5YwFT-18" value="" style="sketch=0;pointerEvents=1;shadow=0;dashed=0;html=1;labelPosition=center;verticalLabelPosition=bottom;verticalAlign=top;outlineConnect=0;align=center;shape=mxgraph.office.concepts.book_journal;fillColor=#d5e8d4;gradientColor=#97d077;strokeColor=#82b366;" parent="KyxPLd9x04It-xJ5YwFT-9" vertex="1">
          <mxGeometry x="195" y="11.120000000000005" width="20" height="30" as="geometry" />
        </mxCell>
        <mxCell id="KyxPLd9x04It-xJ5YwFT-19" value="" style="verticalLabelPosition=bottom;html=1;verticalAlign=top;align=center;shape=mxgraph.azure.user;fillColor=#d5e8d4;gradientColor=#97d077;strokeColor=#82b366;" parent="KyxPLd9x04It-xJ5YwFT-9" vertex="1">
          <mxGeometry x="250" y="9.430000000000064" width="30" height="30" as="geometry" />
        </mxCell>
        <mxCell id="KyxPLd9x04It-xJ5YwFT-20" value="" style="group;fontSize=11;" parent="KyxPLd9x04It-xJ5YwFT-1" vertex="1" connectable="0">
          <mxGeometry x="246.75" y="260" width="315.5" height="20" as="geometry" />
        </mxCell>
        <mxCell id="KyxPLd9x04It-xJ5YwFT-21" value="" style="rounded=1;whiteSpace=wrap;html=1;fillColor=#d5e8d4;strokeColor=#82b366;" parent="KyxPLd9x04It-xJ5YwFT-20" vertex="1">
          <mxGeometry x="153.25" width="162.25" height="20" as="geometry" />
        </mxCell>
        <mxCell id="KyxPLd9x04It-xJ5YwFT-22" value="" style="rounded=1;whiteSpace=wrap;html=1;fillColor=#d5e8d4;strokeColor=#82b366;" parent="KyxPLd9x04It-xJ5YwFT-20" vertex="1">
          <mxGeometry width="153.25" height="20" as="geometry" />
        </mxCell>
        <mxCell id="KyxPLd9x04It-xJ5YwFT-23" value="" style="html=1;dashed=0;aspect=fixed;verticalLabelPosition=bottom;verticalAlign=top;align=center;shape=mxgraph.gmdl.calendar;strokeColor=none;fillColor=#737373;shadow=0;sketch=0;" parent="KyxPLd9x04It-xJ5YwFT-20" vertex="1">
          <mxGeometry x="8.75" y="2.5" width="15" height="15" as="geometry" />
        </mxCell>
        <mxCell id="KyxPLd9x04It-xJ5YwFT-24" value="" style="html=1;dashed=0;aspect=fixed;verticalLabelPosition=bottom;verticalAlign=top;align=center;shape=mxgraph.gmdl.calendar;strokeColor=none;fillColor=#737373;shadow=0;sketch=0;" parent="KyxPLd9x04It-xJ5YwFT-20" vertex="1">
          <mxGeometry x="160.25" y="2.5" width="15" height="15" as="geometry" />
        </mxCell>
        <mxCell id="KyxPLd9x04It-xJ5YwFT-25" value="Heute" style="rounded=1;whiteSpace=wrap;html=1;fontStyle=1;" parent="KyxPLd9x04It-xJ5YwFT-20" vertex="1">
          <mxGeometry x="33.25" y="2.5" width="106.75" height="15" as="geometry" />
        </mxCell>
        <mxCell id="KyxPLd9x04It-xJ5YwFT-26" value="Woche" style="rounded=1;whiteSpace=wrap;html=1;fillColor=#f5f5f5;fontColor=#333333;strokeColor=#FFFFFF;fontStyle=1" parent="KyxPLd9x04It-xJ5YwFT-20" vertex="1">
          <mxGeometry x="195.75" y="5" width="102" height="10" as="geometry" />
        </mxCell>
        <mxCell id="KyxPLd9x04It-xJ5YwFT-27" value="&lt;font style=&quot;color: rgb(0, 0, 0);&quot;&gt;Produkt lÃ¤uft bald ab:&lt;/font&gt;" style="text;html=1;align=left;verticalAlign=middle;whiteSpace=wrap;rounded=0;fontSize=11;fontStyle=1" parent="KyxPLd9x04It-xJ5YwFT-1" vertex="1">
          <mxGeometry x="255.5" y="470" width="124.5" height="20" as="geometry" />
        </mxCell>
        <mxCell id="KyxPLd9x04It-xJ5YwFT-28" value="" style="group;fontSize=10;" parent="KyxPLd9x04It-xJ5YwFT-1" vertex="1" connectable="0">
          <mxGeometry x="260" y="490" width="290" height="120" as="geometry" />
        </mxCell>
        <mxCell id="KyxPLd9x04It-xJ5YwFT-29" value="&lt;font style=&quot;color: rgb(0, 0, 0);&quot;&gt;1. Joghurt in 8 Tagen&lt;/font&gt;" style="text;html=1;align=left;verticalAlign=middle;whiteSpace=wrap;rounded=0;fontSize=9;" parent="KyxPLd9x04It-xJ5YwFT-28" vertex="1">
          <mxGeometry width="290" height="13.333333333333332" as="geometry" />
        </mxCell>
        <mxCell id="KyxPLd9x04It-xJ5YwFT-30" value="&lt;font style=&quot;color: rgb(0, 0, 0);&quot;&gt;2. Schlagsahne in 9 Tagen&lt;/font&gt;" style="text;html=1;align=left;verticalAlign=middle;whiteSpace=wrap;rounded=0;fontSize=9;" parent="KyxPLd9x04It-xJ5YwFT-28" vertex="1">
          <mxGeometry y="13.333333333333332" width="290" height="13.333333333333332" as="geometry" />
        </mxCell>
        <mxCell id="KyxPLd9x04It-xJ5YwFT-31" value="&lt;font style=&quot;color: rgb(0, 0, 0);&quot;&gt;3. Pudding in 12 Tagen&lt;/font&gt;" style="text;html=1;align=left;verticalAlign=middle;whiteSpace=wrap;rounded=0;fontSize=9;" parent="KyxPLd9x04It-xJ5YwFT-28" vertex="1">
          <mxGeometry y="26.666666666666664" width="290" height="13.333333333333332" as="geometry" />
        </mxCell>
        <mxCell id="KyxPLd9x04It-xJ5YwFT-32" value="&lt;font&gt;&lt;font style=&quot;color: rgb(0, 0, 0);&quot;&gt;4. Milch 3,5% in 14&amp;nbsp;&lt;/font&gt;&lt;span style=&quot;color: rgb(0, 0, 0); background-color: transparent;&quot;&gt;Tagen&lt;/span&gt;&lt;/font&gt;" style="text;html=1;align=left;verticalAlign=middle;whiteSpace=wrap;rounded=0;fontSize=9;" parent="KyxPLd9x04It-xJ5YwFT-28" vertex="1">
          <mxGeometry y="39.99999999999999" width="290" height="13.333333333333332" as="geometry" />
        </mxCell>
        <mxCell id="KyxPLd9x04It-xJ5YwFT-33" value="&lt;font style=&quot;color: rgb(0, 0, 0);&quot;&gt;5. Milch 1,5% in 14 Tagen&lt;/font&gt;" style="text;html=1;align=left;verticalAlign=middle;whiteSpace=wrap;rounded=0;fontSize=9;" parent="KyxPLd9x04It-xJ5YwFT-28" vertex="1">
          <mxGeometry y="53.33333333333333" width="290" height="13.333333333333332" as="geometry" />
        </mxCell>
        <mxCell id="KyxPLd9x04It-xJ5YwFT-34" value="&lt;font style=&quot;color: rgb(0, 0, 0);&quot;&gt;6. GeflÃ¼gelwurst in 16 Tagen&lt;/font&gt;" style="text;html=1;align=left;verticalAlign=middle;whiteSpace=wrap;rounded=0;fontSize=9;" parent="KyxPLd9x04It-xJ5YwFT-28" vertex="1">
          <mxGeometry y="66.66666666666666" width="290" height="13.333333333333332" as="geometry" />
        </mxCell>
        <mxCell id="KyxPLd9x04It-xJ5YwFT-35" value="&lt;font style=&quot;color: rgb(0, 0, 0);&quot;&gt;7. Leberwurst in 17 Tagen&lt;/font&gt;" style="text;html=1;align=left;verticalAlign=middle;whiteSpace=wrap;rounded=0;fontSize=9;" parent="KyxPLd9x04It-xJ5YwFT-28" vertex="1">
          <mxGeometry y="79.99999999999999" width="290" height="13.333333333333332" as="geometry" />
        </mxCell>
        <mxCell id="KyxPLd9x04It-xJ5YwFT-36" value="&lt;font style=&quot;color: rgb(0, 0, 0);&quot;&gt;8. FrischkÃ¤se in 20 Tagen&lt;/font&gt;" style="text;html=1;align=left;verticalAlign=middle;whiteSpace=wrap;rounded=0;fontSize=9;" parent="KyxPLd9x04It-xJ5YwFT-28" vertex="1">
          <mxGeometry y="93.33333333333333" width="290" height="13.333333333333332" as="geometry" />
        </mxCell>
        <mxCell id="KyxPLd9x04It-xJ5YwFT-37" value="" style="group" parent="KyxPLd9x04It-xJ5YwFT-1" vertex="1" connectable="0">
          <mxGeometry x="250" y="440" width="310" height="30" as="geometry" />
        </mxCell>
        <mxCell id="KyxPLd9x04It-xJ5YwFT-38" value="&lt;b&gt;HinzufÃ¼gen&lt;/b&gt;" style="rounded=1;whiteSpace=wrap;html=1;align=right;fillColor=#d5e8d4;strokeColor=#82b366;" parent="KyxPLd9x04It-xJ5YwFT-37" vertex="1">
          <mxGeometry width="103.33333333333333" height="20" as="geometry" />
        </mxCell>
        <mxCell id="KyxPLd9x04It-xJ5YwFT-39" value="&lt;b&gt;Entfernen&lt;/b&gt;" style="rounded=1;whiteSpace=wrap;html=1;align=right;fillColor=#d5e8d4;strokeColor=#82b366;" parent="KyxPLd9x04It-xJ5YwFT-37" vertex="1">
          <mxGeometry x="103.33333333333333" width="103.33333333333333" height="20" as="geometry" />
        </mxCell>
        <mxCell id="KyxPLd9x04It-xJ5YwFT-40" value="&lt;b&gt;Bearbeiten&lt;/b&gt;" style="rounded=1;whiteSpace=wrap;html=1;align=right;fillColor=#d5e8d4;strokeColor=#82b366;" parent="KyxPLd9x04It-xJ5YwFT-37" vertex="1">
          <mxGeometry x="206.66666666666666" width="103.33333333333333" height="20" as="geometry" />
        </mxCell>
        <mxCell id="KyxPLd9x04It-xJ5YwFT-41" value="" style="html=1;verticalLabelPosition=bottom;align=center;labelBackgroundColor=#ffffff;verticalAlign=top;strokeWidth=2;shadow=0;dashed=0;shape=mxgraph.ios7.icons.add;fillColor=none;" parent="KyxPLd9x04It-xJ5YwFT-37" vertex="1">
          <mxGeometry x="6" y="2.5" width="17" height="15" as="geometry" />
        </mxCell>
        <mxCell id="KyxPLd9x04It-xJ5YwFT-42" value="&lt;span style=&quot;color: rgba(0, 0, 0, 0); font-family: monospace; font-size: 0px; text-align: start; background-color: rgb(236, 236, 236);&quot;&gt;%3CmxGraphModel%3E%3Croot%3E%3CmxCell%20id%3D%220%22%2F%3E%3CmxCell%20id%3D%221%22%20parent%3D%220%22%2F%3E%3CmxCell%20id%3D%222%22%20value%3D%22%22%20style%3D%22html%3D1%3BverticalLabelPosition%3Dbottom%3Balign%3Dcenter%3BlabelBackgroundColor%3D%23ffffff%3BverticalAlign%3Dtop%3BstrokeWidth%3D2%3Bshadow%3D0%3Bdashed%3D0%3Bshape%3Dmxgraph.ios7.icons.add%3BfillColor%3Dnone%3B%22%20vertex%3D%221%22%20parent%3D%221%22%3E%3CmxGeometry%20x%3D%22256%22%20y%3D%22442.5%22%20width%3D%2217%22%20height%3D%2215%22%20as%3D%22geometry%22%2F%3E%3C%2FmxCell%3E%3C%2Froot%3E%3C%2FmxGraphModel%3E&lt;/span&gt;" style="html=1;verticalLabelPosition=bottom;align=center;labelBackgroundColor=#ffffff;verticalAlign=top;strokeWidth=2;shadow=0;dashed=0;shape=mxgraph.ios7.icons.delete;fillColor=none;" parent="KyxPLd9x04It-xJ5YwFT-37" vertex="1">
          <mxGeometry x="110" y="2.5" width="17" height="15" as="geometry" />
        </mxCell>
        <mxCell id="KyxPLd9x04It-xJ5YwFT-43" value="&lt;span style=&quot;color: rgba(0, 0, 0, 0); font-family: monospace; font-size: 0px; text-align: start; background-color: rgb(236, 236, 236);&quot;&gt;%3CmxGraphModel%3E%3Croot%3E%3CmxCell%20id%3D%220%22%2F%3E%3CmxCell%20id%3D%221%22%20parent%3D%220%22%2F%3E%3CmxCell%20id%3D%222%22%20value%3D%22%22%20style%3D%22html%3D1%3BverticalLabelPosition%3Dbottom%3Balign%3Dcenter%3BlabelBackgroundColor%3D%23ffffff%3BverticalAlign%3Dtop%3BstrokeWidth%3D2%3Bshadow%3D0%3Bdashed%3D0%3Bshape%3Dmxgraph.ios7.icons.add%3BfillColor%3Dnone%3B%22%20vertex%3D%221%22%20parent%3D%221%22%3E%3CmxGeometry%20x%3D%22256%22%20y%3D%22442.5%22%20width%3D%2217%22%20height%3D%2215%22%20as%3D%22geometry%22%2F%3E%3C%2FmxCell%3E%3C%2Froot%3E%3C%2FmxGraphModel%3E&lt;/span&gt;" style="html=1;verticalLabelPosition=bottom;align=center;labelBackgroundColor=#ffffff;verticalAlign=top;strokeWidth=2;shadow=0;dashed=0;shape=mxgraph.ios7.icons.compose;fillColor=none;" parent="KyxPLd9x04It-xJ5YwFT-37" vertex="1">
          <mxGeometry x="210" y="2.5" width="17" height="15" as="geometry" />
        </mxCell>
        <mxCell id="KyxPLd9x04It-xJ5YwFT-44" value="" style="rounded=1;whiteSpace=wrap;html=1;" parent="KyxPLd9x04It-xJ5YwFT-1" vertex="1">
          <mxGeometry x="246.75" y="290" width="153.25" height="60" as="geometry" />
        </mxCell>
        <mxCell id="KyxPLd9x04It-xJ5YwFT-45" value="" style="rounded=1;whiteSpace=wrap;html=1;" parent="KyxPLd9x04It-xJ5YwFT-1" vertex="1">
          <mxGeometry x="400" y="290" width="160" height="60" as="geometry" />
        </mxCell>
        <mxCell id="KyxPLd9x04It-xJ5YwFT-46" value="" style="rounded=1;whiteSpace=wrap;html=1;" parent="KyxPLd9x04It-xJ5YwFT-1" vertex="1">
          <mxGeometry x="246.75" y="350" width="153.25" height="60" as="geometry" />
        </mxCell>
        <mxCell id="KyxPLd9x04It-xJ5YwFT-47" value="" style="rounded=1;whiteSpace=wrap;html=1;" parent="KyxPLd9x04It-xJ5YwFT-1" vertex="1">
          <mxGeometry x="400" y="350" width="160" height="60" as="geometry" />
        </mxCell>
        <mxCell id="KyxPLd9x04It-xJ5YwFT-48" value="Zum FrÃ¼hstÃ¼ck" style="text;html=1;align=center;verticalAlign=middle;whiteSpace=wrap;rounded=0;fontStyle=1" parent="KyxPLd9x04It-xJ5YwFT-1" vertex="1">
          <mxGeometry x="271.19" y="290" width="104.37" height="30" as="geometry" />
        </mxCell>
        <mxCell id="KyxPLd9x04It-xJ5YwFT-49" value="Zum Mittagessen" style="text;html=1;align=center;verticalAlign=middle;whiteSpace=wrap;rounded=0;fontStyle=1" parent="KyxPLd9x04It-xJ5YwFT-1" vertex="1">
          <mxGeometry x="427.82" y="290" width="104.37" height="30" as="geometry" />
        </mxCell>
        <mxCell id="KyxPLd9x04It-xJ5YwFT-50" value="Zum Abendessen" style="text;html=1;align=center;verticalAlign=middle;whiteSpace=wrap;rounded=0;fontStyle=1" parent="KyxPLd9x04It-xJ5YwFT-1" vertex="1">
          <mxGeometry x="271.19" y="350" width="104.37" height="30" as="geometry" />
        </mxCell>
        <mxCell id="KyxPLd9x04It-xJ5YwFT-51" value="Zu Snacks" style="text;html=1;align=center;verticalAlign=middle;whiteSpace=wrap;rounded=0;fontStyle=1" parent="KyxPLd9x04It-xJ5YwFT-1" vertex="1">
          <mxGeometry x="427.82" y="350" width="104.37" height="30" as="geometry" />
        </mxCell>
        <mxCell id="KyxPLd9x04It-xJ5YwFT-52" value="Spiegelei" style="text;html=1;align=center;verticalAlign=middle;whiteSpace=wrap;rounded=0;" parent="KyxPLd9x04It-xJ5YwFT-1" vertex="1">
          <mxGeometry x="277.25" y="310" width="92.25" height="30" as="geometry" />
        </mxCell>
        <mxCell id="KyxPLd9x04It-xJ5YwFT-53" value="HÃ¤hnchen mit Nudeln" style="text;html=1;align=center;verticalAlign=middle;whiteSpace=wrap;rounded=0;" parent="KyxPLd9x04It-xJ5YwFT-1" vertex="1">
          <mxGeometry x="277.25" y="370" width="92.25" height="30" as="geometry" />
        </mxCell>
        <mxCell id="KyxPLd9x04It-xJ5YwFT-54" value="Kartoffelsuppe" style="text;html=1;align=center;verticalAlign=middle;whiteSpace=wrap;rounded=0;" parent="KyxPLd9x04It-xJ5YwFT-1" vertex="1">
          <mxGeometry x="433.88" y="310" width="92.25" height="30" as="geometry" />
        </mxCell>
        <mxCell id="KyxPLd9x04It-xJ5YwFT-55" value="Apfeljoguhrt" style="text;html=1;align=center;verticalAlign=middle;whiteSpace=wrap;rounded=0;" parent="KyxPLd9x04It-xJ5YwFT-1" vertex="1">
          <mxGeometry x="433.88" y="370" width="92.25" height="30" as="geometry" />
        </mxCell>
        <mxCell id="eYhtNrljOyiyPVF8Jxz--0" value="" style="rounded=1;whiteSpace=wrap;html=1;strokeColor=#82b366;fillColor=#d5e8d4;gradientColor=#97d077;" parent="KyxPLd9x04It-xJ5YwFT-1" vertex="1">
          <mxGeometry x="246.75" y="260" width="313.25" height="419" as="geometry" />
        </mxCell>
        <mxCell id="eYhtNrljOyiyPVF8Jxz--2" value="&lt;font style=&quot;color: rgb(0, 0, 0);&quot;&gt;Welches Produkt mÃ¶chtest du hinzufÃ¼gen?&lt;/font&gt;" style="text;html=1;align=left;verticalAlign=middle;whiteSpace=wrap;rounded=0;fontSize=14;" parent="KyxPLd9x04It-xJ5YwFT-1" vertex="1">
          <mxGeometry x="268.38" y="280" width="270" height="30" as="geometry" />
        </mxCell>
        <mxCell id="eYhtNrljOyiyPVF8Jxz--7" value="" style="shape=rect;fillColor=#F6F6F6;strokeColor=none;" parent="KyxPLd9x04It-xJ5YwFT-1" vertex="1">
          <mxGeometry x="280" y="320" width="250" height="20" as="geometry" />
        </mxCell>
        <mxCell id="eYhtNrljOyiyPVF8Jxz--8" value="" style="html=1;strokeWidth=1;shadow=0;dashed=0;shape=mxgraph.ios7ui.marginRect;rx=3;ry=3;rectMargin=5;fillColor=#E4E4E4;strokeColor=none;" parent="eYhtNrljOyiyPVF8Jxz--7" vertex="1">
          <mxGeometry width="250" height="20" as="geometry" />
        </mxCell>
        <mxCell id="eYhtNrljOyiyPVF8Jxz--9" value="Search" style="shape=mxgraph.ios7.icons.looking_glass;strokeColor=#878789;fillColor=none;fontColor=#878789;labelPosition=right;verticalLabelPosition=middle;align=left;verticalAlign=middle;fontSize=6;fontStyle=0;spacingTop=2;sketch=0;html=1;" parent="eYhtNrljOyiyPVF8Jxz--7" vertex="1">
          <mxGeometry x="0.5" y="0.5" width="6" height="6" relative="1" as="geometry">
            <mxPoint x="-17" y="-3" as="offset" />
          </mxGeometry>
        </mxCell>
        <mxCell id="eYhtNrljOyiyPVF8Jxz--10" value="" style="shape=rect;fillColor=#e0e0e0;strokeColor=none;" parent="KyxPLd9x04It-xJ5YwFT-1" vertex="1">
          <mxGeometry x="280" y="344" width="250" height="126" as="geometry" />
        </mxCell>
        <mxCell id="eYhtNrljOyiyPVF8Jxz--11" value="&amp;nbsp;VorschlÃ¤ge:&lt;div&gt;&lt;font style=&quot;font-size: 7px;&quot;&gt;&amp;nbsp; Eis&lt;/font&gt;&lt;/div&gt;&lt;div&gt;&lt;span style=&quot;font-size: 7px;&quot;&gt;&amp;nbsp; Fisch&lt;/span&gt;&lt;/div&gt;&lt;div&gt;&lt;font style=&quot;font-size: 7px;&quot;&gt;&amp;nbsp; Apfel&lt;/font&gt;&lt;/div&gt;&lt;div&gt;&lt;span style=&quot;font-size: 7px;&quot;&gt;...&lt;/span&gt;&lt;/div&gt;&lt;div&gt;&lt;font style=&quot;font-size: 7px;&quot;&gt;...&lt;/font&gt;&lt;/div&gt;&lt;div&gt;&lt;font style=&quot;font-size: 7px;&quot;&gt;...&lt;/font&gt;&lt;/div&gt;&lt;div&gt;&lt;font style=&quot;font-size: 7px;&quot;&gt;...&lt;/font&gt;&lt;/div&gt;" style="html=1;strokeWidth=1;shadow=0;dashed=0;shape=mxgraph.ios7ui.marginRect;rx=3;ry=3;rectMargin=5;strokeColor=none;align=left;" parent="eYhtNrljOyiyPVF8Jxz--10" vertex="1">
          <mxGeometry width="240.3846153846154" height="125.99999999999999" as="geometry" />
        </mxCell>
        <mxCell id="eYhtNrljOyiyPVF8Jxz--12" value="Search" style="shape=mxgraph.ios7.icons.looking_glass;strokeColor=#e0e0e0;fillColor=none;fontColor=#e0e0e0;labelPosition=right;verticalLabelPosition=middle;align=left;verticalAlign=middle;fontSize=6;fontStyle=0;spacingTop=2;sketch=0;html=1;" parent="eYhtNrljOyiyPVF8Jxz--10" vertex="1">
          <mxGeometry x="0.5" y="0.5" width="6" height="6" relative="1" as="geometry">
            <mxPoint x="-17" y="-3" as="offset" />
          </mxGeometry>
        </mxCell>
        <mxCell id="eYhtNrljOyiyPVF8Jxz--13" value="" style="shape=rect;fillColor=#e0e0e0;strokeColor=none;" parent="KyxPLd9x04It-xJ5YwFT-1" vertex="1">
          <mxGeometry x="280" y="480" width="250" height="126" as="geometry" />
        </mxCell>
        <mxCell id="eYhtNrljOyiyPVF8Jxz--14" value="&amp;nbsp;Zuletzt hinzugefÃ¼gt:&lt;div&gt;&lt;font style=&quot;font-size: 7px;&quot;&gt;&amp;nbsp; Eis&lt;/font&gt;&lt;/div&gt;&lt;div&gt;&lt;span style=&quot;font-size: 7px;&quot;&gt;&amp;nbsp; Fisch&lt;/span&gt;&lt;/div&gt;&lt;div&gt;&lt;font style=&quot;font-size: 7px;&quot;&gt;&amp;nbsp; Apfel&lt;/font&gt;&lt;/div&gt;&lt;div&gt;&lt;span style=&quot;font-size: 7px;&quot;&gt;...&lt;/span&gt;&lt;/div&gt;&lt;div&gt;&lt;font style=&quot;font-size: 7px;&quot;&gt;...&lt;/font&gt;&lt;/div&gt;&lt;div&gt;&lt;font style=&quot;font-size: 7px;&quot;&gt;...&lt;/font&gt;&lt;/div&gt;&lt;div&gt;&lt;font style=&quot;font-size: 7px;&quot;&gt;...&lt;/font&gt;&lt;/div&gt;" style="html=1;strokeWidth=1;shadow=0;dashed=0;shape=mxgraph.ios7ui.marginRect;rx=3;ry=3;rectMargin=5;strokeColor=none;align=left;" parent="eYhtNrljOyiyPVF8Jxz--13" vertex="1">
          <mxGeometry width="240.3846153846154" height="125.99999999999999" as="geometry" />
        </mxCell>
        <mxCell id="eYhtNrljOyiyPVF8Jxz--15" value="Search" style="shape=mxgraph.ios7.icons.looking_glass;strokeColor=#e0e0e0;fillColor=none;fontColor=#e0e0e0;labelPosition=right;verticalLabelPosition=middle;align=left;verticalAlign=middle;fontSize=6;fontStyle=0;spacingTop=2;sketch=0;html=1;" parent="eYhtNrljOyiyPVF8Jxz--13" vertex="1">
          <mxGeometry x="0.5" y="0.5" width="6" height="6" relative="1" as="geometry">
            <mxPoint x="-17" y="-3" as="offset" />
          </mxGeometry>
        </mxCell>
        <mxCell id="4FPDA0ZGIMBVUJKEeIwS-0" value="" style="rounded=1;whiteSpace=wrap;html=1;fillColor=#f5f5f5;strokeColor=#666666;gradientColor=#b3b3b3;" parent="KyxPLd9x04It-xJ5YwFT-1" vertex="1">
          <mxGeometry x="303.38" y="610" width="200" height="60" as="geometry" />
        </mxCell>
        <mxCell id="4FPDA0ZGIMBVUJKEeIwS-1" value="&lt;font style=&quot;color: rgb(0, 0, 0); font-size: 26px;&quot;&gt;HinzufÃ¼gen&lt;/font&gt;" style="text;html=1;align=center;verticalAlign=middle;whiteSpace=wrap;rounded=0;" parent="KyxPLd9x04It-xJ5YwFT-1" vertex="1">
          <mxGeometry x="333.38" y="624.5" width="140" height="30" as="geometry" />
        </mxCell>
        <mxCell id="QnX_Q3ZkmIRo4MwzuCHN-0" value="" style="rounded=1;whiteSpace=wrap;html=1;fillColor=light-dark(#000000, #7f7f7f);" parent="KyxPLd9x04It-xJ5YwFT-1" vertex="1">
          <mxGeometry x="342.25" y="267.5" width="120" height="5" as="geometry" />
        </mxCell>
      </root>
    </mxGraphModel>
  </diagram>
  <diagram name="Entfernen" id="extDR77SloOajGnqfvYp">
    <mxGraphModel dx="946" dy="710" grid="1" gridSize="10" guides="1" tooltips="1" connect="1" arrows="1" fold="1" page="1" pageScale="1" pageWidth="827" pageHeight="1169" math="0" shadow="0">
      <root>
        <mxCell id="vJvFq_Vw4a-QntkjGkor-0" />
        <mxCell id="vJvFq_Vw4a-QntkjGkor-1" parent="vJvFq_Vw4a-QntkjGkor-0" />
        <mxCell id="vJvFq_Vw4a-QntkjGkor-2" value="" style="html=1;verticalLabelPosition=bottom;labelBackgroundColor=#ffffff;verticalAlign=top;shadow=0;dashed=0;strokeWidth=1;shape=mxgraph.ios7.misc.iphone;movable=0;resizable=0;rotatable=0;deletable=0;editable=0;locked=1;connectable=0;" parent="vJvFq_Vw4a-QntkjGkor-1" vertex="1">
          <mxGeometry x="219" y="60" width="371" height="740" as="geometry" />
        </mxCell>
        <mxCell id="vJvFq_Vw4a-QntkjGkor-3" value="&lt;font style=&quot;font-size: 16px; color: rgb(0, 0, 0);&quot;&gt;&lt;b&gt;Fridgy&lt;/b&gt;&lt;/font&gt;" style="rounded=1;whiteSpace=wrap;html=1;fillColor=#d5e8d4;strokeColor=#82b366;" parent="vJvFq_Vw4a-QntkjGkor-1" vertex="1">
          <mxGeometry x="260" y="220" width="110" height="30" as="geometry" />
        </mxCell>
        <mxCell id="vJvFq_Vw4a-QntkjGkor-4" value="" style="html=1;strokeWidth=1;shadow=0;dashed=0;shape=mxgraph.ios7ui.appBar;fillColor=#ffffff;gradientColor=none;sketch=0;hachureGap=4;pointerEvents=0;fontFamily=Architects Daughter;fontSource=https%3A%2F%2Ffonts.googleapis.com%2Fcss%3Ffamily%3DArchitects%2BDaughter;fontSize=20;" parent="vJvFq_Vw4a-QntkjGkor-1" vertex="1">
          <mxGeometry x="264.5" y="180" width="280" height="15" as="geometry" />
        </mxCell>
        <mxCell id="vJvFq_Vw4a-QntkjGkor-5" value="CARRIER" style="shape=rect;align=left;fontSize=8;spacingLeft=24;fontSize=4;fontColor=#aaaaaa;strokeColor=none;fillColor=none;spacingTop=0;sketch=0;hachureGap=4;pointerEvents=0;fontFamily=Helvetica;html=1;" parent="vJvFq_Vw4a-QntkjGkor-4" vertex="1">
          <mxGeometry y="0.5" width="50" height="13" relative="1" as="geometry">
            <mxPoint y="-6.5" as="offset" />
          </mxGeometry>
        </mxCell>
        <mxCell id="vJvFq_Vw4a-QntkjGkor-6" value="11:55PM" style="shape=rect;fontSize=8;fontColor=#aaaaaa;strokeColor=none;fillColor=none;spacingTop=0;sketch=0;hachureGap=4;pointerEvents=0;fontFamily=Helvetica;html=1;" parent="vJvFq_Vw4a-QntkjGkor-4" vertex="1">
          <mxGeometry x="0.5" y="0.5" width="50" height="13" relative="1" as="geometry">
            <mxPoint x="-25" y="-6.5" as="offset" />
          </mxGeometry>
        </mxCell>
        <mxCell id="vJvFq_Vw4a-QntkjGkor-7" value="98%" style="shape=rect;align=right;fontSize=8;spacingRight=19;fontSize=6;fontColor=#aaaaaa;strokeColor=none;fillColor=none;spacingTop=0;sketch=0;hachureGap=4;pointerEvents=0;fontFamily=Helvetica;html=1;" parent="vJvFq_Vw4a-QntkjGkor-4" vertex="1">
          <mxGeometry x="1" y="0.5" width="45" height="13" relative="1" as="geometry">
            <mxPoint x="-45" y="-6.5" as="offset" />
          </mxGeometry>
        </mxCell>
        <mxCell id="vJvFq_Vw4a-QntkjGkor-8" value="" style="sketch=0;outlineConnect=0;fontColor=#232F3E;gradientColor=none;fillColor=#7EA6E0;strokeColor=none;dashed=0;verticalLabelPosition=bottom;verticalAlign=top;align=center;html=1;fontSize=12;fontStyle=0;aspect=fixed;pointerEvents=1;shape=mxgraph.aws4.magnifying_glass_2;" parent="vJvFq_Vw4a-QntkjGkor-1" vertex="1">
          <mxGeometry x="520" y="218" width="30" height="30" as="geometry" />
        </mxCell>
        <mxCell id="vJvFq_Vw4a-QntkjGkor-9" value="" style="group" parent="vJvFq_Vw4a-QntkjGkor-1" vertex="1" connectable="0">
          <mxGeometry x="260" y="620" width="290" height="50" as="geometry" />
        </mxCell>
        <mxCell id="vJvFq_Vw4a-QntkjGkor-10" value="" style="rounded=1;whiteSpace=wrap;html=1;arcSize=20;fillColor=#d5e8d4;gradientColor=#97d077;strokeColor=#82b366;" parent="vJvFq_Vw4a-QntkjGkor-9" vertex="1">
          <mxGeometry width="50" height="50" as="geometry" />
        </mxCell>
        <mxCell id="vJvFq_Vw4a-QntkjGkor-11" value="" style="rounded=1;whiteSpace=wrap;html=1;arcSize=20;fillColor=none;" parent="vJvFq_Vw4a-QntkjGkor-9" vertex="1">
          <mxGeometry x="60" width="50" height="50" as="geometry" />
        </mxCell>
        <mxCell id="vJvFq_Vw4a-QntkjGkor-12" value="" style="rounded=1;whiteSpace=wrap;html=1;arcSize=20;" parent="vJvFq_Vw4a-QntkjGkor-9" vertex="1">
          <mxGeometry x="119.5" width="50" height="50" as="geometry" />
        </mxCell>
        <mxCell id="vJvFq_Vw4a-QntkjGkor-13" value="" style="rounded=1;whiteSpace=wrap;html=1;arcSize=20;" parent="vJvFq_Vw4a-QntkjGkor-9" vertex="1">
          <mxGeometry x="180" width="50" height="50" as="geometry" />
        </mxCell>
        <mxCell id="vJvFq_Vw4a-QntkjGkor-14" value="" style="rounded=1;whiteSpace=wrap;html=1;arcSize=20;" parent="vJvFq_Vw4a-QntkjGkor-9" vertex="1">
          <mxGeometry x="240" width="50" height="50" as="geometry" />
        </mxCell>
        <mxCell id="vJvFq_Vw4a-QntkjGkor-15" value="" style="html=1;verticalLabelPosition=bottom;align=center;labelBackgroundColor=#ffffff;verticalAlign=top;strokeWidth=2;shadow=0;dashed=0;shape=mxgraph.ios7.icons.home;" parent="vJvFq_Vw4a-QntkjGkor-9" vertex="1">
          <mxGeometry x="10" y="11.120000000000005" width="30" height="27.750000000000004" as="geometry" />
        </mxCell>
        <mxCell id="vJvFq_Vw4a-QntkjGkor-16" value="" style="sketch=0;html=1;aspect=fixed;shadow=0;verticalAlign=top;labelPosition=center;verticalLabelPosition=bottom;shape=mxgraph.gcp2.view_list;fillColor=#d5e8d4;gradientColor=#97d077;strokeColor=#82b366;" parent="vJvFq_Vw4a-QntkjGkor-9" vertex="1">
          <mxGeometry x="132.81" y="10" width="23.39" height="28.88" as="geometry" />
        </mxCell>
        <mxCell id="vJvFq_Vw4a-QntkjGkor-17" value="" style="verticalLabelPosition=bottom;html=1;verticalAlign=top;align=center;shape=mxgraph.azure.azure_marketplace;fillColor=#d5e8d4;strokeColor=#82b366;gradientColor=#97d077;" parent="vJvFq_Vw4a-QntkjGkor-9" vertex="1">
          <mxGeometry x="71.25" y="10" width="27.5" height="28.870000000000005" as="geometry" />
        </mxCell>
        <mxCell id="vJvFq_Vw4a-QntkjGkor-18" value="" style="sketch=0;pointerEvents=1;shadow=0;dashed=0;html=1;labelPosition=center;verticalLabelPosition=bottom;verticalAlign=top;outlineConnect=0;align=center;shape=mxgraph.office.concepts.book_journal;fillColor=#d5e8d4;gradientColor=#97d077;strokeColor=#82b366;" parent="vJvFq_Vw4a-QntkjGkor-9" vertex="1">
          <mxGeometry x="195" y="11.120000000000005" width="20" height="30" as="geometry" />
        </mxCell>
        <mxCell id="vJvFq_Vw4a-QntkjGkor-19" value="" style="verticalLabelPosition=bottom;html=1;verticalAlign=top;align=center;shape=mxgraph.azure.user;fillColor=#d5e8d4;gradientColor=#97d077;strokeColor=#82b366;" parent="vJvFq_Vw4a-QntkjGkor-9" vertex="1">
          <mxGeometry x="250" y="9.430000000000064" width="30" height="30" as="geometry" />
        </mxCell>
        <mxCell id="vJvFq_Vw4a-QntkjGkor-20" value="" style="group;fontSize=11;" parent="vJvFq_Vw4a-QntkjGkor-1" vertex="1" connectable="0">
          <mxGeometry x="246.75" y="260" width="315.5" height="20" as="geometry" />
        </mxCell>
        <mxCell id="vJvFq_Vw4a-QntkjGkor-21" value="" style="rounded=1;whiteSpace=wrap;html=1;fillColor=#d5e8d4;strokeColor=#82b366;" parent="vJvFq_Vw4a-QntkjGkor-20" vertex="1">
          <mxGeometry x="153.25" width="162.25" height="20" as="geometry" />
        </mxCell>
        <mxCell id="vJvFq_Vw4a-QntkjGkor-22" value="" style="rounded=1;whiteSpace=wrap;html=1;fillColor=#d5e8d4;strokeColor=#82b366;" parent="vJvFq_Vw4a-QntkjGkor-20" vertex="1">
          <mxGeometry width="153.25" height="20" as="geometry" />
        </mxCell>
        <mxCell id="vJvFq_Vw4a-QntkjGkor-23" value="" style="html=1;dashed=0;aspect=fixed;verticalLabelPosition=bottom;verticalAlign=top;align=center;shape=mxgraph.gmdl.calendar;strokeColor=none;fillColor=#737373;shadow=0;sketch=0;" parent="vJvFq_Vw4a-QntkjGkor-20" vertex="1">
          <mxGeometry x="8.75" y="2.5" width="15" height="15" as="geometry" />
        </mxCell>
        <mxCell id="vJvFq_Vw4a-QntkjGkor-24" value="" style="html=1;dashed=0;aspect=fixed;verticalLabelPosition=bottom;verticalAlign=top;align=center;shape=mxgraph.gmdl.calendar;strokeColor=none;fillColor=#737373;shadow=0;sketch=0;" parent="vJvFq_Vw4a-QntkjGkor-20" vertex="1">
          <mxGeometry x="160.25" y="2.5" width="15" height="15" as="geometry" />
        </mxCell>
        <mxCell id="vJvFq_Vw4a-QntkjGkor-25" value="Heute" style="rounded=1;whiteSpace=wrap;html=1;fontStyle=1;" parent="vJvFq_Vw4a-QntkjGkor-20" vertex="1">
          <mxGeometry x="33.25" y="2.5" width="106.75" height="15" as="geometry" />
        </mxCell>
        <mxCell id="vJvFq_Vw4a-QntkjGkor-26" value="Woche" style="rounded=1;whiteSpace=wrap;html=1;fillColor=#f5f5f5;fontColor=#333333;strokeColor=#FFFFFF;fontStyle=1" parent="vJvFq_Vw4a-QntkjGkor-20" vertex="1">
          <mxGeometry x="195.75" y="5" width="102" height="10" as="geometry" />
        </mxCell>
        <mxCell id="vJvFq_Vw4a-QntkjGkor-27" value="&lt;font style=&quot;color: rgb(0, 0, 0);&quot;&gt;Produkt lÃ¤uft bald ab:&lt;/font&gt;" style="text;html=1;align=left;verticalAlign=middle;whiteSpace=wrap;rounded=0;fontSize=11;fontStyle=1" parent="vJvFq_Vw4a-QntkjGkor-1" vertex="1">
          <mxGeometry x="255.5" y="470" width="124.5" height="20" as="geometry" />
        </mxCell>
        <mxCell id="vJvFq_Vw4a-QntkjGkor-28" value="" style="group;fontSize=10;" parent="vJvFq_Vw4a-QntkjGkor-1" vertex="1" connectable="0">
          <mxGeometry x="260" y="490" width="290" height="120" as="geometry" />
        </mxCell>
        <mxCell id="vJvFq_Vw4a-QntkjGkor-29" value="&lt;font style=&quot;color: rgb(0, 0, 0);&quot;&gt;1. Joghurt in 8 Tagen&lt;/font&gt;" style="text;html=1;align=left;verticalAlign=middle;whiteSpace=wrap;rounded=0;fontSize=9;" parent="vJvFq_Vw4a-QntkjGkor-28" vertex="1">
          <mxGeometry width="290" height="13.333333333333332" as="geometry" />
        </mxCell>
        <mxCell id="vJvFq_Vw4a-QntkjGkor-30" value="&lt;font style=&quot;color: rgb(0, 0, 0);&quot;&gt;2. Schlagsahne in 9 Tagen&lt;/font&gt;" style="text;html=1;align=left;verticalAlign=middle;whiteSpace=wrap;rounded=0;fontSize=9;" parent="vJvFq_Vw4a-QntkjGkor-28" vertex="1">
          <mxGeometry y="13.333333333333332" width="290" height="13.333333333333332" as="geometry" />
        </mxCell>
        <mxCell id="vJvFq_Vw4a-QntkjGkor-31" value="&lt;font style=&quot;color: rgb(0, 0, 0);&quot;&gt;3. Pudding in 12 Tagen&lt;/font&gt;" style="text;html=1;align=left;verticalAlign=middle;whiteSpace=wrap;rounded=0;fontSize=9;" parent="vJvFq_Vw4a-QntkjGkor-28" vertex="1">
          <mxGeometry y="26.666666666666664" width="290" height="13.333333333333332" as="geometry" />
        </mxCell>
        <mxCell id="vJvFq_Vw4a-QntkjGkor-32" value="&lt;font&gt;&lt;font style=&quot;color: rgb(0, 0, 0);&quot;&gt;4. Milch 3,5% in 14&amp;nbsp;&lt;/font&gt;&lt;span style=&quot;color: rgb(0, 0, 0); background-color: transparent;&quot;&gt;Tagen&lt;/span&gt;&lt;/font&gt;" style="text;html=1;align=left;verticalAlign=middle;whiteSpace=wrap;rounded=0;fontSize=9;" parent="vJvFq_Vw4a-QntkjGkor-28" vertex="1">
          <mxGeometry y="39.99999999999999" width="290" height="13.333333333333332" as="geometry" />
        </mxCell>
        <mxCell id="vJvFq_Vw4a-QntkjGkor-33" value="&lt;font style=&quot;color: rgb(0, 0, 0);&quot;&gt;5. Milch 1,5% in 14 Tagen&lt;/font&gt;" style="text;html=1;align=left;verticalAlign=middle;whiteSpace=wrap;rounded=0;fontSize=9;" parent="vJvFq_Vw4a-QntkjGkor-28" vertex="1">
          <mxGeometry y="53.33333333333333" width="290" height="13.333333333333332" as="geometry" />
        </mxCell>
        <mxCell id="vJvFq_Vw4a-QntkjGkor-34" value="&lt;font style=&quot;color: rgb(0, 0, 0);&quot;&gt;6. GeflÃ¼gelwurst in 16 Tagen&lt;/font&gt;" style="text;html=1;align=left;verticalAlign=middle;whiteSpace=wrap;rounded=0;fontSize=9;" parent="vJvFq_Vw4a-QntkjGkor-28" vertex="1">
          <mxGeometry y="66.66666666666666" width="290" height="13.333333333333332" as="geometry" />
        </mxCell>
        <mxCell id="vJvFq_Vw4a-QntkjGkor-35" value="&lt;font style=&quot;color: rgb(0, 0, 0);&quot;&gt;7. Leberwurst in 17 Tagen&lt;/font&gt;" style="text;html=1;align=left;verticalAlign=middle;whiteSpace=wrap;rounded=0;fontSize=9;" parent="vJvFq_Vw4a-QntkjGkor-28" vertex="1">
          <mxGeometry y="79.99999999999999" width="290" height="13.333333333333332" as="geometry" />
        </mxCell>
        <mxCell id="vJvFq_Vw4a-QntkjGkor-36" value="&lt;font style=&quot;color: rgb(0, 0, 0);&quot;&gt;8. FrischkÃ¤se in 20 Tagen&lt;/font&gt;" style="text;html=1;align=left;verticalAlign=middle;whiteSpace=wrap;rounded=0;fontSize=9;" parent="vJvFq_Vw4a-QntkjGkor-28" vertex="1">
          <mxGeometry y="93.33333333333333" width="290" height="13.333333333333332" as="geometry" />
        </mxCell>
        <mxCell id="vJvFq_Vw4a-QntkjGkor-37" value="" style="group" parent="vJvFq_Vw4a-QntkjGkor-1" vertex="1" connectable="0">
          <mxGeometry x="250" y="440" width="310" height="30" as="geometry" />
        </mxCell>
        <mxCell id="vJvFq_Vw4a-QntkjGkor-38" value="&lt;b&gt;HinzufÃ¼gen&lt;/b&gt;" style="rounded=1;whiteSpace=wrap;html=1;align=right;fillColor=#d5e8d4;strokeColor=#82b366;" parent="vJvFq_Vw4a-QntkjGkor-37" vertex="1">
          <mxGeometry width="103.33333333333333" height="20" as="geometry" />
        </mxCell>
        <mxCell id="vJvFq_Vw4a-QntkjGkor-39" value="&lt;b&gt;Entfernen&lt;/b&gt;" style="rounded=1;whiteSpace=wrap;html=1;align=right;fillColor=#d5e8d4;strokeColor=#82b366;" parent="vJvFq_Vw4a-QntkjGkor-37" vertex="1">
          <mxGeometry x="103.33333333333333" width="103.33333333333333" height="20" as="geometry" />
        </mxCell>
        <mxCell id="vJvFq_Vw4a-QntkjGkor-40" value="&lt;b&gt;Bearbeiten&lt;/b&gt;" style="rounded=1;whiteSpace=wrap;html=1;align=right;fillColor=#d5e8d4;strokeColor=#82b366;" parent="vJvFq_Vw4a-QntkjGkor-37" vertex="1">
          <mxGeometry x="206.66666666666666" width="103.33333333333333" height="20" as="geometry" />
        </mxCell>
        <mxCell id="vJvFq_Vw4a-QntkjGkor-41" value="" style="html=1;verticalLabelPosition=bottom;align=center;labelBackgroundColor=#ffffff;verticalAlign=top;strokeWidth=2;shadow=0;dashed=0;shape=mxgraph.ios7.icons.add;fillColor=none;" parent="vJvFq_Vw4a-QntkjGkor-37" vertex="1">
          <mxGeometry x="6" y="2.5" width="17" height="15" as="geometry" />
        </mxCell>
        <mxCell id="vJvFq_Vw4a-QntkjGkor-42" value="&lt;span style=&quot;color: rgba(0, 0, 0, 0); font-family: monospace; font-size: 0px; text-align: start; background-color: rgb(236, 236, 236);&quot;&gt;%3CmxGraphModel%3E%3Croot%3E%3CmxCell%20id%3D%220%22%2F%3E%3CmxCell%20id%3D%221%22%20parent%3D%220%22%2F%3E%3CmxCell%20id%3D%222%22%20value%3D%22%22%20style%3D%22html%3D1%3BverticalLabelPosition%3Dbottom%3Balign%3Dcenter%3BlabelBackgroundColor%3D%23ffffff%3BverticalAlign%3Dtop%3BstrokeWidth%3D2%3Bshadow%3D0%3Bdashed%3D0%3Bshape%3Dmxgraph.ios7.icons.add%3BfillColor%3Dnone%3B%22%20vertex%3D%221%22%20parent%3D%221%22%3E%3CmxGeometry%20x%3D%22256%22%20y%3D%22442.5%22%20width%3D%2217%22%20height%3D%2215%22%20as%3D%22geometry%22%2F%3E%3C%2FmxCell%3E%3C%2Froot%3E%3C%2FmxGraphModel%3E&lt;/span&gt;" style="html=1;verticalLabelPosition=bottom;align=center;labelBackgroundColor=#ffffff;verticalAlign=top;strokeWidth=2;shadow=0;dashed=0;shape=mxgraph.ios7.icons.delete;fillColor=none;" parent="vJvFq_Vw4a-QntkjGkor-37" vertex="1">
          <mxGeometry x="110" y="2.5" width="17" height="15" as="geometry" />
        </mxCell>
        <mxCell id="vJvFq_Vw4a-QntkjGkor-43" value="&lt;span style=&quot;color: rgba(0, 0, 0, 0); font-family: monospace; font-size: 0px; text-align: start; background-color: rgb(236, 236, 236);&quot;&gt;%3CmxGraphModel%3E%3Croot%3E%3CmxCell%20id%3D%220%22%2F%3E%3CmxCell%20id%3D%221%22%20parent%3D%220%22%2F%3E%3CmxCell%20id%3D%222%22%20value%3D%22%22%20style%3D%22html%3D1%3BverticalLabelPosition%3Dbottom%3Balign%3Dcenter%3BlabelBackgroundColor%3D%23ffffff%3BverticalAlign%3Dtop%3BstrokeWidth%3D2%3Bshadow%3D0%3Bdashed%3D0%3Bshape%3Dmxgraph.ios7.icons.add%3BfillColor%3Dnone%3B%22%20vertex%3D%221%22%20parent%3D%221%22%3E%3CmxGeometry%20x%3D%22256%22%20y%3D%22442.5%22%20width%3D%2217%22%20height%3D%2215%22%20as%3D%22geometry%22%2F%3E%3C%2FmxCell%3E%3C%2Froot%3E%3C%2FmxGraphModel%3E&lt;/span&gt;" style="html=1;verticalLabelPosition=bottom;align=center;labelBackgroundColor=#ffffff;verticalAlign=top;strokeWidth=2;shadow=0;dashed=0;shape=mxgraph.ios7.icons.compose;fillColor=none;" parent="vJvFq_Vw4a-QntkjGkor-37" vertex="1">
          <mxGeometry x="210" y="2.5" width="17" height="15" as="geometry" />
        </mxCell>
        <mxCell id="vJvFq_Vw4a-QntkjGkor-44" value="" style="rounded=1;whiteSpace=wrap;html=1;" parent="vJvFq_Vw4a-QntkjGkor-1" vertex="1">
          <mxGeometry x="246.75" y="290" width="153.25" height="60" as="geometry" />
        </mxCell>
        <mxCell id="vJvFq_Vw4a-QntkjGkor-45" value="" style="rounded=1;whiteSpace=wrap;html=1;" parent="vJvFq_Vw4a-QntkjGkor-1" vertex="1">
          <mxGeometry x="400" y="290" width="160" height="60" as="geometry" />
        </mxCell>
        <mxCell id="vJvFq_Vw4a-QntkjGkor-46" value="" style="rounded=1;whiteSpace=wrap;html=1;" parent="vJvFq_Vw4a-QntkjGkor-1" vertex="1">
          <mxGeometry x="246.75" y="350" width="153.25" height="60" as="geometry" />
        </mxCell>
        <mxCell id="vJvFq_Vw4a-QntkjGkor-47" value="" style="rounded=1;whiteSpace=wrap;html=1;" parent="vJvFq_Vw4a-QntkjGkor-1" vertex="1">
          <mxGeometry x="400" y="350" width="160" height="60" as="geometry" />
        </mxCell>
        <mxCell id="vJvFq_Vw4a-QntkjGkor-48" value="Zum FrÃ¼hstÃ¼ck" style="text;html=1;align=center;verticalAlign=middle;whiteSpace=wrap;rounded=0;fontStyle=1" parent="vJvFq_Vw4a-QntkjGkor-1" vertex="1">
          <mxGeometry x="271.19" y="290" width="104.37" height="30" as="geometry" />
        </mxCell>
        <mxCell id="vJvFq_Vw4a-QntkjGkor-49" value="Zum Mittagessen" style="text;html=1;align=center;verticalAlign=middle;whiteSpace=wrap;rounded=0;fontStyle=1" parent="vJvFq_Vw4a-QntkjGkor-1" vertex="1">
          <mxGeometry x="427.82" y="290" width="104.37" height="30" as="geometry" />
        </mxCell>
        <mxCell id="vJvFq_Vw4a-QntkjGkor-50" value="Zum Abendessen" style="text;html=1;align=center;verticalAlign=middle;whiteSpace=wrap;rounded=0;fontStyle=1" parent="vJvFq_Vw4a-QntkjGkor-1" vertex="1">
          <mxGeometry x="271.19" y="350" width="104.37" height="30" as="geometry" />
        </mxCell>
        <mxCell id="vJvFq_Vw4a-QntkjGkor-51" value="Zu Snacks" style="text;html=1;align=center;verticalAlign=middle;whiteSpace=wrap;rounded=0;fontStyle=1" parent="vJvFq_Vw4a-QntkjGkor-1" vertex="1">
          <mxGeometry x="427.82" y="350" width="104.37" height="30" as="geometry" />
        </mxCell>
        <mxCell id="vJvFq_Vw4a-QntkjGkor-52" value="Spiegelei" style="text;html=1;align=center;verticalAlign=middle;whiteSpace=wrap;rounded=0;" parent="vJvFq_Vw4a-QntkjGkor-1" vertex="1">
          <mxGeometry x="277.25" y="310" width="92.25" height="30" as="geometry" />
        </mxCell>
        <mxCell id="vJvFq_Vw4a-QntkjGkor-53" value="HÃ¤hnchen mit Nudeln" style="text;html=1;align=center;verticalAlign=middle;whiteSpace=wrap;rounded=0;" parent="vJvFq_Vw4a-QntkjGkor-1" vertex="1">
          <mxGeometry x="277.25" y="370" width="92.25" height="30" as="geometry" />
        </mxCell>
        <mxCell id="vJvFq_Vw4a-QntkjGkor-54" value="Kartoffelsuppe" style="text;html=1;align=center;verticalAlign=middle;whiteSpace=wrap;rounded=0;" parent="vJvFq_Vw4a-QntkjGkor-1" vertex="1">
          <mxGeometry x="433.88" y="310" width="92.25" height="30" as="geometry" />
        </mxCell>
        <mxCell id="vJvFq_Vw4a-QntkjGkor-55" value="Apfeljoguhrt" style="text;html=1;align=center;verticalAlign=middle;whiteSpace=wrap;rounded=0;" parent="vJvFq_Vw4a-QntkjGkor-1" vertex="1">
          <mxGeometry x="433.88" y="370" width="92.25" height="30" as="geometry" />
        </mxCell>
        <mxCell id="vJvFq_Vw4a-QntkjGkor-56" value="&lt;div&gt;&lt;br&gt;&lt;/div&gt;&lt;div&gt;&lt;br&gt;&lt;/div&gt;&lt;div&gt;&lt;br&gt;&lt;/div&gt;&lt;div&gt;&lt;br&gt;&lt;/div&gt;" style="rounded=1;whiteSpace=wrap;html=1;strokeColor=#82b366;fillColor=#d5e8d4;gradientColor=#97d077;" parent="vJvFq_Vw4a-QntkjGkor-1" vertex="1">
          <mxGeometry x="246.75" y="260" width="313.25" height="419" as="geometry" />
        </mxCell>
        <mxCell id="vJvFq_Vw4a-QntkjGkor-57" value="&lt;font style=&quot;color: rgb(0, 0, 0);&quot;&gt;Welches Produkt mÃ¶chtest du entfernen?&lt;/font&gt;" style="text;html=1;align=left;verticalAlign=middle;whiteSpace=wrap;rounded=0;fontSize=14;" parent="vJvFq_Vw4a-QntkjGkor-1" vertex="1">
          <mxGeometry x="268.38" y="280" width="270" height="30" as="geometry" />
        </mxCell>
        <mxCell id="vJvFq_Vw4a-QntkjGkor-58" value="" style="shape=rect;fillColor=#F6F6F6;strokeColor=none;" parent="vJvFq_Vw4a-QntkjGkor-1" vertex="1">
          <mxGeometry x="280" y="320" width="250" height="20" as="geometry" />
        </mxCell>
        <mxCell id="vJvFq_Vw4a-QntkjGkor-59" value="" style="html=1;strokeWidth=1;shadow=0;dashed=0;shape=mxgraph.ios7ui.marginRect;rx=3;ry=3;rectMargin=5;fillColor=#E4E4E4;strokeColor=none;" parent="vJvFq_Vw4a-QntkjGkor-58" vertex="1">
          <mxGeometry width="250" height="20" as="geometry" />
        </mxCell>
        <mxCell id="vJvFq_Vw4a-QntkjGkor-60" value="Search" style="shape=mxgraph.ios7.icons.looking_glass;strokeColor=#878789;fillColor=none;fontColor=#878789;labelPosition=right;verticalLabelPosition=middle;align=left;verticalAlign=middle;fontSize=6;fontStyle=0;spacingTop=2;sketch=0;html=1;" parent="vJvFq_Vw4a-QntkjGkor-58" vertex="1">
          <mxGeometry x="0.5" y="0.5" width="6" height="6" relative="1" as="geometry">
            <mxPoint x="-17" y="-3" as="offset" />
          </mxGeometry>
        </mxCell>
        <mxCell id="vJvFq_Vw4a-QntkjGkor-61" value="" style="shape=rect;fillColor=#e0e0e0;strokeColor=none;" parent="vJvFq_Vw4a-QntkjGkor-1" vertex="1">
          <mxGeometry x="280" y="344" width="250" height="240" as="geometry" />
        </mxCell>
        <mxCell id="vJvFq_Vw4a-QntkjGkor-62" value="" style="html=1;strokeWidth=1;shadow=0;dashed=0;shape=mxgraph.ios7ui.marginRect;rx=3;ry=3;rectMargin=5;strokeColor=none;align=left;" parent="vJvFq_Vw4a-QntkjGkor-61" vertex="1">
          <mxGeometry width="240.38" height="240" as="geometry" />
        </mxCell>
        <mxCell id="vJvFq_Vw4a-QntkjGkor-63" value="Search" style="shape=mxgraph.ios7.icons.looking_glass;strokeColor=#e0e0e0;fillColor=none;fontColor=#e0e0e0;labelPosition=right;verticalLabelPosition=middle;align=left;verticalAlign=middle;fontSize=6;fontStyle=0;spacingTop=2;sketch=0;html=1;" parent="vJvFq_Vw4a-QntkjGkor-61" vertex="1">
          <mxGeometry x="0.5" y="0.5" width="6" height="6" relative="1" as="geometry">
            <mxPoint x="-17" y="-3" as="offset" />
          </mxGeometry>
        </mxCell>
        <mxCell id="cuwpB6Wg4Sakjpk2FCMN-0" value="&lt;ol&gt;&lt;li&gt;Joghurt&lt;/li&gt;&lt;li&gt;Schlagsahne&lt;/li&gt;&lt;li&gt;Pudding&lt;/li&gt;&lt;li&gt;.&lt;/li&gt;&lt;li&gt;.&lt;/li&gt;&lt;li&gt;.&lt;/li&gt;&lt;li&gt;.&lt;/li&gt;&lt;li&gt;.&lt;/li&gt;&lt;li&gt;.&lt;/li&gt;&lt;li&gt;.&lt;/li&gt;&lt;li&gt;.&lt;/li&gt;&lt;li&gt;.&lt;/li&gt;&lt;li&gt;.&lt;/li&gt;&lt;li&gt;.&lt;/li&gt;&lt;li&gt;.&lt;/li&gt;&lt;/ol&gt;" style="text;html=1;align=left;verticalAlign=middle;whiteSpace=wrap;rounded=0;" parent="vJvFq_Vw4a-QntkjGkor-61" vertex="1">
          <mxGeometry y="-4" width="250" height="240" as="geometry" />
        </mxCell>
        <mxCell id="cuwpB6Wg4Sakjpk2FCMN-1" value="" style="dashed=0;labelPosition=right;align=left;shape=mxgraph.gmdl.checkbox;strokeColor=#666666;fillColor=none;strokeWidth=2;aspect=fixed;sketch=0;html=1;" parent="vJvFq_Vw4a-QntkjGkor-61" vertex="1">
          <mxGeometry x="127" y="6" width="11" height="11" as="geometry" />
        </mxCell>
        <mxCell id="cuwpB6Wg4Sakjpk2FCMN-2" value="" style="dashed=0;labelPosition=right;align=left;shape=mxgraph.gmdl.checkbox;strokeColor=#666666;fillColor=none;strokeWidth=2;aspect=fixed;sketch=0;html=1;" parent="vJvFq_Vw4a-QntkjGkor-61" vertex="1">
          <mxGeometry x="127" y="21" width="11" height="11" as="geometry" />
        </mxCell>
        <mxCell id="cuwpB6Wg4Sakjpk2FCMN-4" value="" style="dashed=0;labelPosition=right;align=left;shape=mxgraph.gmdl.checkbox;strokeColor=#666666;fillColor=none;strokeWidth=2;aspect=fixed;sketch=0;html=1;" parent="vJvFq_Vw4a-QntkjGkor-61" vertex="1">
          <mxGeometry x="127" y="51" width="11" height="11" as="geometry" />
        </mxCell>
        <mxCell id="cuwpB6Wg4Sakjpk2FCMN-5" value="" style="dashed=0;labelPosition=right;align=left;shape=mxgraph.gmdl.checkbox;strokeColor=#666666;fillColor=none;strokeWidth=2;aspect=fixed;sketch=0;html=1;" parent="vJvFq_Vw4a-QntkjGkor-61" vertex="1">
          <mxGeometry x="127" y="66" width="11" height="11" as="geometry" />
        </mxCell>
        <mxCell id="cuwpB6Wg4Sakjpk2FCMN-6" value="" style="dashed=0;labelPosition=right;align=left;shape=mxgraph.gmdl.checkbox;strokeColor=#666666;fillColor=none;strokeWidth=2;aspect=fixed;sketch=0;html=1;" parent="vJvFq_Vw4a-QntkjGkor-61" vertex="1">
          <mxGeometry x="127" y="81" width="11" height="11" as="geometry" />
        </mxCell>
        <mxCell id="cuwpB6Wg4Sakjpk2FCMN-7" value="" style="dashed=0;labelPosition=right;align=left;shape=mxgraph.gmdl.checkbox;strokeColor=#666666;fillColor=none;strokeWidth=2;aspect=fixed;sketch=0;html=1;" parent="vJvFq_Vw4a-QntkjGkor-61" vertex="1">
          <mxGeometry x="127" y="95.5" width="11" height="11" as="geometry" />
        </mxCell>
        <mxCell id="cuwpB6Wg4Sakjpk2FCMN-8" value="" style="dashed=0;labelPosition=right;align=left;shape=mxgraph.gmdl.checkbox;strokeColor=#666666;fillColor=none;strokeWidth=2;aspect=fixed;sketch=0;html=1;" parent="vJvFq_Vw4a-QntkjGkor-61" vertex="1">
          <mxGeometry x="127" y="110.5" width="11" height="11" as="geometry" />
        </mxCell>
        <mxCell id="cuwpB6Wg4Sakjpk2FCMN-10" value="" style="dashed=0;labelPosition=right;align=left;shape=mxgraph.gmdl.checkbox;strokeColor=#666666;fillColor=none;strokeWidth=2;aspect=fixed;sketch=0;html=1;" parent="vJvFq_Vw4a-QntkjGkor-61" vertex="1">
          <mxGeometry x="127" y="125" width="11" height="11" as="geometry" />
        </mxCell>
        <mxCell id="cuwpB6Wg4Sakjpk2FCMN-11" value="" style="dashed=0;labelPosition=right;align=left;shape=mxgraph.gmdl.checkbox;strokeColor=#666666;fillColor=none;strokeWidth=2;aspect=fixed;sketch=0;html=1;" parent="vJvFq_Vw4a-QntkjGkor-61" vertex="1">
          <mxGeometry x="127" y="140" width="11" height="11" as="geometry" />
        </mxCell>
        <mxCell id="cuwpB6Wg4Sakjpk2FCMN-12" value="" style="dashed=0;labelPosition=right;align=left;shape=mxgraph.gmdl.checkbox;strokeColor=#666666;fillColor=none;strokeWidth=2;aspect=fixed;sketch=0;html=1;" parent="vJvFq_Vw4a-QntkjGkor-61" vertex="1">
          <mxGeometry x="127" y="170" width="11" height="11" as="geometry" />
        </mxCell>
        <mxCell id="cuwpB6Wg4Sakjpk2FCMN-13" value="" style="dashed=0;labelPosition=right;align=left;shape=mxgraph.gmdl.checkbox;strokeColor=#666666;fillColor=none;strokeWidth=2;aspect=fixed;sketch=0;html=1;" parent="vJvFq_Vw4a-QntkjGkor-61" vertex="1">
          <mxGeometry x="127" y="185" width="11" height="11" as="geometry" />
        </mxCell>
        <mxCell id="cuwpB6Wg4Sakjpk2FCMN-14" value="" style="dashed=0;labelPosition=right;align=left;shape=mxgraph.gmdl.checkbox;strokeColor=#666666;fillColor=none;strokeWidth=2;aspect=fixed;sketch=0;html=1;" parent="vJvFq_Vw4a-QntkjGkor-61" vertex="1">
          <mxGeometry x="127" y="200" width="11" height="11" as="geometry" />
        </mxCell>
        <mxCell id="cuwpB6Wg4Sakjpk2FCMN-15" value="" style="dashed=0;labelPosition=right;align=left;shape=mxgraph.gmdl.checkbox;strokeColor=#666666;fillColor=none;strokeWidth=2;aspect=fixed;sketch=0;html=1;" parent="vJvFq_Vw4a-QntkjGkor-61" vertex="1">
          <mxGeometry x="127" y="214.5" width="11" height="11" as="geometry" />
        </mxCell>
        <mxCell id="cuwpB6Wg4Sakjpk2FCMN-17" value="" style="dashed=0;labelPosition=right;align=left;shape=mxgraph.gmdl.checkbox;strokeColor=#666666;fillColor=none;strokeWidth=2;aspect=fixed;sketch=0;html=1;" parent="vJvFq_Vw4a-QntkjGkor-61" vertex="1">
          <mxGeometry x="127" y="155" width="11" height="11" as="geometry" />
        </mxCell>
        <mxCell id="cuwpB6Wg4Sakjpk2FCMN-3" value="" style="dashed=0;labelPosition=right;align=left;shape=mxgraph.gmdl.checkbox;strokeColor=#666666;fillColor=none;strokeWidth=2;aspect=fixed;sketch=0;html=1;" parent="vJvFq_Vw4a-QntkjGkor-1" vertex="1">
          <mxGeometry x="407" y="380" width="11" height="11" as="geometry" />
        </mxCell>
        <mxCell id="L7bdM51boLxY9GWKnCkU-0" value="" style="rounded=1;whiteSpace=wrap;html=1;fillColor=light-dark(#000000, #7f7f7f);" parent="vJvFq_Vw4a-QntkjGkor-1" vertex="1">
          <mxGeometry x="342.25" y="267.5" width="120" height="5" as="geometry" />
        </mxCell>
      </root>
    </mxGraphModel>
  </diagram>
  <diagram name="Zum [Gericht]" id="E64cFTDoZvF2HPi4va5-">
    <mxGraphModel dx="946" dy="710" grid="1" gridSize="10" guides="1" tooltips="1" connect="1" arrows="1" fold="1" page="1" pageScale="1" pageWidth="827" pageHeight="1169" math="0" shadow="0">
      <root>
        <mxCell id="SMBcGaTKqe0KRNxdsezv-0" />
        <mxCell id="SMBcGaTKqe0KRNxdsezv-1" parent="SMBcGaTKqe0KRNxdsezv-0" />
        <mxCell id="SMBcGaTKqe0KRNxdsezv-2" value="" style="html=1;verticalLabelPosition=bottom;labelBackgroundColor=#ffffff;verticalAlign=top;shadow=0;dashed=0;strokeWidth=1;shape=mxgraph.ios7.misc.iphone;movable=0;resizable=0;rotatable=0;deletable=0;editable=0;locked=1;connectable=0;" parent="SMBcGaTKqe0KRNxdsezv-1" vertex="1">
          <mxGeometry x="219" y="60" width="371" height="740" as="geometry" />
        </mxCell>
        <mxCell id="SMBcGaTKqe0KRNxdsezv-3" value="&lt;font style=&quot;font-size: 16px; color: rgb(0, 0, 0);&quot;&gt;&lt;b&gt;Fridgy&lt;/b&gt;&lt;/font&gt;" style="rounded=1;whiteSpace=wrap;html=1;fillColor=#d5e8d4;strokeColor=#82b366;" parent="SMBcGaTKqe0KRNxdsezv-1" vertex="1">
          <mxGeometry x="260" y="220" width="110" height="30" as="geometry" />
        </mxCell>
        <mxCell id="SMBcGaTKqe0KRNxdsezv-4" value="" style="html=1;strokeWidth=1;shadow=0;dashed=0;shape=mxgraph.ios7ui.appBar;fillColor=#ffffff;gradientColor=none;sketch=0;hachureGap=4;pointerEvents=0;fontFamily=Architects Daughter;fontSource=https%3A%2F%2Ffonts.googleapis.com%2Fcss%3Ffamily%3DArchitects%2BDaughter;fontSize=20;" parent="SMBcGaTKqe0KRNxdsezv-1" vertex="1">
          <mxGeometry x="264.5" y="180" width="280" height="15" as="geometry" />
        </mxCell>
        <mxCell id="SMBcGaTKqe0KRNxdsezv-5" value="CARRIER" style="shape=rect;align=left;fontSize=8;spacingLeft=24;fontSize=4;fontColor=#aaaaaa;strokeColor=none;fillColor=none;spacingTop=0;sketch=0;hachureGap=4;pointerEvents=0;fontFamily=Helvetica;html=1;" parent="SMBcGaTKqe0KRNxdsezv-4" vertex="1">
          <mxGeometry y="0.5" width="50" height="13" relative="1" as="geometry">
            <mxPoint y="-6.5" as="offset" />
          </mxGeometry>
        </mxCell>
        <mxCell id="SMBcGaTKqe0KRNxdsezv-6" value="11:55PM" style="shape=rect;fontSize=8;fontColor=#aaaaaa;strokeColor=none;fillColor=none;spacingTop=0;sketch=0;hachureGap=4;pointerEvents=0;fontFamily=Helvetica;html=1;" parent="SMBcGaTKqe0KRNxdsezv-4" vertex="1">
          <mxGeometry x="0.5" y="0.5" width="50" height="13" relative="1" as="geometry">
            <mxPoint x="-25" y="-6.5" as="offset" />
          </mxGeometry>
        </mxCell>
        <mxCell id="SMBcGaTKqe0KRNxdsezv-7" value="98%" style="shape=rect;align=right;fontSize=8;spacingRight=19;fontSize=6;fontColor=#aaaaaa;strokeColor=none;fillColor=none;spacingTop=0;sketch=0;hachureGap=4;pointerEvents=0;fontFamily=Helvetica;html=1;" parent="SMBcGaTKqe0KRNxdsezv-4" vertex="1">
          <mxGeometry x="1" y="0.5" width="45" height="13" relative="1" as="geometry">
            <mxPoint x="-45" y="-6.5" as="offset" />
          </mxGeometry>
        </mxCell>
        <mxCell id="SMBcGaTKqe0KRNxdsezv-8" value="" style="sketch=0;outlineConnect=0;fontColor=#232F3E;gradientColor=none;fillColor=#7EA6E0;strokeColor=none;dashed=0;verticalLabelPosition=bottom;verticalAlign=top;align=center;html=1;fontSize=12;fontStyle=0;aspect=fixed;pointerEvents=1;shape=mxgraph.aws4.magnifying_glass_2;" parent="SMBcGaTKqe0KRNxdsezv-1" vertex="1">
          <mxGeometry x="520" y="218" width="30" height="30" as="geometry" />
        </mxCell>
        <mxCell id="SMBcGaTKqe0KRNxdsezv-9" value="" style="group" parent="SMBcGaTKqe0KRNxdsezv-1" vertex="1" connectable="0">
          <mxGeometry x="260" y="620" width="290" height="50" as="geometry" />
        </mxCell>
        <mxCell id="SMBcGaTKqe0KRNxdsezv-10" value="" style="rounded=1;whiteSpace=wrap;html=1;arcSize=20;fillColor=#d5e8d4;gradientColor=#97d077;strokeColor=#82b366;" parent="SMBcGaTKqe0KRNxdsezv-9" vertex="1">
          <mxGeometry width="50" height="50" as="geometry" />
        </mxCell>
        <mxCell id="SMBcGaTKqe0KRNxdsezv-11" value="" style="rounded=1;whiteSpace=wrap;html=1;arcSize=20;fillColor=none;" parent="SMBcGaTKqe0KRNxdsezv-9" vertex="1">
          <mxGeometry x="60" width="50" height="50" as="geometry" />
        </mxCell>
        <mxCell id="SMBcGaTKqe0KRNxdsezv-12" value="" style="rounded=1;whiteSpace=wrap;html=1;arcSize=20;" parent="SMBcGaTKqe0KRNxdsezv-9" vertex="1">
          <mxGeometry x="119.5" width="50" height="50" as="geometry" />
        </mxCell>
        <mxCell id="SMBcGaTKqe0KRNxdsezv-13" value="" style="rounded=1;whiteSpace=wrap;html=1;arcSize=20;" parent="SMBcGaTKqe0KRNxdsezv-9" vertex="1">
          <mxGeometry x="180" width="50" height="50" as="geometry" />
        </mxCell>
        <mxCell id="SMBcGaTKqe0KRNxdsezv-14" value="" style="rounded=1;whiteSpace=wrap;html=1;arcSize=20;" parent="SMBcGaTKqe0KRNxdsezv-9" vertex="1">
          <mxGeometry x="240" width="50" height="50" as="geometry" />
        </mxCell>
        <mxCell id="SMBcGaTKqe0KRNxdsezv-15" value="" style="html=1;verticalLabelPosition=bottom;align=center;labelBackgroundColor=#ffffff;verticalAlign=top;strokeWidth=2;shadow=0;dashed=0;shape=mxgraph.ios7.icons.home;" parent="SMBcGaTKqe0KRNxdsezv-9" vertex="1">
          <mxGeometry x="10" y="11.120000000000005" width="30" height="27.750000000000004" as="geometry" />
        </mxCell>
        <mxCell id="SMBcGaTKqe0KRNxdsezv-16" value="" style="sketch=0;html=1;aspect=fixed;shadow=0;verticalAlign=top;labelPosition=center;verticalLabelPosition=bottom;shape=mxgraph.gcp2.view_list;fillColor=#d5e8d4;gradientColor=#97d077;strokeColor=#82b366;" parent="SMBcGaTKqe0KRNxdsezv-9" vertex="1">
          <mxGeometry x="132.81" y="10" width="23.39" height="28.88" as="geometry" />
        </mxCell>
        <mxCell id="SMBcGaTKqe0KRNxdsezv-17" value="" style="verticalLabelPosition=bottom;html=1;verticalAlign=top;align=center;shape=mxgraph.azure.azure_marketplace;fillColor=#d5e8d4;strokeColor=#82b366;gradientColor=#97d077;" parent="SMBcGaTKqe0KRNxdsezv-9" vertex="1">
          <mxGeometry x="71.25" y="10" width="27.5" height="28.870000000000005" as="geometry" />
        </mxCell>
        <mxCell id="SMBcGaTKqe0KRNxdsezv-18" value="" style="sketch=0;pointerEvents=1;shadow=0;dashed=0;html=1;labelPosition=center;verticalLabelPosition=bottom;verticalAlign=top;outlineConnect=0;align=center;shape=mxgraph.office.concepts.book_journal;fillColor=#d5e8d4;gradientColor=#97d077;strokeColor=#82b366;" parent="SMBcGaTKqe0KRNxdsezv-9" vertex="1">
          <mxGeometry x="195" y="11.120000000000005" width="20" height="30" as="geometry" />
        </mxCell>
        <mxCell id="SMBcGaTKqe0KRNxdsezv-19" value="" style="verticalLabelPosition=bottom;html=1;verticalAlign=top;align=center;shape=mxgraph.azure.user;fillColor=#d5e8d4;gradientColor=#97d077;strokeColor=#82b366;" parent="SMBcGaTKqe0KRNxdsezv-9" vertex="1">
          <mxGeometry x="250" y="9.430000000000064" width="30" height="30" as="geometry" />
        </mxCell>
        <mxCell id="SMBcGaTKqe0KRNxdsezv-20" value="" style="group;fontSize=11;" parent="SMBcGaTKqe0KRNxdsezv-1" vertex="1" connectable="0">
          <mxGeometry x="246.75" y="260" width="315.5" height="20" as="geometry" />
        </mxCell>
        <mxCell id="SMBcGaTKqe0KRNxdsezv-21" value="" style="rounded=1;whiteSpace=wrap;html=1;fillColor=#d5e8d4;strokeColor=#82b366;" parent="SMBcGaTKqe0KRNxdsezv-20" vertex="1">
          <mxGeometry x="153.25" width="162.25" height="20" as="geometry" />
        </mxCell>
        <mxCell id="SMBcGaTKqe0KRNxdsezv-22" value="" style="rounded=1;whiteSpace=wrap;html=1;fillColor=#d5e8d4;strokeColor=#82b366;" parent="SMBcGaTKqe0KRNxdsezv-20" vertex="1">
          <mxGeometry width="153.25" height="20" as="geometry" />
        </mxCell>
        <mxCell id="SMBcGaTKqe0KRNxdsezv-23" value="" style="html=1;dashed=0;aspect=fixed;verticalLabelPosition=bottom;verticalAlign=top;align=center;shape=mxgraph.gmdl.calendar;strokeColor=none;fillColor=#737373;shadow=0;sketch=0;" parent="SMBcGaTKqe0KRNxdsezv-20" vertex="1">
          <mxGeometry x="8.75" y="2.5" width="15" height="15" as="geometry" />
        </mxCell>
        <mxCell id="SMBcGaTKqe0KRNxdsezv-24" value="" style="html=1;dashed=0;aspect=fixed;verticalLabelPosition=bottom;verticalAlign=top;align=center;shape=mxgraph.gmdl.calendar;strokeColor=none;fillColor=#737373;shadow=0;sketch=0;" parent="SMBcGaTKqe0KRNxdsezv-20" vertex="1">
          <mxGeometry x="160.25" y="2.5" width="15" height="15" as="geometry" />
        </mxCell>
        <mxCell id="SMBcGaTKqe0KRNxdsezv-25" value="Heute" style="rounded=1;whiteSpace=wrap;html=1;fontStyle=1;" parent="SMBcGaTKqe0KRNxdsezv-20" vertex="1">
          <mxGeometry x="33.25" y="2.5" width="106.75" height="15" as="geometry" />
        </mxCell>
        <mxCell id="SMBcGaTKqe0KRNxdsezv-26" value="Woche" style="rounded=1;whiteSpace=wrap;html=1;fillColor=#f5f5f5;fontColor=#333333;strokeColor=#FFFFFF;fontStyle=1" parent="SMBcGaTKqe0KRNxdsezv-20" vertex="1">
          <mxGeometry x="195.75" y="5" width="102" height="10" as="geometry" />
        </mxCell>
        <mxCell id="mEMi-sFXDatArcBR0xej-2" value="" style="shape=link;html=1;rounded=0;" parent="SMBcGaTKqe0KRNxdsezv-20" edge="1">
          <mxGeometry width="100" relative="1" as="geometry">
            <mxPoint x="107.75" y="9.659999999999968" as="sourcePoint" />
            <mxPoint x="207.75" y="9.659999999999968" as="targetPoint" />
          </mxGeometry>
        </mxCell>
        <mxCell id="SMBcGaTKqe0KRNxdsezv-27" value="&lt;font style=&quot;color: rgb(0, 0, 0);&quot;&gt;Produkt lÃ¤uft bald ab:&lt;/font&gt;" style="text;html=1;align=left;verticalAlign=middle;whiteSpace=wrap;rounded=0;fontSize=11;fontStyle=1" parent="SMBcGaTKqe0KRNxdsezv-1" vertex="1">
          <mxGeometry x="255.5" y="470" width="124.5" height="20" as="geometry" />
        </mxCell>
        <mxCell id="SMBcGaTKqe0KRNxdsezv-28" value="" style="group;fontSize=10;" parent="SMBcGaTKqe0KRNxdsezv-1" vertex="1" connectable="0">
          <mxGeometry x="260" y="490" width="290" height="120" as="geometry" />
        </mxCell>
        <mxCell id="SMBcGaTKqe0KRNxdsezv-29" value="&lt;font style=&quot;color: rgb(0, 0, 0);&quot;&gt;1. Joghurt in 8 Tagen&lt;/font&gt;" style="text;html=1;align=left;verticalAlign=middle;whiteSpace=wrap;rounded=0;fontSize=9;" parent="SMBcGaTKqe0KRNxdsezv-28" vertex="1">
          <mxGeometry width="290" height="13.333333333333332" as="geometry" />
        </mxCell>
        <mxCell id="SMBcGaTKqe0KRNxdsezv-30" value="&lt;font style=&quot;color: rgb(0, 0, 0);&quot;&gt;2. Schlagsahne in 9 Tagen&lt;/font&gt;" style="text;html=1;align=left;verticalAlign=middle;whiteSpace=wrap;rounded=0;fontSize=9;" parent="SMBcGaTKqe0KRNxdsezv-28" vertex="1">
          <mxGeometry y="13.333333333333332" width="290" height="13.333333333333332" as="geometry" />
        </mxCell>
        <mxCell id="SMBcGaTKqe0KRNxdsezv-31" value="&lt;font style=&quot;color: rgb(0, 0, 0);&quot;&gt;3. Pudding in 12 Tagen&lt;/font&gt;" style="text;html=1;align=left;verticalAlign=middle;whiteSpace=wrap;rounded=0;fontSize=9;" parent="SMBcGaTKqe0KRNxdsezv-28" vertex="1">
          <mxGeometry y="26.666666666666664" width="290" height="13.333333333333332" as="geometry" />
        </mxCell>
        <mxCell id="SMBcGaTKqe0KRNxdsezv-32" value="&lt;font&gt;&lt;font style=&quot;color: rgb(0, 0, 0);&quot;&gt;4. Milch 3,5% in 14&amp;nbsp;&lt;/font&gt;&lt;span style=&quot;color: rgb(0, 0, 0); background-color: transparent;&quot;&gt;Tagen&lt;/span&gt;&lt;/font&gt;" style="text;html=1;align=left;verticalAlign=middle;whiteSpace=wrap;rounded=0;fontSize=9;" parent="SMBcGaTKqe0KRNxdsezv-28" vertex="1">
          <mxGeometry y="39.99999999999999" width="290" height="13.333333333333332" as="geometry" />
        </mxCell>
        <mxCell id="SMBcGaTKqe0KRNxdsezv-33" value="&lt;font style=&quot;color: rgb(0, 0, 0);&quot;&gt;5. Milch 1,5% in 14 Tagen&lt;/font&gt;" style="text;html=1;align=left;verticalAlign=middle;whiteSpace=wrap;rounded=0;fontSize=9;" parent="SMBcGaTKqe0KRNxdsezv-28" vertex="1">
          <mxGeometry y="53.33333333333333" width="290" height="13.333333333333332" as="geometry" />
        </mxCell>
        <mxCell id="SMBcGaTKqe0KRNxdsezv-34" value="&lt;font style=&quot;color: rgb(0, 0, 0);&quot;&gt;6. GeflÃ¼gelwurst in 16 Tagen&lt;/font&gt;" style="text;html=1;align=left;verticalAlign=middle;whiteSpace=wrap;rounded=0;fontSize=9;" parent="SMBcGaTKqe0KRNxdsezv-28" vertex="1">
          <mxGeometry y="66.66666666666666" width="290" height="13.333333333333332" as="geometry" />
        </mxCell>
        <mxCell id="SMBcGaTKqe0KRNxdsezv-35" value="&lt;font style=&quot;color: rgb(0, 0, 0);&quot;&gt;7. Leberwurst in 17 Tagen&lt;/font&gt;" style="text;html=1;align=left;verticalAlign=middle;whiteSpace=wrap;rounded=0;fontSize=9;" parent="SMBcGaTKqe0KRNxdsezv-28" vertex="1">
          <mxGeometry y="79.99999999999999" width="290" height="13.333333333333332" as="geometry" />
        </mxCell>
        <mxCell id="SMBcGaTKqe0KRNxdsezv-36" value="&lt;font style=&quot;color: rgb(0, 0, 0);&quot;&gt;8. FrischkÃ¤se in 20 Tagen&lt;/font&gt;" style="text;html=1;align=left;verticalAlign=middle;whiteSpace=wrap;rounded=0;fontSize=9;" parent="SMBcGaTKqe0KRNxdsezv-28" vertex="1">
          <mxGeometry y="93.33333333333333" width="290" height="13.333333333333332" as="geometry" />
        </mxCell>
        <mxCell id="SMBcGaTKqe0KRNxdsezv-37" value="" style="group" parent="SMBcGaTKqe0KRNxdsezv-1" vertex="1" connectable="0">
          <mxGeometry x="250" y="440" width="310" height="30" as="geometry" />
        </mxCell>
        <mxCell id="SMBcGaTKqe0KRNxdsezv-38" value="&lt;b&gt;HinzufÃ¼gen&lt;/b&gt;" style="rounded=1;whiteSpace=wrap;html=1;align=right;fillColor=#d5e8d4;strokeColor=#82b366;" parent="SMBcGaTKqe0KRNxdsezv-37" vertex="1">
          <mxGeometry width="103.33333333333333" height="20" as="geometry" />
        </mxCell>
        <mxCell id="SMBcGaTKqe0KRNxdsezv-39" value="&lt;b&gt;Entfernen&lt;/b&gt;" style="rounded=1;whiteSpace=wrap;html=1;align=right;fillColor=#d5e8d4;strokeColor=#82b366;" parent="SMBcGaTKqe0KRNxdsezv-37" vertex="1">
          <mxGeometry x="103.33333333333333" width="103.33333333333333" height="20" as="geometry" />
        </mxCell>
        <mxCell id="SMBcGaTKqe0KRNxdsezv-40" value="&lt;b&gt;Bearbeiten&lt;/b&gt;" style="rounded=1;whiteSpace=wrap;html=1;align=right;fillColor=#d5e8d4;strokeColor=#82b366;" parent="SMBcGaTKqe0KRNxdsezv-37" vertex="1">
          <mxGeometry x="206.66666666666666" width="103.33333333333333" height="20" as="geometry" />
        </mxCell>
        <mxCell id="SMBcGaTKqe0KRNxdsezv-41" value="" style="html=1;verticalLabelPosition=bottom;align=center;labelBackgroundColor=#ffffff;verticalAlign=top;strokeWidth=2;shadow=0;dashed=0;shape=mxgraph.ios7.icons.add;fillColor=none;" parent="SMBcGaTKqe0KRNxdsezv-37" vertex="1">
          <mxGeometry x="6" y="2.5" width="17" height="15" as="geometry" />
        </mxCell>
        <mxCell id="SMBcGaTKqe0KRNxdsezv-42" value="&lt;span style=&quot;color: rgba(0, 0, 0, 0); font-family: monospace; font-size: 0px; text-align: start; background-color: rgb(236, 236, 236);&quot;&gt;%3CmxGraphModel%3E%3Croot%3E%3CmxCell%20id%3D%220%22%2F%3E%3CmxCell%20id%3D%221%22%20parent%3D%220%22%2F%3E%3CmxCell%20id%3D%222%22%20value%3D%22%22%20style%3D%22html%3D1%3BverticalLabelPosition%3Dbottom%3Balign%3Dcenter%3BlabelBackgroundColor%3D%23ffffff%3BverticalAlign%3Dtop%3BstrokeWidth%3D2%3Bshadow%3D0%3Bdashed%3D0%3Bshape%3Dmxgraph.ios7.icons.add%3BfillColor%3Dnone%3B%22%20vertex%3D%221%22%20parent%3D%221%22%3E%3CmxGeometry%20x%3D%22256%22%20y%3D%22442.5%22%20width%3D%2217%22%20height%3D%2215%22%20as%3D%22geometry%22%2F%3E%3C%2FmxCell%3E%3C%2Froot%3E%3C%2FmxGraphModel%3E&lt;/span&gt;" style="html=1;verticalLabelPosition=bottom;align=center;labelBackgroundColor=#ffffff;verticalAlign=top;strokeWidth=2;shadow=0;dashed=0;shape=mxgraph.ios7.icons.delete;fillColor=none;" parent="SMBcGaTKqe0KRNxdsezv-37" vertex="1">
          <mxGeometry x="110" y="2.5" width="17" height="15" as="geometry" />
        </mxCell>
        <mxCell id="SMBcGaTKqe0KRNxdsezv-43" value="&lt;span style=&quot;color: rgba(0, 0, 0, 0); font-family: monospace; font-size: 0px; text-align: start; background-color: rgb(236, 236, 236);&quot;&gt;%3CmxGraphModel%3E%3Croot%3E%3CmxCell%20id%3D%220%22%2F%3E%3CmxCell%20id%3D%221%22%20parent%3D%220%22%2F%3E%3CmxCell%20id%3D%222%22%20value%3D%22%22%20style%3D%22html%3D1%3BverticalLabelPosition%3Dbottom%3Balign%3Dcenter%3BlabelBackgroundColor%3D%23ffffff%3BverticalAlign%3Dtop%3BstrokeWidth%3D2%3Bshadow%3D0%3Bdashed%3D0%3Bshape%3Dmxgraph.ios7.icons.add%3BfillColor%3Dnone%3B%22%20vertex%3D%221%22%20parent%3D%221%22%3E%3CmxGeometry%20x%3D%22256%22%20y%3D%22442.5%22%20width%3D%2217%22%20height%3D%2215%22%20as%3D%22geometry%22%2F%3E%3C%2FmxCell%3E%3C%2Froot%3E%3C%2FmxGraphModel%3E&lt;/span&gt;" style="html=1;verticalLabelPosition=bottom;align=center;labelBackgroundColor=#ffffff;verticalAlign=top;strokeWidth=2;shadow=0;dashed=0;shape=mxgraph.ios7.icons.compose;fillColor=none;" parent="SMBcGaTKqe0KRNxdsezv-37" vertex="1">
          <mxGeometry x="210" y="2.5" width="17" height="15" as="geometry" />
        </mxCell>
        <mxCell id="SMBcGaTKqe0KRNxdsezv-44" value="" style="rounded=1;whiteSpace=wrap;html=1;" parent="SMBcGaTKqe0KRNxdsezv-1" vertex="1">
          <mxGeometry x="246.75" y="290" width="153.25" height="60" as="geometry" />
        </mxCell>
        <mxCell id="SMBcGaTKqe0KRNxdsezv-45" value="" style="rounded=1;whiteSpace=wrap;html=1;" parent="SMBcGaTKqe0KRNxdsezv-1" vertex="1">
          <mxGeometry x="400" y="290" width="160" height="60" as="geometry" />
        </mxCell>
        <mxCell id="SMBcGaTKqe0KRNxdsezv-46" value="" style="rounded=1;whiteSpace=wrap;html=1;" parent="SMBcGaTKqe0KRNxdsezv-1" vertex="1">
          <mxGeometry x="246.75" y="350" width="153.25" height="60" as="geometry" />
        </mxCell>
        <mxCell id="SMBcGaTKqe0KRNxdsezv-47" value="" style="rounded=1;whiteSpace=wrap;html=1;" parent="SMBcGaTKqe0KRNxdsezv-1" vertex="1">
          <mxGeometry x="400" y="350" width="160" height="60" as="geometry" />
        </mxCell>
        <mxCell id="SMBcGaTKqe0KRNxdsezv-48" value="Zum FrÃ¼hstÃ¼ck" style="text;html=1;align=center;verticalAlign=middle;whiteSpace=wrap;rounded=0;fontStyle=1" parent="SMBcGaTKqe0KRNxdsezv-1" vertex="1">
          <mxGeometry x="271.19" y="290" width="104.37" height="30" as="geometry" />
        </mxCell>
        <mxCell id="SMBcGaTKqe0KRNxdsezv-49" value="Zum Mittagessen" style="text;html=1;align=center;verticalAlign=middle;whiteSpace=wrap;rounded=0;fontStyle=1" parent="SMBcGaTKqe0KRNxdsezv-1" vertex="1">
          <mxGeometry x="427.82" y="290" width="104.37" height="30" as="geometry" />
        </mxCell>
        <mxCell id="SMBcGaTKqe0KRNxdsezv-50" value="Zum Abendessen" style="text;html=1;align=center;verticalAlign=middle;whiteSpace=wrap;rounded=0;fontStyle=1" parent="SMBcGaTKqe0KRNxdsezv-1" vertex="1">
          <mxGeometry x="271.19" y="350" width="104.37" height="30" as="geometry" />
        </mxCell>
        <mxCell id="SMBcGaTKqe0KRNxdsezv-51" value="Zu Snacks" style="text;html=1;align=center;verticalAlign=middle;whiteSpace=wrap;rounded=0;fontStyle=1" parent="SMBcGaTKqe0KRNxdsezv-1" vertex="1">
          <mxGeometry x="427.82" y="350" width="104.37" height="30" as="geometry" />
        </mxCell>
        <mxCell id="SMBcGaTKqe0KRNxdsezv-52" value="Spiegelei" style="text;html=1;align=center;verticalAlign=middle;whiteSpace=wrap;rounded=0;" parent="SMBcGaTKqe0KRNxdsezv-1" vertex="1">
          <mxGeometry x="277.25" y="310" width="92.25" height="30" as="geometry" />
        </mxCell>
        <mxCell id="SMBcGaTKqe0KRNxdsezv-53" value="HÃ¤hnchen mit Nudeln" style="text;html=1;align=center;verticalAlign=middle;whiteSpace=wrap;rounded=0;" parent="SMBcGaTKqe0KRNxdsezv-1" vertex="1">
          <mxGeometry x="277.25" y="370" width="92.25" height="30" as="geometry" />
        </mxCell>
        <mxCell id="SMBcGaTKqe0KRNxdsezv-54" value="Kartoffelsuppe" style="text;html=1;align=center;verticalAlign=middle;whiteSpace=wrap;rounded=0;" parent="SMBcGaTKqe0KRNxdsezv-1" vertex="1">
          <mxGeometry x="433.88" y="310" width="92.25" height="30" as="geometry" />
        </mxCell>
        <mxCell id="SMBcGaTKqe0KRNxdsezv-55" value="Apfeljoguhrt" style="text;html=1;align=center;verticalAlign=middle;whiteSpace=wrap;rounded=0;" parent="SMBcGaTKqe0KRNxdsezv-1" vertex="1">
          <mxGeometry x="433.88" y="370" width="92.25" height="30" as="geometry" />
        </mxCell>
        <mxCell id="SMBcGaTKqe0KRNxdsezv-56" value="" style="rounded=1;whiteSpace=wrap;html=1;strokeColor=#82b366;fillColor=#d5e8d4;gradientColor=#97d077;" parent="SMBcGaTKqe0KRNxdsezv-1" vertex="1">
          <mxGeometry x="246.75" y="260" width="313.25" height="419" as="geometry" />
        </mxCell>
        <mxCell id="SMBcGaTKqe0KRNxdsezv-57" value="&lt;font style=&quot;color: rgb(0, 0, 0);&quot;&gt;Beispielgericht&lt;/font&gt;" style="text;html=1;align=left;verticalAlign=middle;whiteSpace=wrap;rounded=0;fontSize=14;" parent="SMBcGaTKqe0KRNxdsezv-1" vertex="1">
          <mxGeometry x="292.25" y="280" width="270" height="30" as="geometry" />
        </mxCell>
        <mxCell id="CP1TNFZIxbVmYPHYoCPJ-0" value="" style="html=1;dashed=0;aspect=fixed;verticalLabelPosition=bottom;verticalAlign=top;align=center;shape=mxgraph.gmdl.recipes;strokeColor=#82b366;fillColor=#d5e8d4;shadow=0;sketch=0;" parent="SMBcGaTKqe0KRNxdsezv-1" vertex="1">
          <mxGeometry x="271.19" y="285" width="20" height="20" as="geometry" />
        </mxCell>
        <mxCell id="CP1TNFZIxbVmYPHYoCPJ-1" value="" style="rounded=0;whiteSpace=wrap;html=1;" parent="SMBcGaTKqe0KRNxdsezv-1" vertex="1">
          <mxGeometry x="264.5" y="320" width="275.5" height="320" as="geometry" />
        </mxCell>
        <mxCell id="CP1TNFZIxbVmYPHYoCPJ-2" value="Zutaten:&lt;div&gt;.&lt;/div&gt;&lt;div&gt;.&lt;/div&gt;&lt;div&gt;.&lt;/div&gt;&lt;div&gt;&lt;br&gt;&lt;/div&gt;&lt;div&gt;&lt;br&gt;&lt;/div&gt;" style="rounded=0;whiteSpace=wrap;html=1;align=left;" parent="SMBcGaTKqe0KRNxdsezv-1" vertex="1">
          <mxGeometry x="264.5" y="320" width="275.5" height="100" as="geometry" />
        </mxCell>
        <mxCell id="CP1TNFZIxbVmYPHYoCPJ-3" value="Zuberteiung:&lt;div&gt;.&lt;/div&gt;&lt;div&gt;.&lt;/div&gt;&lt;div&gt;.&lt;/div&gt;&lt;div&gt;&lt;br&gt;&lt;/div&gt;&lt;div&gt;&lt;br&gt;&lt;/div&gt;&lt;div&gt;&lt;br&gt;&lt;/div&gt;&lt;div&gt;&lt;br&gt;&lt;/div&gt;" style="rounded=0;whiteSpace=wrap;html=1;align=left;" parent="SMBcGaTKqe0KRNxdsezv-1" vertex="1">
          <mxGeometry x="264.5" y="420" width="275.5" height="130" as="geometry" />
        </mxCell>
        <mxCell id="CP1TNFZIxbVmYPHYoCPJ-4" value="Sonstiges:&lt;div&gt;.&lt;/div&gt;&lt;div&gt;.&lt;/div&gt;&lt;div&gt;.&lt;/div&gt;&lt;div&gt;&lt;br&gt;&lt;/div&gt;&lt;div&gt;&lt;br&gt;&lt;/div&gt;" style="rounded=0;whiteSpace=wrap;html=1;align=left;" parent="SMBcGaTKqe0KRNxdsezv-1" vertex="1">
          <mxGeometry x="264.5" y="530" width="275.5" height="120" as="geometry" />
        </mxCell>
        <mxCell id="mEMi-sFXDatArcBR0xej-4" value="" style="rounded=1;whiteSpace=wrap;html=1;fillColor=light-dark(#000000, #7f7f7f);" parent="SMBcGaTKqe0KRNxdsezv-1" vertex="1">
          <mxGeometry x="342.25" y="267.5" width="120" height="5" as="geometry" />
        </mxCell>
      </root>
    </mxGraphModel>
  </diagram>
  <diagram name="Vorrat" id="uOYJMBXMhs2qeEb6WO1Q">
    <mxGraphModel dx="946" dy="710" grid="1" gridSize="10" guides="1" tooltips="1" connect="1" arrows="1" fold="1" page="1" pageScale="1" pageWidth="827" pageHeight="1169" math="0" shadow="0">
      <root>
        <mxCell id="QloYPl8q_X5DcnLmilXr-0" />
        <mxCell id="QloYPl8q_X5DcnLmilXr-1" parent="QloYPl8q_X5DcnLmilXr-0" />
        <mxCell id="QloYPl8q_X5DcnLmilXr-2" value="" style="html=1;verticalLabelPosition=bottom;labelBackgroundColor=#ffffff;verticalAlign=top;shadow=0;dashed=0;strokeWidth=1;shape=mxgraph.ios7.misc.iphone;movable=0;resizable=0;rotatable=0;deletable=0;editable=0;locked=1;connectable=0;" parent="QloYPl8q_X5DcnLmilXr-1" vertex="1">
          <mxGeometry x="219" y="60" width="371" height="740" as="geometry" />
        </mxCell>
        <mxCell id="QloYPl8q_X5DcnLmilXr-3" value="&lt;b&gt;&lt;font style=&quot;font-size: 16px; color: rgb(0, 0, 0);&quot;&gt;Vorratsschrank&lt;/font&gt;&lt;/b&gt;" style="rounded=1;whiteSpace=wrap;html=1;fillColor=#d5e8d4;strokeColor=#82b366;" parent="QloYPl8q_X5DcnLmilXr-1" vertex="1">
          <mxGeometry x="260" y="220" width="130" height="30" as="geometry" />
        </mxCell>
        <mxCell id="QloYPl8q_X5DcnLmilXr-4" value="" style="html=1;strokeWidth=1;shadow=0;dashed=0;shape=mxgraph.ios7ui.appBar;fillColor=#ffffff;gradientColor=none;sketch=0;hachureGap=4;pointerEvents=0;fontFamily=Architects Daughter;fontSource=https%3A%2F%2Ffonts.googleapis.com%2Fcss%3Ffamily%3DArchitects%2BDaughter;fontSize=20;" parent="QloYPl8q_X5DcnLmilXr-1" vertex="1">
          <mxGeometry x="264.5" y="180" width="280" height="15" as="geometry" />
        </mxCell>
        <mxCell id="QloYPl8q_X5DcnLmilXr-5" value="CARRIER" style="shape=rect;align=left;fontSize=8;spacingLeft=24;fontSize=4;fontColor=#aaaaaa;strokeColor=none;fillColor=none;spacingTop=0;sketch=0;hachureGap=4;pointerEvents=0;fontFamily=Helvetica;html=1;" parent="QloYPl8q_X5DcnLmilXr-4" vertex="1">
          <mxGeometry y="0.5" width="50" height="13" relative="1" as="geometry">
            <mxPoint y="-6.5" as="offset" />
          </mxGeometry>
        </mxCell>
        <mxCell id="QloYPl8q_X5DcnLmilXr-6" value="11:55PM" style="shape=rect;fontSize=8;fontColor=#aaaaaa;strokeColor=none;fillColor=none;spacingTop=0;sketch=0;hachureGap=4;pointerEvents=0;fontFamily=Helvetica;html=1;" parent="QloYPl8q_X5DcnLmilXr-4" vertex="1">
          <mxGeometry x="0.5" y="0.5" width="50" height="13" relative="1" as="geometry">
            <mxPoint x="-25" y="-6.5" as="offset" />
          </mxGeometry>
        </mxCell>
        <mxCell id="QloYPl8q_X5DcnLmilXr-7" value="98%" style="shape=rect;align=right;fontSize=8;spacingRight=19;fontSize=6;fontColor=#aaaaaa;strokeColor=none;fillColor=none;spacingTop=0;sketch=0;hachureGap=4;pointerEvents=0;fontFamily=Helvetica;html=1;" parent="QloYPl8q_X5DcnLmilXr-4" vertex="1">
          <mxGeometry x="1" y="0.5" width="45" height="13" relative="1" as="geometry">
            <mxPoint x="-45" y="-6.5" as="offset" />
          </mxGeometry>
        </mxCell>
        <mxCell id="QloYPl8q_X5DcnLmilXr-8" value="" style="group" parent="QloYPl8q_X5DcnLmilXr-1" vertex="1" connectable="0">
          <mxGeometry x="260" y="620" width="290" height="50" as="geometry" />
        </mxCell>
        <mxCell id="QloYPl8q_X5DcnLmilXr-10" value="" style="rounded=1;whiteSpace=wrap;html=1;arcSize=20;" parent="QloYPl8q_X5DcnLmilXr-8" vertex="1">
          <mxGeometry x="60" width="50" height="50" as="geometry" />
        </mxCell>
        <mxCell id="QloYPl8q_X5DcnLmilXr-11" value="" style="rounded=1;whiteSpace=wrap;html=1;arcSize=20;fillColor=#d5e8d4;gradientColor=#97d077;strokeColor=light-dark(#000000, #446e2c);" parent="QloYPl8q_X5DcnLmilXr-8" vertex="1">
          <mxGeometry y="-0.57" width="50" height="50" as="geometry" />
        </mxCell>
        <mxCell id="QloYPl8q_X5DcnLmilXr-12" value="" style="rounded=1;whiteSpace=wrap;html=1;arcSize=20;" parent="QloYPl8q_X5DcnLmilXr-8" vertex="1">
          <mxGeometry x="180" width="50" height="50" as="geometry" />
        </mxCell>
        <mxCell id="QloYPl8q_X5DcnLmilXr-13" value="" style="rounded=1;whiteSpace=wrap;html=1;arcSize=20;" parent="QloYPl8q_X5DcnLmilXr-8" vertex="1">
          <mxGeometry x="240" width="50" height="50" as="geometry" />
        </mxCell>
        <mxCell id="QloYPl8q_X5DcnLmilXr-16" value="" style="verticalLabelPosition=bottom;html=1;verticalAlign=top;align=center;shape=mxgraph.azure.azure_marketplace;fillColor=#d5e8d4;gradientColor=#97d077;strokeColor=#82b366;" parent="QloYPl8q_X5DcnLmilXr-8" vertex="1">
          <mxGeometry x="71.25" y="10" width="27.5" height="28.870000000000005" as="geometry" />
        </mxCell>
        <mxCell id="QloYPl8q_X5DcnLmilXr-18" value="" style="verticalLabelPosition=bottom;html=1;verticalAlign=top;align=center;shape=mxgraph.azure.user;fillColor=#d5e8d4;gradientColor=#97d077;strokeColor=#82b366;" parent="QloYPl8q_X5DcnLmilXr-8" vertex="1">
          <mxGeometry x="250" y="9.430000000000064" width="30" height="30" as="geometry" />
        </mxCell>
        <mxCell id="QloYPl8q_X5DcnLmilXr-15" value="" style="sketch=0;html=1;aspect=fixed;shadow=0;verticalAlign=top;labelPosition=center;verticalLabelPosition=bottom;shape=mxgraph.gcp2.view_list;" parent="QloYPl8q_X5DcnLmilXr-8" vertex="1">
          <mxGeometry x="13.310000000000002" y="10.56000000000006" width="23.39" height="28.88" as="geometry" />
        </mxCell>
        <mxCell id="QloYPl8q_X5DcnLmilXr-19" value="" style="html=1;verticalLabelPosition=bottom;align=center;labelBackgroundColor=#ffffff;verticalAlign=top;strokeWidth=2;shadow=0;dashed=0;shape=mxgraph.office.communications.exchange_active_sync;sketch=0;pointerEvents=1;strokeColor=none;fillColor=#7EA6E0;labelPosition=center;outlineConnect=0;" parent="QloYPl8q_X5DcnLmilXr-1" vertex="1">
          <mxGeometry x="519.5" y="221" width="25" height="28" as="geometry" />
        </mxCell>
        <mxCell id="QloYPl8q_X5DcnLmilXr-24" value="" style="group;fillColor=#f5f5f5;gradientColor=#b3b3b3;strokeColor=#666666;" parent="QloYPl8q_X5DcnLmilXr-1" vertex="1" connectable="0">
          <mxGeometry x="257" y="380" width="295" height="30" as="geometry" />
        </mxCell>
        <mxCell id="QloYPl8q_X5DcnLmilXr-25" value="&amp;nbsp; &amp;nbsp; &amp;nbsp; &amp;nbsp; &amp;nbsp; &amp;nbsp; &amp;nbsp; 500g Kartoffeln" style="rounded=1;whiteSpace=wrap;html=1;align=left;" parent="QloYPl8q_X5DcnLmilXr-24" vertex="1">
          <mxGeometry width="295" height="30" as="geometry" />
        </mxCell>
        <mxCell id="QloYPl8q_X5DcnLmilXr-26" value="" style="rounded=0;whiteSpace=wrap;html=1;" parent="QloYPl8q_X5DcnLmilXr-24" vertex="1">
          <mxGeometry x="9.5" y="5" width="30" height="20" as="geometry" />
        </mxCell>
        <mxCell id="ST6K1iBQBsXBQSUp6Im5-1" value="" style="html=1;verticalLabelPosition=bottom;align=center;labelBackgroundColor=#ffffff;verticalAlign=top;strokeWidth=2;shadow=0;dashed=0;shape=mxgraph.ios7.icons.delete;fillColor=#f5f5f5;gradientColor=#b3b3b3;strokeColor=#666666;" parent="QloYPl8q_X5DcnLmilXr-24" vertex="1">
          <mxGeometry x="265" y="5" width="18" height="19" as="geometry" />
        </mxCell>
        <mxCell id="QloYPl8q_X5DcnLmilXr-28" value="" style="group;fillColor=#f5f5f5;gradientColor=#b3b3b3;strokeColor=#666666;" parent="QloYPl8q_X5DcnLmilXr-1" vertex="1" connectable="0">
          <mxGeometry x="257" y="410" width="295" height="30" as="geometry" />
        </mxCell>
        <mxCell id="QloYPl8q_X5DcnLmilXr-29" value="&amp;nbsp; &amp;nbsp; &amp;nbsp; &amp;nbsp; &amp;nbsp; &amp;nbsp; &amp;nbsp; 300g Eier" style="rounded=1;whiteSpace=wrap;html=1;align=left;" parent="QloYPl8q_X5DcnLmilXr-28" vertex="1">
          <mxGeometry width="295" height="30" as="geometry" />
        </mxCell>
        <mxCell id="QloYPl8q_X5DcnLmilXr-30" value="" style="rounded=0;whiteSpace=wrap;html=1;" parent="QloYPl8q_X5DcnLmilXr-28" vertex="1">
          <mxGeometry x="9.5" y="5" width="30" height="20" as="geometry" />
        </mxCell>
        <mxCell id="ST6K1iBQBsXBQSUp6Im5-2" value="" style="html=1;verticalLabelPosition=bottom;align=center;labelBackgroundColor=#ffffff;verticalAlign=top;strokeWidth=2;shadow=0;dashed=0;shape=mxgraph.ios7.icons.delete;fillColor=#f5f5f5;gradientColor=#b3b3b3;strokeColor=#666666;" parent="QloYPl8q_X5DcnLmilXr-28" vertex="1">
          <mxGeometry x="265" y="5" width="18" height="19" as="geometry" />
        </mxCell>
        <mxCell id="QloYPl8q_X5DcnLmilXr-32" value="" style="group;fillColor=#f5f5f5;gradientColor=#b3b3b3;strokeColor=#666666;" parent="QloYPl8q_X5DcnLmilXr-1" vertex="1" connectable="0">
          <mxGeometry x="257" y="440" width="295" height="30" as="geometry" />
        </mxCell>
        <mxCell id="QloYPl8q_X5DcnLmilXr-33" value="&amp;nbsp; &amp;nbsp; &amp;nbsp; &amp;nbsp; &amp;nbsp; &amp;nbsp; &amp;nbsp; 250g Milch" style="rounded=1;whiteSpace=wrap;html=1;align=left;" parent="QloYPl8q_X5DcnLmilXr-32" vertex="1">
          <mxGeometry width="295" height="30" as="geometry" />
        </mxCell>
        <mxCell id="QloYPl8q_X5DcnLmilXr-34" value="" style="rounded=0;whiteSpace=wrap;html=1;" parent="QloYPl8q_X5DcnLmilXr-32" vertex="1">
          <mxGeometry x="9.5" y="5" width="30" height="20" as="geometry" />
        </mxCell>
        <mxCell id="ST6K1iBQBsXBQSUp6Im5-3" value="" style="html=1;verticalLabelPosition=bottom;align=center;labelBackgroundColor=#ffffff;verticalAlign=top;strokeWidth=2;shadow=0;dashed=0;shape=mxgraph.ios7.icons.delete;fillColor=#f5f5f5;gradientColor=#b3b3b3;strokeColor=#666666;" parent="QloYPl8q_X5DcnLmilXr-32" vertex="1">
          <mxGeometry x="265" y="5" width="18" height="19" as="geometry" />
        </mxCell>
        <mxCell id="QloYPl8q_X5DcnLmilXr-36" value="" style="group" parent="QloYPl8q_X5DcnLmilXr-1" vertex="1" connectable="0">
          <mxGeometry x="257" y="470" width="295" height="30" as="geometry" />
        </mxCell>
        <mxCell id="QloYPl8q_X5DcnLmilXr-37" value="&amp;nbsp; &amp;nbsp; &amp;nbsp; &amp;nbsp; &amp;nbsp; &amp;nbsp; &amp;nbsp; 150g Pudding" style="rounded=1;whiteSpace=wrap;html=1;align=left;" parent="QloYPl8q_X5DcnLmilXr-36" vertex="1">
          <mxGeometry width="295" height="30" as="geometry" />
        </mxCell>
        <mxCell id="QloYPl8q_X5DcnLmilXr-38" value="" style="rounded=0;whiteSpace=wrap;html=1;" parent="QloYPl8q_X5DcnLmilXr-36" vertex="1">
          <mxGeometry x="9.5" y="5" width="30" height="20" as="geometry" />
        </mxCell>
        <mxCell id="ST6K1iBQBsXBQSUp6Im5-4" value="" style="html=1;verticalLabelPosition=bottom;align=center;labelBackgroundColor=#ffffff;verticalAlign=top;strokeWidth=2;shadow=0;dashed=0;shape=mxgraph.ios7.icons.delete;fillColor=#f5f5f5;gradientColor=#b3b3b3;strokeColor=#666666;" parent="QloYPl8q_X5DcnLmilXr-36" vertex="1">
          <mxGeometry x="265" y="5" width="18" height="19" as="geometry" />
        </mxCell>
        <mxCell id="QloYPl8q_X5DcnLmilXr-40" value="" style="group" parent="QloYPl8q_X5DcnLmilXr-1" vertex="1" connectable="0">
          <mxGeometry x="257" y="500" width="295" height="30" as="geometry" />
        </mxCell>
        <mxCell id="QloYPl8q_X5DcnLmilXr-41" value="&amp;nbsp; &amp;nbsp; &amp;nbsp; &amp;nbsp; &amp;nbsp; &amp;nbsp; &amp;nbsp; 250g Salat" style="rounded=1;whiteSpace=wrap;html=1;align=left;" parent="QloYPl8q_X5DcnLmilXr-40" vertex="1">
          <mxGeometry width="295" height="30" as="geometry" />
        </mxCell>
        <mxCell id="QloYPl8q_X5DcnLmilXr-42" value="" style="rounded=0;whiteSpace=wrap;html=1;" parent="QloYPl8q_X5DcnLmilXr-40" vertex="1">
          <mxGeometry x="9.5" y="5" width="30" height="20" as="geometry" />
        </mxCell>
        <mxCell id="ST6K1iBQBsXBQSUp6Im5-5" value="" style="html=1;verticalLabelPosition=bottom;align=center;labelBackgroundColor=#ffffff;verticalAlign=top;strokeWidth=2;shadow=0;dashed=0;shape=mxgraph.ios7.icons.delete;fillColor=#f5f5f5;gradientColor=#b3b3b3;strokeColor=#666666;" parent="QloYPl8q_X5DcnLmilXr-40" vertex="1">
          <mxGeometry x="265" y="5" width="18" height="19" as="geometry" />
        </mxCell>
        <mxCell id="QloYPl8q_X5DcnLmilXr-44" value="" style="shape=rect;fillColor=#e0e0e0;strokeColor=none;" parent="QloYPl8q_X5DcnLmilXr-1" vertex="1">
          <mxGeometry x="257.5" y="535" width="295" height="50" as="geometry" />
        </mxCell>
        <mxCell id="QloYPl8q_X5DcnLmilXr-45" value="" style="rounded=1;whiteSpace=wrap;html=1;fillColor=#f5f5f5;gradientColor=#b3b3b3;strokeColor=#666666;" parent="QloYPl8q_X5DcnLmilXr-44" vertex="1">
          <mxGeometry y="10" width="295" height="20" as="geometry" />
        </mxCell>
        <mxCell id="QloYPl8q_X5DcnLmilXr-46" value="" style="html=1;verticalLabelPosition=bottom;align=center;labelBackgroundColor=#ffffff;verticalAlign=top;strokeWidth=2;strokeColor=#0080F0;shadow=0;dashed=0;shape=mxgraph.ios7.icons.looking_glass;" parent="QloYPl8q_X5DcnLmilXr-44" vertex="1">
          <mxGeometry x="10.172413793103448" y="15" width="10.172413793103448" height="10" as="geometry" />
        </mxCell>
        <mxCell id="QloYPl8q_X5DcnLmilXr-47" value="&lt;font style=&quot;color: rgb(128, 128, 128);&quot;&gt;&amp;nbsp; &amp;nbsp; VorrÃ¤te durchsuchen ...&lt;/font&gt;" style="html=1;strokeWidth=1;shadow=0;dashed=0;shape=mxgraph.ios7ui.marginRect;rx=3;ry=3;rectMargin=5;strokeColor=none;" parent="QloYPl8q_X5DcnLmilXr-44" vertex="1">
          <mxGeometry y="15" width="166.82758620689654" height="10" as="geometry" />
        </mxCell>
        <mxCell id="ST6K1iBQBsXBQSUp6Im5-7" value="" style="html=1;verticalLabelPosition=bottom;align=center;labelBackgroundColor=#ffffff;verticalAlign=top;strokeWidth=2;shadow=0;dashed=0;shape=mxgraph.ios7.icons.add;fillColor=#d5e8d4;gradientColor=#97d077;strokeColor=#82b366;" parent="QloYPl8q_X5DcnLmilXr-1" vertex="1">
          <mxGeometry x="509.5" y="579" width="30" height="30" as="geometry" />
        </mxCell>
        <mxCell id="ST6K1iBQBsXBQSUp6Im5-8" value="VorrÃ¤tte lÃ¶schen" style="rounded=1;whiteSpace=wrap;html=1;" parent="QloYPl8q_X5DcnLmilXr-1" vertex="1">
          <mxGeometry x="260" y="582" width="120" height="25" as="geometry" />
        </mxCell>
        <mxCell id="ST6K1iBQBsXBQSUp6Im5-9" value="" style="rounded=1;whiteSpace=wrap;html=1;fillColor=#f5f5f5;gradientColor=#b3b3b3;strokeColor=#666666;" parent="QloYPl8q_X5DcnLmilXr-1" vertex="1">
          <mxGeometry x="257.5" y="270" width="120" height="60" as="geometry" />
        </mxCell>
        <mxCell id="ST6K1iBQBsXBQSUp6Im5-11" value="&lt;font style=&quot;font-size: 6px;&quot;&gt;Aufbrauchen in wenigen Tagen:&lt;/font&gt;" style="rounded=0;whiteSpace=wrap;html=1;fillColor=#f5f5f5;fontColor=#333333;strokeColor=#F4F4F4;align=left;" parent="QloYPl8q_X5DcnLmilXr-1" vertex="1">
          <mxGeometry x="275" y="280" width="90" height="10" as="geometry" />
        </mxCell>
        <mxCell id="ST6K1iBQBsXBQSUp6Im5-12" value="x Produkte" style="rounded=1;whiteSpace=wrap;html=1;" parent="QloYPl8q_X5DcnLmilXr-1" vertex="1">
          <mxGeometry x="282.63" y="297" width="69.75" height="20" as="geometry" />
        </mxCell>
        <mxCell id="ST6K1iBQBsXBQSUp6Im5-13" value="" style="rounded=1;whiteSpace=wrap;html=1;fillColor=#f5f5f5;gradientColor=#b3b3b3;strokeColor=#666666;" parent="QloYPl8q_X5DcnLmilXr-1" vertex="1">
          <mxGeometry x="414" y="270" width="120" height="60" as="geometry" />
        </mxCell>
        <mxCell id="ST6K1iBQBsXBQSUp6Im5-14" value="&lt;font style=&quot;font-size: 6px;&quot;&gt;Aufbrauchen in einer Woche:&lt;/font&gt;" style="rounded=0;whiteSpace=wrap;html=1;fillColor=#f5f5f5;fontColor=#333333;strokeColor=#F4F4F4;align=left;" parent="QloYPl8q_X5DcnLmilXr-1" vertex="1">
          <mxGeometry x="439.13" y="280" width="90" height="10" as="geometry" />
        </mxCell>
        <mxCell id="ST6K1iBQBsXBQSUp6Im5-15" value="x Produkte" style="rounded=1;whiteSpace=wrap;html=1;" parent="QloYPl8q_X5DcnLmilXr-1" vertex="1">
          <mxGeometry x="439.13" y="297" width="69.75" height="20" as="geometry" />
        </mxCell>
        <mxCell id="ST6K1iBQBsXBQSUp6Im5-18" value="" style="shape=ellipse;fillColor=#e3c800;strokeColor=#B09500;html=1;sketch=0;fontColor=#000000;" parent="QloYPl8q_X5DcnLmilXr-1" vertex="1">
          <mxGeometry x="429.13" y="282" width="10" height="10" as="geometry" />
        </mxCell>
        <mxCell id="ST6K1iBQBsXBQSUp6Im5-19" value="" style="shape=ellipse;fillColor=#e51400;strokeColor=#B20000;html=1;sketch=0;fontColor=#ffffff;" parent="QloYPl8q_X5DcnLmilXr-1" vertex="1">
          <mxGeometry x="265" y="282" width="10" height="10" as="geometry" />
        </mxCell>
        <mxCell id="DxcRjMAZ6QlFWSId6mq--0" value="" style="html=1;verticalLabelPosition=bottom;align=center;labelBackgroundColor=#ffffff;verticalAlign=top;strokeWidth=2;strokeColor=#82b366;shadow=0;dashed=0;shape=mxgraph.ios7.icons.camera;fillColor=#d5e8d4;gradientColor=#97d077;" parent="QloYPl8q_X5DcnLmilXr-1" vertex="1">
          <mxGeometry x="450" y="636.3" width="30" height="17.4" as="geometry" />
        </mxCell>
        <mxCell id="gzCvKDEIK0T_274sEpB_-0" value="" style="group;fontStyle=1;fillColor=#f5f5f5;gradientColor=#b3b3b3;strokeColor=#666666;" parent="QloYPl8q_X5DcnLmilXr-1" vertex="1" connectable="0">
          <mxGeometry x="257" y="350" width="295" height="30" as="geometry" />
        </mxCell>
        <mxCell id="gzCvKDEIK0T_274sEpB_-1" value="&amp;nbsp; &amp;nbsp; &amp;nbsp; &amp;nbsp; &amp;nbsp; &amp;nbsp; &amp;nbsp; 250g Magerquark" style="rounded=1;whiteSpace=wrap;html=1;align=left;" parent="gzCvKDEIK0T_274sEpB_-0" vertex="1">
          <mxGeometry width="295" height="30" as="geometry" />
        </mxCell>
        <mxCell id="gzCvKDEIK0T_274sEpB_-2" value="" style="rounded=0;whiteSpace=wrap;html=1;" parent="gzCvKDEIK0T_274sEpB_-0" vertex="1">
          <mxGeometry x="9.5" y="5" width="30" height="20" as="geometry" />
        </mxCell>
        <mxCell id="gzCvKDEIK0T_274sEpB_-3" value="" style="html=1;verticalLabelPosition=bottom;align=center;labelBackgroundColor=#ffffff;verticalAlign=top;strokeWidth=2;shadow=0;dashed=0;shape=mxgraph.ios7.icons.delete;fillColor=#f5f5f5;gradientColor=#b3b3b3;strokeColor=#666666;" parent="gzCvKDEIK0T_274sEpB_-0" vertex="1">
          <mxGeometry x="265" y="5" width="18" height="19" as="geometry" />
        </mxCell>
        <mxCell id="QloYPl8q_X5DcnLmilXr-9" value="" style="rounded=1;whiteSpace=wrap;html=1;arcSize=20;" parent="QloYPl8q_X5DcnLmilXr-1" vertex="1">
          <mxGeometry x="380" y="620" width="50" height="50" as="geometry" />
        </mxCell>
        <mxCell id="QloYPl8q_X5DcnLmilXr-14" value="" style="html=1;verticalLabelPosition=bottom;align=center;labelBackgroundColor=#ffffff;verticalAlign=top;strokeWidth=2;shadow=0;dashed=0;shape=mxgraph.ios7.icons.home;fillColor=#d5e8d4;gradientColor=#97d077;strokeColor=#82b366;" parent="QloYPl8q_X5DcnLmilXr-1" vertex="1">
          <mxGeometry x="389.5" y="631.13" width="30" height="27.750000000000004" as="geometry" />
        </mxCell>
      </root>
    </mxGraphModel>
  </diagram>
  <diagram name="Einkauf" id="mN4n4oZ-vWU7b4Ugk1lf">
    <mxGraphModel dx="946" dy="710" grid="1" gridSize="10" guides="1" tooltips="1" connect="1" arrows="1" fold="1" page="1" pageScale="1" pageWidth="827" pageHeight="1169" math="0" shadow="0">
      <root>
        <mxCell id="b_TgyMRwZVUw6EoKk6xE-0" />
        <mxCell id="b_TgyMRwZVUw6EoKk6xE-1" parent="b_TgyMRwZVUw6EoKk6xE-0" />
        <mxCell id="b_TgyMRwZVUw6EoKk6xE-2" value="" style="html=1;verticalLabelPosition=bottom;labelBackgroundColor=#ffffff;verticalAlign=top;shadow=0;dashed=0;strokeWidth=1;shape=mxgraph.ios7.misc.iphone;movable=0;resizable=0;rotatable=0;deletable=0;editable=0;locked=1;connectable=0;" parent="b_TgyMRwZVUw6EoKk6xE-1" vertex="1">
          <mxGeometry x="219" y="60" width="371" height="740" as="geometry" />
        </mxCell>
        <mxCell id="b_TgyMRwZVUw6EoKk6xE-3" value="&lt;b&gt;&lt;font style=&quot;font-size: 16px; color: rgb(0, 0, 0);&quot;&gt;Einkaufsliste&lt;/font&gt;&lt;/b&gt;" style="rounded=1;whiteSpace=wrap;html=1;fillColor=#d5e8d4;strokeColor=#82b366;" parent="b_TgyMRwZVUw6EoKk6xE-1" vertex="1">
          <mxGeometry x="260" y="220" width="120" height="30" as="geometry" />
        </mxCell>
        <mxCell id="b_TgyMRwZVUw6EoKk6xE-4" value="" style="html=1;strokeWidth=1;shadow=0;dashed=0;shape=mxgraph.ios7ui.appBar;fillColor=#ffffff;gradientColor=none;sketch=0;hachureGap=4;pointerEvents=0;fontFamily=Architects Daughter;fontSource=https%3A%2F%2Ffonts.googleapis.com%2Fcss%3Ffamily%3DArchitects%2BDaughter;fontSize=20;" parent="b_TgyMRwZVUw6EoKk6xE-1" vertex="1">
          <mxGeometry x="264.5" y="180" width="280" height="15" as="geometry" />
        </mxCell>
        <mxCell id="b_TgyMRwZVUw6EoKk6xE-5" value="CARRIER" style="shape=rect;align=left;fontSize=8;spacingLeft=24;fontSize=4;fontColor=#aaaaaa;strokeColor=none;fillColor=none;spacingTop=0;sketch=0;hachureGap=4;pointerEvents=0;fontFamily=Helvetica;html=1;" parent="b_TgyMRwZVUw6EoKk6xE-4" vertex="1">
          <mxGeometry y="0.5" width="50" height="13" relative="1" as="geometry">
            <mxPoint y="-6.5" as="offset" />
          </mxGeometry>
        </mxCell>
        <mxCell id="b_TgyMRwZVUw6EoKk6xE-6" value="11:55PM" style="shape=rect;fontSize=8;fontColor=#aaaaaa;strokeColor=none;fillColor=none;spacingTop=0;sketch=0;hachureGap=4;pointerEvents=0;fontFamily=Helvetica;html=1;" parent="b_TgyMRwZVUw6EoKk6xE-4" vertex="1">
          <mxGeometry x="0.5" y="0.5" width="50" height="13" relative="1" as="geometry">
            <mxPoint x="-25" y="-6.5" as="offset" />
          </mxGeometry>
        </mxCell>
        <mxCell id="b_TgyMRwZVUw6EoKk6xE-7" value="98%" style="shape=rect;align=right;fontSize=8;spacingRight=19;fontSize=6;fontColor=#aaaaaa;strokeColor=none;fillColor=none;spacingTop=0;sketch=0;hachureGap=4;pointerEvents=0;fontFamily=Helvetica;html=1;" parent="b_TgyMRwZVUw6EoKk6xE-4" vertex="1">
          <mxGeometry x="1" y="0.5" width="45" height="13" relative="1" as="geometry">
            <mxPoint x="-45" y="-6.5" as="offset" />
          </mxGeometry>
        </mxCell>
        <mxCell id="b_TgyMRwZVUw6EoKk6xE-9" value="" style="group" parent="b_TgyMRwZVUw6EoKk6xE-1" vertex="1" connectable="0">
          <mxGeometry x="260" y="620" width="290" height="50" as="geometry" />
        </mxCell>
        <mxCell id="b_TgyMRwZVUw6EoKk6xE-10" value="" style="rounded=1;whiteSpace=wrap;html=1;arcSize=20;" parent="b_TgyMRwZVUw6EoKk6xE-9" vertex="1">
          <mxGeometry width="50" height="50" as="geometry" />
        </mxCell>
        <mxCell id="b_TgyMRwZVUw6EoKk6xE-11" value="" style="rounded=1;whiteSpace=wrap;html=1;arcSize=20;fillColor=#d5e8d4;strokeColor=#000000;gradientColor=#97d077;" parent="b_TgyMRwZVUw6EoKk6xE-9" vertex="1">
          <mxGeometry x="60" width="50" height="50" as="geometry" />
        </mxCell>
        <mxCell id="b_TgyMRwZVUw6EoKk6xE-12" value="" style="rounded=1;whiteSpace=wrap;html=1;arcSize=20;" parent="b_TgyMRwZVUw6EoKk6xE-9" vertex="1">
          <mxGeometry x="119.5" width="50" height="50" as="geometry" />
        </mxCell>
        <mxCell id="b_TgyMRwZVUw6EoKk6xE-13" value="" style="rounded=1;whiteSpace=wrap;html=1;arcSize=20;" parent="b_TgyMRwZVUw6EoKk6xE-9" vertex="1">
          <mxGeometry x="180" width="50" height="50" as="geometry" />
        </mxCell>
        <mxCell id="b_TgyMRwZVUw6EoKk6xE-14" value="" style="rounded=1;whiteSpace=wrap;html=1;arcSize=20;" parent="b_TgyMRwZVUw6EoKk6xE-9" vertex="1">
          <mxGeometry x="240" width="50" height="50" as="geometry" />
        </mxCell>
        <mxCell id="b_TgyMRwZVUw6EoKk6xE-15" value="" style="html=1;verticalLabelPosition=bottom;align=center;labelBackgroundColor=#ffffff;verticalAlign=top;strokeWidth=2;shadow=0;dashed=0;shape=mxgraph.ios7.icons.home;fillColor=#d5e8d4;gradientColor=#97d077;strokeColor=#82b366;" parent="b_TgyMRwZVUw6EoKk6xE-9" vertex="1">
          <mxGeometry x="129.5" y="10.560000000000004" width="30" height="27.750000000000004" as="geometry" />
        </mxCell>
        <mxCell id="b_TgyMRwZVUw6EoKk6xE-17" value="" style="verticalLabelPosition=bottom;html=1;verticalAlign=top;align=center;shape=mxgraph.azure.azure_marketplace;" parent="b_TgyMRwZVUw6EoKk6xE-9" vertex="1">
          <mxGeometry x="71.25" y="10" width="27.5" height="28.870000000000005" as="geometry" />
        </mxCell>
        <mxCell id="b_TgyMRwZVUw6EoKk6xE-19" value="" style="verticalLabelPosition=bottom;html=1;verticalAlign=top;align=center;shape=mxgraph.azure.user;fillColor=#d5e8d4;gradientColor=#97d077;strokeColor=#82b366;" parent="b_TgyMRwZVUw6EoKk6xE-9" vertex="1">
          <mxGeometry x="250" y="9.430000000000064" width="30" height="30" as="geometry" />
        </mxCell>
        <mxCell id="b_TgyMRwZVUw6EoKk6xE-16" value="" style="sketch=0;html=1;aspect=fixed;shadow=0;verticalAlign=top;labelPosition=center;verticalLabelPosition=bottom;shape=mxgraph.gcp2.view_list;fillColor=#d5e8d4;gradientColor=#97d077;strokeColor=#82b366;" parent="b_TgyMRwZVUw6EoKk6xE-9" vertex="1">
          <mxGeometry x="13.300000000000011" y="10.559999999999945" width="23.39" height="28.88" as="geometry" />
        </mxCell>
        <mxCell id="vFLYQPgzfUyMOwJ1ghNG-0" value="" style="html=1;verticalLabelPosition=bottom;align=center;labelBackgroundColor=#ffffff;verticalAlign=top;strokeWidth=2;shadow=0;dashed=0;shape=mxgraph.ios7.icons.share;fillColor=#7EA6E0;" parent="b_TgyMRwZVUw6EoKk6xE-1" vertex="1">
          <mxGeometry x="524" y="220" width="21" height="28.5" as="geometry" />
        </mxCell>
        <mxCell id="vFLYQPgzfUyMOwJ1ghNG-4" value="" style="group;fillColor=#f5f5f5;gradientColor=#b3b3b3;strokeColor=#666666;" parent="b_TgyMRwZVUw6EoKk6xE-1" vertex="1" connectable="0">
          <mxGeometry x="255" y="280" width="295" height="30" as="geometry" />
        </mxCell>
        <mxCell id="vFLYQPgzfUyMOwJ1ghNG-1" value="&amp;nbsp; &amp;nbsp; &amp;nbsp; &amp;nbsp; &amp;nbsp; &amp;nbsp; &amp;nbsp; 250g Magerquark" style="rounded=1;whiteSpace=wrap;html=1;align=left;" parent="vFLYQPgzfUyMOwJ1ghNG-4" vertex="1">
          <mxGeometry width="295" height="30" as="geometry" />
        </mxCell>
        <mxCell id="vFLYQPgzfUyMOwJ1ghNG-2" value="" style="rounded=0;whiteSpace=wrap;html=1;" parent="vFLYQPgzfUyMOwJ1ghNG-4" vertex="1">
          <mxGeometry x="9.5" y="5" width="30" height="20" as="geometry" />
        </mxCell>
        <mxCell id="vFLYQPgzfUyMOwJ1ghNG-3" value="" style="ellipse;whiteSpace=wrap;html=1;aspect=fixed;" parent="vFLYQPgzfUyMOwJ1ghNG-4" vertex="1">
          <mxGeometry x="269" y="7.5" width="15" height="15" as="geometry" />
        </mxCell>
        <mxCell id="vFLYQPgzfUyMOwJ1ghNG-5" value="" style="group" parent="b_TgyMRwZVUw6EoKk6xE-1" vertex="1" connectable="0">
          <mxGeometry x="255" y="310" width="295" height="30" as="geometry" />
        </mxCell>
        <mxCell id="vFLYQPgzfUyMOwJ1ghNG-6" value="&amp;nbsp; &amp;nbsp; &amp;nbsp; &amp;nbsp; &amp;nbsp; &amp;nbsp; &amp;nbsp; 500g Kartoffeln" style="rounded=1;whiteSpace=wrap;html=1;align=left;" parent="vFLYQPgzfUyMOwJ1ghNG-5" vertex="1">
          <mxGeometry width="295" height="30" as="geometry" />
        </mxCell>
        <mxCell id="vFLYQPgzfUyMOwJ1ghNG-7" value="" style="rounded=0;whiteSpace=wrap;html=1;" parent="vFLYQPgzfUyMOwJ1ghNG-5" vertex="1">
          <mxGeometry x="9.5" y="5" width="30" height="20" as="geometry" />
        </mxCell>
        <mxCell id="vFLYQPgzfUyMOwJ1ghNG-8" value="" style="ellipse;whiteSpace=wrap;html=1;aspect=fixed;" parent="vFLYQPgzfUyMOwJ1ghNG-5" vertex="1">
          <mxGeometry x="269" y="7.5" width="15" height="15" as="geometry" />
        </mxCell>
        <mxCell id="vFLYQPgzfUyMOwJ1ghNG-9" value="" style="group" parent="b_TgyMRwZVUw6EoKk6xE-1" vertex="1" connectable="0">
          <mxGeometry x="255" y="340" width="295" height="30" as="geometry" />
        </mxCell>
        <mxCell id="vFLYQPgzfUyMOwJ1ghNG-10" value="&amp;nbsp; &amp;nbsp; &amp;nbsp; &amp;nbsp; &amp;nbsp; &amp;nbsp; &amp;nbsp; 300g Eier" style="rounded=1;whiteSpace=wrap;html=1;align=left;" parent="vFLYQPgzfUyMOwJ1ghNG-9" vertex="1">
          <mxGeometry width="295" height="30" as="geometry" />
        </mxCell>
        <mxCell id="vFLYQPgzfUyMOwJ1ghNG-11" value="" style="rounded=0;whiteSpace=wrap;html=1;" parent="vFLYQPgzfUyMOwJ1ghNG-9" vertex="1">
          <mxGeometry x="9.5" y="5" width="30" height="20" as="geometry" />
        </mxCell>
        <mxCell id="vFLYQPgzfUyMOwJ1ghNG-12" value="" style="ellipse;whiteSpace=wrap;html=1;aspect=fixed;" parent="vFLYQPgzfUyMOwJ1ghNG-9" vertex="1">
          <mxGeometry x="269" y="7.5" width="15" height="15" as="geometry" />
        </mxCell>
        <mxCell id="vFLYQPgzfUyMOwJ1ghNG-13" value="" style="group" parent="b_TgyMRwZVUw6EoKk6xE-1" vertex="1" connectable="0">
          <mxGeometry x="255" y="370" width="295" height="30" as="geometry" />
        </mxCell>
        <mxCell id="vFLYQPgzfUyMOwJ1ghNG-14" value="&amp;nbsp; &amp;nbsp; &amp;nbsp; &amp;nbsp; &amp;nbsp; &amp;nbsp; &amp;nbsp; 250g Milch" style="rounded=1;whiteSpace=wrap;html=1;align=left;" parent="vFLYQPgzfUyMOwJ1ghNG-13" vertex="1">
          <mxGeometry width="295" height="30" as="geometry" />
        </mxCell>
        <mxCell id="vFLYQPgzfUyMOwJ1ghNG-15" value="" style="rounded=0;whiteSpace=wrap;html=1;" parent="vFLYQPgzfUyMOwJ1ghNG-13" vertex="1">
          <mxGeometry x="9.5" y="5" width="30" height="20" as="geometry" />
        </mxCell>
        <mxCell id="vFLYQPgzfUyMOwJ1ghNG-16" value="" style="ellipse;whiteSpace=wrap;html=1;aspect=fixed;" parent="vFLYQPgzfUyMOwJ1ghNG-13" vertex="1">
          <mxGeometry x="269" y="7.5" width="15" height="15" as="geometry" />
        </mxCell>
        <mxCell id="vFLYQPgzfUyMOwJ1ghNG-17" value="" style="group" parent="b_TgyMRwZVUw6EoKk6xE-1" vertex="1" connectable="0">
          <mxGeometry x="255" y="400" width="295" height="30" as="geometry" />
        </mxCell>
        <mxCell id="vFLYQPgzfUyMOwJ1ghNG-18" value="&amp;nbsp; &amp;nbsp; &amp;nbsp; &amp;nbsp; &amp;nbsp; &amp;nbsp; &amp;nbsp; 150g Pudding" style="rounded=1;whiteSpace=wrap;html=1;align=left;" parent="vFLYQPgzfUyMOwJ1ghNG-17" vertex="1">
          <mxGeometry width="295" height="30" as="geometry" />
        </mxCell>
        <mxCell id="vFLYQPgzfUyMOwJ1ghNG-19" value="" style="rounded=0;whiteSpace=wrap;html=1;" parent="vFLYQPgzfUyMOwJ1ghNG-17" vertex="1">
          <mxGeometry x="9.5" y="5" width="30" height="20" as="geometry" />
        </mxCell>
        <mxCell id="vFLYQPgzfUyMOwJ1ghNG-20" value="" style="ellipse;whiteSpace=wrap;html=1;aspect=fixed;" parent="vFLYQPgzfUyMOwJ1ghNG-17" vertex="1">
          <mxGeometry x="269" y="7.5" width="15" height="15" as="geometry" />
        </mxCell>
        <mxCell id="vFLYQPgzfUyMOwJ1ghNG-21" value="" style="group" parent="b_TgyMRwZVUw6EoKk6xE-1" vertex="1" connectable="0">
          <mxGeometry x="255" y="430" width="295" height="30" as="geometry" />
        </mxCell>
        <mxCell id="vFLYQPgzfUyMOwJ1ghNG-22" value="&amp;nbsp; &amp;nbsp; &amp;nbsp; &amp;nbsp; &amp;nbsp; &amp;nbsp; &amp;nbsp; 250g Salat" style="rounded=1;whiteSpace=wrap;html=1;align=left;" parent="vFLYQPgzfUyMOwJ1ghNG-21" vertex="1">
          <mxGeometry width="295" height="30" as="geometry" />
        </mxCell>
        <mxCell id="vFLYQPgzfUyMOwJ1ghNG-23" value="" style="rounded=0;whiteSpace=wrap;html=1;" parent="vFLYQPgzfUyMOwJ1ghNG-21" vertex="1">
          <mxGeometry x="9.5" y="5" width="30" height="20" as="geometry" />
        </mxCell>
        <mxCell id="vFLYQPgzfUyMOwJ1ghNG-24" value="" style="ellipse;whiteSpace=wrap;html=1;aspect=fixed;" parent="vFLYQPgzfUyMOwJ1ghNG-21" vertex="1">
          <mxGeometry x="269" y="7.5" width="15" height="15" as="geometry" />
        </mxCell>
        <mxCell id="vFLYQPgzfUyMOwJ1ghNG-25" value="" style="shape=rect;fillColor=#e0e0e0;strokeColor=none;" parent="b_TgyMRwZVUw6EoKk6xE-1" vertex="1">
          <mxGeometry x="255" y="480" width="295" height="50" as="geometry" />
        </mxCell>
        <mxCell id="vFLYQPgzfUyMOwJ1ghNG-29" value="" style="rounded=1;whiteSpace=wrap;html=1;fillColor=#f5f5f5;gradientColor=#b3b3b3;strokeColor=#666666;" parent="vFLYQPgzfUyMOwJ1ghNG-25" vertex="1">
          <mxGeometry y="10" width="295" height="20" as="geometry" />
        </mxCell>
        <mxCell id="vFLYQPgzfUyMOwJ1ghNG-28" value="" style="html=1;verticalLabelPosition=bottom;align=center;labelBackgroundColor=#ffffff;verticalAlign=top;strokeWidth=2;strokeColor=#7EA6E0;shadow=0;dashed=0;shape=mxgraph.ios7.icons.looking_glass;" parent="vFLYQPgzfUyMOwJ1ghNG-25" vertex="1">
          <mxGeometry x="10.172413793103448" y="15" width="10.172413793103448" height="10" as="geometry" />
        </mxCell>
        <mxCell id="vFLYQPgzfUyMOwJ1ghNG-26" value="&lt;font style=&quot;color: rgb(128, 128, 128);&quot;&gt;Ich brauche noch ...&lt;/font&gt;" style="html=1;strokeWidth=1;shadow=0;dashed=0;shape=mxgraph.ios7ui.marginRect;rx=3;ry=3;rectMargin=5;strokeColor=none;" parent="vFLYQPgzfUyMOwJ1ghNG-25" vertex="1">
          <mxGeometry y="15" width="166.82758620689654" height="10" as="geometry" />
        </mxCell>
        <mxCell id="vFLYQPgzfUyMOwJ1ghNG-35" value="" style="html=1;verticalLabelPosition=bottom;align=center;labelBackgroundColor=#ffffff;verticalAlign=top;strokeWidth=2;shadow=0;dashed=0;shape=mxgraph.ios7.icons.add;fillColor=#f5f5f5;gradientColor=#b3b3b3;strokeColor=#666666;" parent="vFLYQPgzfUyMOwJ1ghNG-25" vertex="1">
          <mxGeometry x="271" y="13.5" width="13" height="13" as="geometry" />
        </mxCell>
        <mxCell id="HBowkWxflmbx9dwuV3vT-0" value="" style="html=1;verticalLabelPosition=bottom;align=center;labelBackgroundColor=#ffffff;verticalAlign=top;strokeWidth=2;strokeColor=#82b366;shadow=0;dashed=0;shape=mxgraph.ios7.icons.camera;fillColor=#d5e8d4;gradientColor=#97d077;" parent="b_TgyMRwZVUw6EoKk6xE-1" vertex="1">
          <mxGeometry x="450" y="636.3" width="30" height="17.4" as="geometry" />
        </mxCell>
      </root>
    </mxGraphModel>
  </diagram>
  <diagram name="Barcode" id="WG4283WgH-njaM9dSAEw">
    <mxGraphModel dx="946" dy="710" grid="1" gridSize="10" guides="1" tooltips="1" connect="1" arrows="1" fold="1" page="1" pageScale="1" pageWidth="827" pageHeight="1169" math="0" shadow="0">
      <root>
        <mxCell id="7a4AYz_89isD93sw8Dnc-0" />
        <mxCell id="7a4AYz_89isD93sw8Dnc-1" parent="7a4AYz_89isD93sw8Dnc-0" />
        <mxCell id="7a4AYz_89isD93sw8Dnc-2" value="" style="html=1;verticalLabelPosition=bottom;labelBackgroundColor=#ffffff;verticalAlign=top;shadow=0;dashed=0;strokeWidth=1;shape=mxgraph.ios7.misc.iphone;movable=0;resizable=0;rotatable=0;deletable=0;editable=0;locked=1;connectable=0;" parent="7a4AYz_89isD93sw8Dnc-1" vertex="1">
          <mxGeometry x="219" y="60" width="371" height="740" as="geometry" />
        </mxCell>
        <mxCell id="7a4AYz_89isD93sw8Dnc-3" value="&lt;font style=&quot;font-size: 16px; color: rgb(0, 0, 0);&quot;&gt;&lt;b&gt;Barcode Scanner&lt;/b&gt;&lt;/font&gt;" style="rounded=1;whiteSpace=wrap;html=1;fillColor=#d5e8d4;strokeColor=#82b366;" parent="7a4AYz_89isD93sw8Dnc-1" vertex="1">
          <mxGeometry x="260" y="220" width="140" height="30" as="geometry" />
        </mxCell>
        <mxCell id="7a4AYz_89isD93sw8Dnc-4" value="" style="html=1;strokeWidth=1;shadow=0;dashed=0;shape=mxgraph.ios7ui.appBar;fillColor=#ffffff;gradientColor=none;sketch=0;hachureGap=4;pointerEvents=0;fontFamily=Architects Daughter;fontSource=https%3A%2F%2Ffonts.googleapis.com%2Fcss%3Ffamily%3DArchitects%2BDaughter;fontSize=20;" parent="7a4AYz_89isD93sw8Dnc-1" vertex="1">
          <mxGeometry x="264.5" y="180" width="280" height="15" as="geometry" />
        </mxCell>
        <mxCell id="7a4AYz_89isD93sw8Dnc-5" value="CARRIER" style="shape=rect;align=left;fontSize=8;spacingLeft=24;fontSize=4;fontColor=#aaaaaa;strokeColor=none;fillColor=none;spacingTop=0;sketch=0;hachureGap=4;pointerEvents=0;fontFamily=Helvetica;html=1;" parent="7a4AYz_89isD93sw8Dnc-4" vertex="1">
          <mxGeometry y="0.5" width="50" height="13" relative="1" as="geometry">
            <mxPoint y="-6.5" as="offset" />
          </mxGeometry>
        </mxCell>
        <mxCell id="7a4AYz_89isD93sw8Dnc-6" value="11:55PM" style="shape=rect;fontSize=8;fontColor=#aaaaaa;strokeColor=none;fillColor=none;spacingTop=0;sketch=0;hachureGap=4;pointerEvents=0;fontFamily=Helvetica;html=1;" parent="7a4AYz_89isD93sw8Dnc-4" vertex="1">
          <mxGeometry x="0.5" y="0.5" width="50" height="13" relative="1" as="geometry">
            <mxPoint x="-25" y="-6.5" as="offset" />
          </mxGeometry>
        </mxCell>
        <mxCell id="7a4AYz_89isD93sw8Dnc-7" value="98%" style="shape=rect;align=right;fontSize=8;spacingRight=19;fontSize=6;fontColor=#aaaaaa;strokeColor=none;fillColor=none;spacingTop=0;sketch=0;hachureGap=4;pointerEvents=0;fontFamily=Helvetica;html=1;" parent="7a4AYz_89isD93sw8Dnc-4" vertex="1">
          <mxGeometry x="1" y="0.5" width="45" height="13" relative="1" as="geometry">
            <mxPoint x="-45" y="-6.5" as="offset" />
          </mxGeometry>
        </mxCell>
        <mxCell id="7a4AYz_89isD93sw8Dnc-8" value="" style="group" parent="7a4AYz_89isD93sw8Dnc-1" vertex="1" connectable="0">
          <mxGeometry x="260" y="620" width="290" height="50" as="geometry" />
        </mxCell>
        <mxCell id="7a4AYz_89isD93sw8Dnc-9" value="" style="rounded=1;whiteSpace=wrap;html=1;arcSize=20;" parent="7a4AYz_89isD93sw8Dnc-8" vertex="1">
          <mxGeometry width="50" height="50" as="geometry" />
        </mxCell>
        <mxCell id="7a4AYz_89isD93sw8Dnc-10" value="" style="rounded=1;whiteSpace=wrap;html=1;arcSize=20;" parent="7a4AYz_89isD93sw8Dnc-8" vertex="1">
          <mxGeometry x="60" width="50" height="50" as="geometry" />
        </mxCell>
        <mxCell id="7a4AYz_89isD93sw8Dnc-11" value="" style="rounded=1;whiteSpace=wrap;html=1;arcSize=20;" parent="7a4AYz_89isD93sw8Dnc-8" vertex="1">
          <mxGeometry x="119.5" width="50" height="50" as="geometry" />
        </mxCell>
        <mxCell id="7a4AYz_89isD93sw8Dnc-12" value="" style="rounded=1;whiteSpace=wrap;html=1;arcSize=20;fillColor=#d5e8d4;strokeColor=#000000;gradientColor=#97d077;" parent="7a4AYz_89isD93sw8Dnc-8" vertex="1">
          <mxGeometry x="180" width="50" height="50" as="geometry" />
        </mxCell>
        <mxCell id="7a4AYz_89isD93sw8Dnc-13" value="" style="rounded=1;whiteSpace=wrap;html=1;arcSize=20;" parent="7a4AYz_89isD93sw8Dnc-8" vertex="1">
          <mxGeometry x="240" width="50" height="50" as="geometry" />
        </mxCell>
        <mxCell id="7a4AYz_89isD93sw8Dnc-14" value="" style="html=1;verticalLabelPosition=bottom;align=center;labelBackgroundColor=#ffffff;verticalAlign=top;strokeWidth=2;shadow=0;dashed=0;shape=mxgraph.ios7.icons.home;fillColor=#d5e8d4;gradientColor=#97d077;strokeColor=#82b366;" parent="7a4AYz_89isD93sw8Dnc-8" vertex="1">
          <mxGeometry x="130" y="10.560000000000004" width="30" height="27.750000000000004" as="geometry" />
        </mxCell>
        <mxCell id="7a4AYz_89isD93sw8Dnc-16" value="" style="verticalLabelPosition=bottom;html=1;verticalAlign=top;align=center;shape=mxgraph.azure.azure_marketplace;fillColor=#d5e8d4;gradientColor=#97d077;strokeColor=#82b366;" parent="7a4AYz_89isD93sw8Dnc-8" vertex="1">
          <mxGeometry x="71.25" y="10" width="27.5" height="28.870000000000005" as="geometry" />
        </mxCell>
        <mxCell id="7a4AYz_89isD93sw8Dnc-17" value="" style="verticalLabelPosition=bottom;html=1;verticalAlign=top;align=center;shape=mxgraph.azure.user;fillColor=#d5e8d4;gradientColor=#97d077;strokeColor=#82b366;" parent="7a4AYz_89isD93sw8Dnc-8" vertex="1">
          <mxGeometry x="250" y="9.430000000000064" width="30" height="30" as="geometry" />
        </mxCell>
        <mxCell id="7a4AYz_89isD93sw8Dnc-15" value="" style="sketch=0;html=1;aspect=fixed;shadow=0;verticalAlign=top;labelPosition=center;verticalLabelPosition=bottom;shape=mxgraph.gcp2.view_list;fillColor=#d5e8d4;strokeColor=#82b366;" parent="7a4AYz_89isD93sw8Dnc-8" vertex="1">
          <mxGeometry x="13.310000000000002" y="10.559999999999945" width="23.39" height="28.88" as="geometry" />
        </mxCell>
        <mxCell id="7a4AYz_89isD93sw8Dnc-58" value="" style="html=1;verticalLabelPosition=bottom;align=center;labelBackgroundColor=#ffffff;verticalAlign=top;strokeWidth=2;shadow=0;dashed=0;shape=mxgraph.ios7.icons.camera;" parent="7a4AYz_89isD93sw8Dnc-1" vertex="1">
          <mxGeometry x="450" y="636.3" width="30" height="17.4" as="geometry" />
        </mxCell>
        <mxCell id="oX9-EWGYrngpYK__2KpI-0" value="" style="sketch=0;outlineConnect=0;fontColor=#232F3E;gradientColor=none;fillColor=#7EA6E0;strokeColor=none;dashed=0;verticalLabelPosition=bottom;verticalAlign=top;align=center;html=1;fontSize=12;fontStyle=0;aspect=fixed;pointerEvents=1;shape=mxgraph.aws4.camera2;" parent="7a4AYz_89isD93sw8Dnc-1" vertex="1">
          <mxGeometry x="500" y="220" width="37.74" height="30" as="geometry" />
        </mxCell>
        <mxCell id="oX9-EWGYrngpYK__2KpI-2" value="" style="rounded=1;whiteSpace=wrap;html=1;strokeColor=#666666;fillColor=#f5f5f5;gradientColor=#b3b3b3;" parent="7a4AYz_89isD93sw8Dnc-1" vertex="1">
          <mxGeometry x="259.5" y="260" width="290" height="340" as="geometry" />
        </mxCell>
        <mxCell id="oX9-EWGYrngpYK__2KpI-3" value="" style="html=1;verticalLabelPosition=bottom;align=center;labelBackgroundColor=#ffffff;verticalAlign=top;strokeWidth=2;shadow=0;dashed=0;shape=mxgraph.ios7.icons.flashlight;" parent="7a4AYz_89isD93sw8Dnc-1" vertex="1">
          <mxGeometry x="300" y="280" width="15" height="30" as="geometry" />
        </mxCell>
        <mxCell id="oX9-EWGYrngpYK__2KpI-4" value="" style="verticalLabelPosition=bottom;verticalAlign=top;html=1;shape=mxgraph.basic.x;fillColor=#f5f5f5;gradientColor=#b3b3b3;strokeColor=#666666;" parent="7a4AYz_89isD93sw8Dnc-1" vertex="1">
          <mxGeometry x="480" y="280" width="32" height="30" as="geometry" />
        </mxCell>
        <mxCell id="oX9-EWGYrngpYK__2KpI-5" value="" style="rounded=1;whiteSpace=wrap;html=1;fillColor=light-dark(#161313, #ededed);" parent="7a4AYz_89isD93sw8Dnc-1" vertex="1">
          <mxGeometry x="276.5" y="320" width="257" height="210" as="geometry" />
        </mxCell>
        <mxCell id="oX9-EWGYrngpYK__2KpI-6" value="&lt;font style=&quot;color: rgb(0, 0, 0);&quot;&gt;&lt;b&gt;Halte den Barcode in&amp;nbsp; den Rahmen. Der Barcode wird automatisch erkannt&lt;/b&gt;&lt;/font&gt;" style="text;html=1;align=center;verticalAlign=middle;whiteSpace=wrap;rounded=0;fontSize=7;" parent="7a4AYz_89isD93sw8Dnc-1" vertex="1">
          <mxGeometry x="301.75" y="540" width="205.5" height="35" as="geometry" />
        </mxCell>
      </root>
    </mxGraphModel>
  </diagram>
  <diagram name="Profil" id="Tt4zzStEoTPtIwaW9R8L">
    <mxGraphModel dx="652" dy="490" grid="1" gridSize="10" guides="1" tooltips="1" connect="1" arrows="1" fold="1" page="1" pageScale="1" pageWidth="827" pageHeight="1169" math="0" shadow="0">
      <root>
        <mxCell id="wP3q33f1aImQM5B6bh_S-0" />
        <mxCell id="wP3q33f1aImQM5B6bh_S-1" parent="wP3q33f1aImQM5B6bh_S-0" />
        <mxCell id="wP3q33f1aImQM5B6bh_S-2" value="" style="html=1;verticalLabelPosition=bottom;labelBackgroundColor=#ffffff;verticalAlign=top;shadow=0;dashed=0;strokeWidth=1;shape=mxgraph.ios7.misc.iphone;movable=0;resizable=0;rotatable=0;deletable=0;editable=0;locked=1;connectable=0;" parent="wP3q33f1aImQM5B6bh_S-1" vertex="1">
          <mxGeometry x="219" y="60" width="371" height="740" as="geometry" />
        </mxCell>
        <mxCell id="wP3q33f1aImQM5B6bh_S-4" value="" style="html=1;strokeWidth=1;shadow=0;dashed=0;shape=mxgraph.ios7ui.appBar;fillColor=#ffffff;gradientColor=none;sketch=0;hachureGap=4;pointerEvents=0;fontFamily=Architects Daughter;fontSource=https%3A%2F%2Ffonts.googleapis.com%2Fcss%3Ffamily%3DArchitects%2BDaughter;fontSize=20;" parent="wP3q33f1aImQM5B6bh_S-1" vertex="1">
          <mxGeometry x="264.5" y="180" width="280" height="15" as="geometry" />
        </mxCell>
        <mxCell id="wP3q33f1aImQM5B6bh_S-5" value="CARRIER" style="shape=rect;align=left;fontSize=8;spacingLeft=24;fontSize=4;fontColor=#aaaaaa;strokeColor=none;fillColor=none;spacingTop=0;sketch=0;hachureGap=4;pointerEvents=0;fontFamily=Helvetica;html=1;" parent="wP3q33f1aImQM5B6bh_S-4" vertex="1">
          <mxGeometry y="0.5" width="50" height="13" relative="1" as="geometry">
            <mxPoint y="-6.5" as="offset" />
          </mxGeometry>
        </mxCell>
        <mxCell id="wP3q33f1aImQM5B6bh_S-6" value="11:55PM" style="shape=rect;fontSize=8;fontColor=#aaaaaa;strokeColor=none;fillColor=none;spacingTop=0;sketch=0;hachureGap=4;pointerEvents=0;fontFamily=Helvetica;html=1;" parent="wP3q33f1aImQM5B6bh_S-4" vertex="1">
          <mxGeometry x="0.5" y="0.5" width="50" height="13" relative="1" as="geometry">
            <mxPoint x="-25" y="-6.5" as="offset" />
          </mxGeometry>
        </mxCell>
        <mxCell id="wP3q33f1aImQM5B6bh_S-7" value="98%" style="shape=rect;align=right;fontSize=8;spacingRight=19;fontSize=6;fontColor=#aaaaaa;strokeColor=none;fillColor=none;spacingTop=0;sketch=0;hachureGap=4;pointerEvents=0;fontFamily=Helvetica;html=1;" parent="wP3q33f1aImQM5B6bh_S-4" vertex="1">
          <mxGeometry x="1" y="0.5" width="45" height="13" relative="1" as="geometry">
            <mxPoint x="-45" y="-6.5" as="offset" />
          </mxGeometry>
        </mxCell>
        <mxCell id="wP3q33f1aImQM5B6bh_S-8" value="" style="group" parent="wP3q33f1aImQM5B6bh_S-1" vertex="1" connectable="0">
          <mxGeometry x="260" y="620" width="290" height="50" as="geometry" />
        </mxCell>
        <mxCell id="wP3q33f1aImQM5B6bh_S-9" value="" style="rounded=1;whiteSpace=wrap;html=1;arcSize=20;" parent="wP3q33f1aImQM5B6bh_S-8" vertex="1">
          <mxGeometry width="50" height="50" as="geometry" />
        </mxCell>
        <mxCell id="wP3q33f1aImQM5B6bh_S-10" value="" style="rounded=1;whiteSpace=wrap;html=1;arcSize=20;" parent="wP3q33f1aImQM5B6bh_S-8" vertex="1">
          <mxGeometry x="60" width="50" height="50" as="geometry" />
        </mxCell>
        <mxCell id="wP3q33f1aImQM5B6bh_S-11" value="" style="rounded=1;whiteSpace=wrap;html=1;arcSize=20;" parent="wP3q33f1aImQM5B6bh_S-8" vertex="1">
          <mxGeometry x="119.5" width="50" height="50" as="geometry" />
        </mxCell>
        <mxCell id="wP3q33f1aImQM5B6bh_S-12" value="" style="rounded=1;whiteSpace=wrap;html=1;arcSize=20;" parent="wP3q33f1aImQM5B6bh_S-8" vertex="1">
          <mxGeometry x="180" width="50" height="50" as="geometry" />
        </mxCell>
        <mxCell id="wP3q33f1aImQM5B6bh_S-13" value="" style="rounded=1;whiteSpace=wrap;html=1;arcSize=20;fillColor=#d5e8d4;gradientColor=#97d077;strokeColor=light-dark(#000000, #446e2c);" parent="wP3q33f1aImQM5B6bh_S-8" vertex="1">
          <mxGeometry x="240" width="50" height="50" as="geometry" />
        </mxCell>
        <mxCell id="wP3q33f1aImQM5B6bh_S-14" value="" style="html=1;verticalLabelPosition=bottom;align=center;labelBackgroundColor=#ffffff;verticalAlign=top;strokeWidth=2;shadow=0;dashed=0;shape=mxgraph.ios7.icons.home;fillColor=#d5e8d4;gradientColor=#97d077;strokeColor=#82b366;" parent="wP3q33f1aImQM5B6bh_S-8" vertex="1">
          <mxGeometry x="130" y="10.560000000000004" width="30" height="27.750000000000004" as="geometry" />
        </mxCell>
        <mxCell id="wP3q33f1aImQM5B6bh_S-16" value="" style="verticalLabelPosition=bottom;html=1;verticalAlign=top;align=center;shape=mxgraph.azure.azure_marketplace;fillColor=#d5e8d4;gradientColor=#97d077;strokeColor=#82b366;" parent="wP3q33f1aImQM5B6bh_S-8" vertex="1">
          <mxGeometry x="71.25" y="10" width="27.5" height="28.870000000000005" as="geometry" />
        </mxCell>
        <mxCell id="wP3q33f1aImQM5B6bh_S-17" value="" style="verticalLabelPosition=bottom;html=1;verticalAlign=top;align=center;shape=mxgraph.azure.user;" parent="wP3q33f1aImQM5B6bh_S-8" vertex="1">
          <mxGeometry x="250" y="9.430000000000064" width="30" height="30" as="geometry" />
        </mxCell>
        <mxCell id="wP3q33f1aImQM5B6bh_S-15" value="" style="sketch=0;html=1;aspect=fixed;shadow=0;verticalAlign=top;labelPosition=center;verticalLabelPosition=bottom;shape=mxgraph.gcp2.view_list;fillColor=#d5e8d4;strokeColor=#82b366;" parent="wP3q33f1aImQM5B6bh_S-8" vertex="1">
          <mxGeometry x="13.300000000000011" y="10.559999999999945" width="23.39" height="28.88" as="geometry" />
        </mxCell>
        <mxCell id="wP3q33f1aImQM5B6bh_S-18" value="" style="html=1;verticalLabelPosition=bottom;align=center;labelBackgroundColor=#ffffff;verticalAlign=top;strokeWidth=2;shadow=0;dashed=0;shape=mxgraph.ios7.icons.camera;fillColor=#d5e8d4;gradientColor=#97d077;strokeColor=#82b366;" parent="wP3q33f1aImQM5B6bh_S-1" vertex="1">
          <mxGeometry x="450" y="636.3" width="30" height="17.4" as="geometry" />
        </mxCell>
        <mxCell id="WojN24FhX5NW6x1m7gpT-1" value="" style="shape=or;whiteSpace=wrap;html=1;rotation=90;fillColor=#d5e8d4;gradientColor=#97d077;strokeColor=#82b366;" parent="wP3q33f1aImQM5B6bh_S-1" vertex="1">
          <mxGeometry x="374.5" y="80" width="60" height="320" as="geometry" />
        </mxCell>
        <mxCell id="WojN24FhX5NW6x1m7gpT-2" value="" style="ellipse;whiteSpace=wrap;html=1;aspect=fixed;fillColor=#d5e8d4;gradientColor=#97d077;strokeColor=#000000;" parent="wP3q33f1aImQM5B6bh_S-1" vertex="1">
          <mxGeometry x="364.5" y="240" width="80" height="80" as="geometry" />
        </mxCell>
        <mxCell id="WojN24FhX5NW6x1m7gpT-3" value="" style="shape=actor;whiteSpace=wrap;html=1;" parent="wP3q33f1aImQM5B6bh_S-1" vertex="1">
          <mxGeometry x="384.5" y="250" width="40" height="60" as="geometry" />
        </mxCell>
        <mxCell id="WojN24FhX5NW6x1m7gpT-4" value="Hallo, BenutzerXY" style="text;html=1;align=center;verticalAlign=middle;whiteSpace=wrap;rounded=0;fontStyle=1;fontSize=16;" parent="wP3q33f1aImQM5B6bh_S-1" vertex="1">
          <mxGeometry x="332.19" y="320" width="144.63" height="30" as="geometry" />
        </mxCell>
        <mxCell id="WojN24FhX5NW6x1m7gpT-5" value="Einstellungen" style="text;html=1;align=center;verticalAlign=middle;whiteSpace=wrap;rounded=0;" parent="wP3q33f1aImQM5B6bh_S-1" vertex="1">
          <mxGeometry x="250" y="350" width="90" height="30" as="geometry" />
        </mxCell>
        <mxCell id="WojN24FhX5NW6x1m7gpT-6" value="&lt;font style=&quot;color: rgb(0, 0, 0);&quot;&gt;&lt;b&gt;Haushalt&lt;/b&gt;&lt;/font&gt;" style="rounded=1;whiteSpace=wrap;html=1;fillColor=#f5f5f5;gradientColor=#b3b3b3;strokeColor=#666666;" parent="wP3q33f1aImQM5B6bh_S-1" vertex="1">
          <mxGeometry x="255" y="380" width="305" height="30" as="geometry" />
        </mxCell>
        <mxCell id="WojN24FhX5NW6x1m7gpT-7" value="&lt;b&gt;&lt;font style=&quot;color: rgb(0, 0, 0);&quot;&gt;ErnÃ¤hrung&lt;/font&gt;&lt;/b&gt;" style="rounded=1;whiteSpace=wrap;html=1;fillColor=#f5f5f5;gradientColor=#b3b3b3;strokeColor=#666666;" parent="wP3q33f1aImQM5B6bh_S-1" vertex="1">
          <mxGeometry x="255" y="410" width="305" height="30" as="geometry" />
        </mxCell>
        <mxCell id="WojN24FhX5NW6x1m7gpT-14" value="&lt;b&gt;&lt;font style=&quot;color: rgb(0, 0, 0);&quot;&gt;Wochenplan&lt;/font&gt;&lt;/b&gt;" style="rounded=1;whiteSpace=wrap;html=1;fillColor=#f5f5f5;gradientColor=#b3b3b3;strokeColor=#666666;" parent="wP3q33f1aImQM5B6bh_S-1" vertex="1">
          <mxGeometry x="255" y="440" width="305" height="30" as="geometry" />
        </mxCell>
        <mxCell id="WojN24FhX5NW6x1m7gpT-15" value="&lt;font style=&quot;color: rgb(0, 0, 0);&quot;&gt;&lt;b&gt;Mein Account&lt;/b&gt;&lt;/font&gt;" style="rounded=1;whiteSpace=wrap;html=1;fillColor=#f5f5f5;gradientColor=#b3b3b3;strokeColor=#666666;" parent="wP3q33f1aImQM5B6bh_S-1" vertex="1">
          <mxGeometry x="255" y="500" width="305" height="30" as="geometry" />
        </mxCell>
        <mxCell id="aCAemgMpfkA4ANdMfptM-0" value="Profil" style="text;html=1;align=left;verticalAlign=middle;whiteSpace=wrap;rounded=0;" parent="wP3q33f1aImQM5B6bh_S-1" vertex="1">
          <mxGeometry x="255" y="470" width="90" height="30" as="geometry" />
        </mxCell>
        <mxCell id="aCAemgMpfkA4ANdMfptM-1" value="&lt;b&gt;&lt;font style=&quot;color: rgb(0, 0, 0);&quot;&gt;Feedback und Hilfe&lt;/font&gt;&lt;/b&gt;" style="rounded=1;whiteSpace=wrap;html=1;fillColor=#f5f5f5;gradientColor=#b3b3b3;strokeColor=#666666;" parent="wP3q33f1aImQM5B6bh_S-1" vertex="1">
          <mxGeometry x="255" y="530" width="305" height="30" as="geometry" />
        </mxCell>
        <mxCell id="aCAemgMpfkA4ANdMfptM-2" value="&lt;font style=&quot;color: rgb(0, 0, 0);&quot;&gt;&lt;b&gt;Sonstiges&lt;/b&gt;&lt;/font&gt;" style="rounded=1;whiteSpace=wrap;html=1;fillColor=#f5f5f5;gradientColor=#b3b3b3;strokeColor=#666666;" parent="wP3q33f1aImQM5B6bh_S-1" vertex="1">
          <mxGeometry x="255" y="560" width="305" height="30" as="geometry" />
        </mxCell>
      </root>
    </mxGraphModel>
  </diagram>
</mxfile>
